<svg xmlns="http://www.w3.org/2000/svg" width="43.335" height="24.803" viewBox="0 0 43.335 24.803"><path d="M1291.835,880.057c.217.923.448,1.813.634,2.711.385,1.868.747,3.742,1.117,5.614a2.771,2.771,0,0,1,.044.312c.037.44-.005.512-.4.662-.137.052-.279.09-.42.131a34.5,34.5,0,0,0-14.18,8.216,60.265,60.265,0,0,0-5.581,5.8c-.313.387-.619.78-.971,1.226-.2-.232-.353-.422-.516-.6-1.943-2.174-3.819-4.412-5.845-6.505a30.7,30.7,0,0,0-11.618-7.315c-1.02-.379-2.068-.684-3.1-1.022-.215-.07-.433-.133-.689-.212l1.974-9.144a34.029,34.029,0,0,1,11.086,4.835,35.234,35.234,0,0,1,8.668,8.449c.165-.2.308-.369.44-.543a34.1,34.1,0,0,1,9.336-8.612,33.345,33.345,0,0,1,9.491-3.928A5.142,5.142,0,0,1,1291.835,880.057Z" transform="translate(-1250.305 -879.928)" fill="#fff"/></svg>