<svg xmlns="http://www.w3.org/2000/svg" width="265.064" height="80" viewBox="0 0 265.064 80"><g transform="translate(-1244 -2923.5)"><g transform="translate(1419.325 2923.5)"><path d="M1291.839,880.057c.217.923.448,1.813.634,2.712.385,1.869.747,3.742,1.117,5.614a2.771,2.771,0,0,1,.044.312c.037.44-.005.512-.4.662-.137.052-.279.09-.42.131a34.5,34.5,0,0,0-14.182,8.216,60.256,60.256,0,0,0-5.581,5.8c-.313.387-.619.78-.971,1.226-.2-.232-.353-.422-.516-.6-1.943-2.174-3.82-4.413-5.846-6.506a30.7,30.7,0,0,0-11.619-7.316c-1.021-.379-2.068-.684-3.1-1.022-.215-.07-.433-.133-.689-.212l1.975-9.145a34.033,34.033,0,0,1,11.087,4.835,35.238,35.238,0,0,1,8.669,8.45c.165-.2.308-.369.44-.543a34.106,34.106,0,0,1,9.338-8.613,33.348,33.348,0,0,1,9.492-3.928A5.142,5.142,0,0,1,1291.839,880.057Z" transform="translate(-1227.148 -879.928)" fill="#fff"/><path d="M1307.261,980.177l28.023,28-.063.117-11.167-2.337c-.776,4.006-1.54,7.951-2.318,11.966a4.067,4.067,0,0,1-.487-.239q-4.482-3.09-8.959-6.185a2.791,2.791,0,0,1-1.2-1.984q-.588-4.015-1.16-8.033-.607-4.3-1.19-8.6c-.329-2.453-.637-4.909-.95-7.364q-.294-2.31-.574-4.621c-.027-.22-.042-.441-.062-.662Z" transform="translate(-1260.069 -937.965)" fill="#fff"/><path d="M1257.821,980.347c-.115.976-.222,1.954-.345,2.929-.316,2.5-.629,5-.96,7.49q-.587,4.429-1.2,8.854c-.426,3.033-.873,6.062-1.311,9.093-.015.1-.028.208-.035.313a3.6,3.6,0,0,1-1.807,2.911c-2.761,1.832-5.465,3.752-8.193,5.635-.2.139-.411.266-.708.456-.852-4.027-1.512-7.987-2.361-11.995-3.744.743-7.437,1.564-11.12,2.31-.039-.036-.059-.046-.062-.06a.074.074,0,0,1,0-.061c.513-.525,1.023-1.053,1.542-1.571l26.406-26.365Z" transform="translate(-1215.222 -938.028)" fill="#fff"/><path d="M1366.528,972.56c-.238.15-.418.274-.608.383-4.055,2.326-8.1,4.662-12.173,6.964a1.51,1.51,0,0,0-.867,1.507c.047,4.531.061,9.063.085,13.595a1.5,1.5,0,0,1-.115.69c-.112-.164-.231-.323-.334-.493-2.192-3.6-4.4-7.193-6.569-10.8a46.68,46.68,0,0,0-9.442-11.054c-.142-.124-.283-.249-.422-.378a.425.425,0,0,1-.061-.107C1336.57,972.678,1365.541,972.374,1366.528,972.56Z" transform="translate(-1276.789 -933.521)" fill="#fff"/><path d="M1346.655,898.651c-.051.235-.08.41-.126.58-1.236,4.573-2.464,9.148-3.721,13.715a1.465,1.465,0,0,0,.436,1.625c3.254,3.182,6.481,6.393,9.721,9.59a4.117,4.117,0,0,0,.5.368l-.106.181c-.187-.033-.377-.056-.562-.1-4.315-1.049-8.626-2.118-12.946-3.148a43.705,43.705,0,0,0-11.736-1.087c-.938.033-1.876.081-2.823.123C1325.564,919.958,1345.718,899.332,1346.655,898.651Z" transform="translate(-1270.579 -890.767)" fill="#fff"/><path d="M1239.586,920.574c-.18,0-.341.01-.5,0a46.719,46.719,0,0,0-15.222,1.24c-3.956,1.018-7.936,1.94-11.906,2.9-.155.037-.317.047-.6.087.224-.238.359-.389.5-.531,3.235-3.2,6.462-6.413,9.718-9.594a1.545,1.545,0,0,0,.443-1.736c-1.277-4.605-2.512-9.222-3.76-13.835-.027-.1-.046-.2-.074-.32C1218.783,899.089,1239.062,919.736,1239.586,920.574Z" transform="translate(-1204.591 -890.845)" fill="#fff"/><path d="M1225.836,972.956a2.372,2.372,0,0,0-.373.218,48.24,48.24,0,0,0-10.4,12.439c-1.888,3.243-3.887,6.422-5.838,9.629-.1.158-.2.311-.37.571a3.67,3.67,0,0,1-.076-.489q.034-5.286.075-10.571c.009-1.175-.006-2.35.024-3.524a1.238,1.238,0,0,0-.719-1.21c-2.534-1.438-5.059-2.893-7.586-4.342q-2.4-1.377-4.8-2.755a2.049,2.049,0,0,1-.487-.376c10.151-.089,20.284.14,30.417.224Z" transform="translate(-1195.283 -933.534)" fill="#fff"/></g><g transform="translate(1244.776 2975.654)"><path d="M781.488,1009.767a1.847,1.847,0,0,1-.7-.782,2.607,2.607,0,0,1-.249-1.162v-1.818a2.5,2.5,0,0,1,.257-1.158,1.913,1.913,0,0,1,.721-.782,2.022,2.022,0,0,1,1.065-.28h.926a2.065,2.065,0,0,1,1.018.245,1.726,1.726,0,0,1,.686.691,2.09,2.09,0,0,1,.245,1.022h-.629a1.391,1.391,0,0,0-.362-1,1.26,1.26,0,0,0-.956-.38h-.926a1.267,1.267,0,0,0-1.013.45,1.776,1.776,0,0,0-.384,1.193v1.818a1.813,1.813,0,0,0,.371,1.192,1.21,1.21,0,0,0,.983.45h.943a1.285,1.285,0,0,0,1-.428,1.624,1.624,0,0,0,.384-1.127v-.524h-1.694v-.568H785.5v1.092a2.406,2.406,0,0,1-.249,1.114,1.8,1.8,0,0,1-.707.752,2.081,2.081,0,0,1-1.062.266h-.943A1.976,1.976,0,0,1,781.488,1009.767Z" transform="translate(-780.541 -1003.786)" fill="#fff"/><path d="M795.1,1012.025a1.527,1.527,0,0,1-.446-1.149v-1.249a1.662,1.662,0,0,1,.446-1.21,1.567,1.567,0,0,1,1.179-.459h.716a1.492,1.492,0,0,1,1.127.445,1.634,1.634,0,0,1,.427,1.18v.769H795.28v.524a1.013,1.013,0,0,0,.275.738.955.955,0,0,0,.72.284h.664a1.028,1.028,0,0,0,.707-.24.817.817,0,0,0,.27-.642h.611a1.343,1.343,0,0,1-.437,1.044,1.644,1.644,0,0,1-1.152.4h-.664A1.62,1.62,0,0,1,795.1,1012.025Zm2.821-2.215v-.227a1.142,1.142,0,0,0-.253-.774.847.847,0,0,0-.673-.292h-.716a.922.922,0,0,0-.72.306,1.153,1.153,0,0,0-.275.8v.183Z" transform="translate(-788.713 -1006.201)" fill="#fff"/><path d="M806.521,1008.028h.611v.646a1.637,1.637,0,0,1,.524-.516,1.216,1.216,0,0,1,.646-.2h.594a1.252,1.252,0,0,1,.974.41,1.545,1.545,0,0,1,.371,1.075v2.945h-.629v-2.962a1.026,1.026,0,0,0-.2-.655.646.646,0,0,0-.533-.253h-.559a1.056,1.056,0,0,0-.747.323,1.456,1.456,0,0,0-.423.83v2.718h-.629Z" transform="translate(-795.587 -1006.201)" fill="#fff"/><path d="M818.421,1012.025a1.529,1.529,0,0,1-.445-1.149v-1.249a1.664,1.664,0,0,1,.445-1.21,1.568,1.568,0,0,1,1.179-.459h.716a1.491,1.491,0,0,1,1.127.445,1.631,1.631,0,0,1,.428,1.18v.769H818.6v.524a1.014,1.014,0,0,0,.275.738.956.956,0,0,0,.721.284h.664a1.027,1.027,0,0,0,.707-.24.817.817,0,0,0,.271-.642h.611a1.344,1.344,0,0,1-.436,1.044,1.646,1.646,0,0,1-1.153.4H819.6A1.62,1.62,0,0,1,818.421,1012.025Zm2.821-2.215v-.227a1.144,1.144,0,0,0-.253-.774.846.846,0,0,0-.672-.292H819.6a.924.924,0,0,0-.721.306,1.156,1.156,0,0,0-.275.8v.183Z" transform="translate(-802.221 -1006.201)" fill="#fff"/><path d="M829.845,1008.1h.612v.672a1.306,1.306,0,0,1,.528-.5,1.521,1.521,0,0,1,.738-.193h.384v.568h-.384a1.207,1.207,0,0,0-.9.354,1.289,1.289,0,0,0-.345.939v2.516h-.629Z" transform="translate(-809.095 -1006.273)" fill="#fff"/><path d="M836.928,1012.126a1.124,1.124,0,0,1-.38-.891v-.28a1.1,1.1,0,0,1,.393-.882,1.558,1.558,0,0,1,1.039-.332h.559a2.187,2.187,0,0,1,.594.088,1.809,1.809,0,0,1,.524.236v-.726a.82.82,0,0,0-.227-.6.808.808,0,0,0-.6-.232h-.7a.963.963,0,0,0-.6.175.557.557,0,0,0-.227.463h-.629a1.057,1.057,0,0,1,.4-.861,1.621,1.621,0,0,1,1.057-.327h.7a1.449,1.449,0,0,1,1.043.38,1.321,1.321,0,0,1,.4,1v3.05h-.594v-.611a1.475,1.475,0,0,1-.529.5,1.368,1.368,0,0,1-.677.183h-.524A1.49,1.49,0,0,1,836.928,1012.126Zm1.559-.219a1.153,1.153,0,0,0,.734-.253,1.24,1.24,0,0,0,.437-.673v-.323a1.257,1.257,0,0,0-.485-.267,2.046,2.046,0,0,0-.633-.1h-.559a.885.885,0,0,0-.581.183.593.593,0,0,0-.223.481v.28a.618.618,0,0,0,.21.489.817.817,0,0,0,.559.183Z" transform="translate(-812.977 -1006.201)" fill="#fff"/><path d="M848.7,1009.794a1.248,1.248,0,0,1-.279-.913v-4.928h.629v4.928a.7.7,0,0,0,.135.481.571.571,0,0,0,.441.148h.3v.559h-.3A1.288,1.288,0,0,1,848.7,1009.794Z" transform="translate(-819.851 -1003.882)" fill="#fff"/><path d="M860.431,1009.82a1.565,1.565,0,0,1-.625-.629,1.923,1.923,0,0,1-.223-.939h.629a1.223,1.223,0,0,0,.319.878,1.106,1.106,0,0,0,.843.337h.97a1.362,1.362,0,0,0,.829-.232.719.719,0,0,0,.314-.607v-.559a.66.66,0,0,0-.231-.507,1.192,1.192,0,0,0-.633-.271l-1.572-.262a1.891,1.891,0,0,1-1.031-.472,1.206,1.206,0,0,1-.367-.9v-.472a1.236,1.236,0,0,1,.476-1.018,1.965,1.965,0,0,1,1.262-.38h.987a1.626,1.626,0,0,1,1.2.45,1.594,1.594,0,0,1,.454,1.184H863.4a1.057,1.057,0,0,0-.279-.769.988.988,0,0,0-.742-.289h-.987a1.3,1.3,0,0,0-.795.223.711.711,0,0,0-.3.6v.472a.682.682,0,0,0,.223.516,1.178,1.178,0,0,0,.616.279l1.563.271a2.071,2.071,0,0,1,1.057.468,1.14,1.14,0,0,1,.376.878v.559a1.247,1.247,0,0,1-.489,1.027,2,2,0,0,1-1.284.389h-1A1.874,1.874,0,0,1,860.431,1009.82Z" transform="translate(-826.318 -1003.786)" fill="#fff"/><path d="M873.04,1012.025a1.528,1.528,0,0,1-.445-1.149v-1.249a1.662,1.662,0,0,1,.445-1.21,1.567,1.567,0,0,1,1.179-.459h.716a1.49,1.49,0,0,1,1.127.445,1.632,1.632,0,0,1,.428,1.18v.769h-3.266v.524a1.015,1.015,0,0,0,.275.738.956.956,0,0,0,.721.284h.664a1.027,1.027,0,0,0,.707-.24.815.815,0,0,0,.27-.642h.612a1.345,1.345,0,0,1-.437,1.044,1.646,1.646,0,0,1-1.153.4h-.664A1.62,1.62,0,0,1,873.04,1012.025Zm2.821-2.215v-.227a1.141,1.141,0,0,0-.253-.774.845.845,0,0,0-.673-.292h-.716a.923.923,0,0,0-.721.306,1.156,1.156,0,0,0-.275.8v.183Z" transform="translate(-833.853 -1006.201)" fill="#fff"/><path d="M884.487,1012.025a1.545,1.545,0,0,1-.437-1.149v-1.249a1.683,1.683,0,0,1,.437-1.21,1.505,1.505,0,0,1,1.144-.459h.716a1.542,1.542,0,0,1,1.083.375,1.277,1.277,0,0,1,.411.987h-.612a.757.757,0,0,0-.24-.581.906.906,0,0,0-.642-.222h-.716a.864.864,0,0,0-.69.306,1.192,1.192,0,0,0-.262.8v1.249a1.028,1.028,0,0,0,.267.743.912.912,0,0,0,.694.28h.716a.829.829,0,0,0,.659-.288,1.137,1.137,0,0,0,.249-.769h.612a1.639,1.639,0,0,1-.419,1.171,1.44,1.44,0,0,1-1.1.445h-.716A1.565,1.565,0,0,1,884.487,1012.025Z" transform="translate(-840.487 -1006.201)" fill="#fff"/><path d="M895.587,1008.1h.611v.672a1.307,1.307,0,0,1,.528-.5,1.521,1.521,0,0,1,.738-.193h.384v.568h-.384a1.208,1.208,0,0,0-.9.354,1.289,1.289,0,0,0-.345.939v2.516h-.629Z" transform="translate(-847.168 -1006.273)" fill="#fff"/><path d="M902.652,1012.025a1.529,1.529,0,0,1-.445-1.149v-1.249a1.664,1.664,0,0,1,.445-1.21,1.567,1.567,0,0,1,1.179-.459h.717a1.49,1.49,0,0,1,1.126.445,1.632,1.632,0,0,1,.428,1.18v.769h-3.266v.524a1.016,1.016,0,0,0,.275.738.956.956,0,0,0,.721.284h.664a1.025,1.025,0,0,0,.707-.24.816.816,0,0,0,.271-.642h.611a1.346,1.346,0,0,1-.436,1.044,1.647,1.647,0,0,1-1.153.4h-.664A1.619,1.619,0,0,1,902.652,1012.025Zm2.821-2.215v-.227a1.143,1.143,0,0,0-.253-.774.845.845,0,0,0-.672-.292h-.717a.924.924,0,0,0-.721.306,1.157,1.157,0,0,0-.275.8v.183Z" transform="translate(-851.002 -1006.201)" fill="#fff"/><path d="M914.192,1010.372a1.335,1.335,0,0,1-.3-.979v-2.525h-.768v-.559h.768v-1.32h.629v1.32h1.136v.559h-1.136v2.525a.8.8,0,0,0,.153.55.67.67,0,0,0,.511.166h.471v.559h-.471A1.378,1.378,0,0,1,914.192,1010.372Z" transform="translate(-857.323 -1004.483)" fill="#fff"/><path d="M921.678,1012.126a1.125,1.125,0,0,1-.38-.891v-.28a1.1,1.1,0,0,1,.393-.882,1.558,1.558,0,0,1,1.039-.332h.559a2.187,2.187,0,0,1,.594.088,1.809,1.809,0,0,1,.524.236v-.726a.82.82,0,0,0-.227-.6.807.807,0,0,0-.6-.232h-.7a.964.964,0,0,0-.6.175.557.557,0,0,0-.227.463h-.629a1.057,1.057,0,0,1,.4-.861,1.621,1.621,0,0,1,1.057-.327h.7a1.449,1.449,0,0,1,1.043.38,1.321,1.321,0,0,1,.4,1v3.05h-.594v-.611a1.477,1.477,0,0,1-.529.5,1.37,1.37,0,0,1-.677.183H922.7A1.49,1.49,0,0,1,921.678,1012.126Zm1.559-.219a1.153,1.153,0,0,0,.734-.253,1.24,1.24,0,0,0,.437-.673v-.323a1.258,1.258,0,0,0-.485-.267,2.045,2.045,0,0,0-.633-.1h-.559a.885.885,0,0,0-.581.183.593.593,0,0,0-.223.481v.28a.618.618,0,0,0,.21.489.817.817,0,0,0,.559.183Z" transform="translate(-862.058 -1006.201)" fill="#fff"/><path d="M933.167,1008.1h.612v.672a1.305,1.305,0,0,1,.528-.5,1.523,1.523,0,0,1,.738-.193h.384v.568h-.384a1.207,1.207,0,0,0-.9.354,1.29,1.29,0,0,0-.345.939v2.516h-.629Z" transform="translate(-868.932 -1006.273)" fill="#fff"/><path d="M940.665,1005.139a.509.509,0,1,1,.341.131A.462.462,0,0,1,940.665,1005.139Zm.026.787h.629v4.36h-.629Z" transform="translate(-873.199 -1004.099)" fill="#fff"/><path d="M945.978,1012.126a1.123,1.123,0,0,1-.38-.891v-.28a1.1,1.1,0,0,1,.393-.882,1.557,1.557,0,0,1,1.039-.332h.559a2.185,2.185,0,0,1,.594.088,1.8,1.8,0,0,1,.524.236v-.726a.819.819,0,0,0-.227-.6.806.806,0,0,0-.6-.232h-.7a.964.964,0,0,0-.6.175.556.556,0,0,0-.227.463h-.629a1.057,1.057,0,0,1,.4-.861,1.621,1.621,0,0,1,1.057-.327h.7a1.448,1.448,0,0,1,1.043.38,1.32,1.32,0,0,1,.4,1v3.05h-.594v-.611a1.47,1.47,0,0,1-.528.5,1.369,1.369,0,0,1-.677.183H947A1.49,1.49,0,0,1,945.978,1012.126Zm1.559-.219a1.154,1.154,0,0,0,.734-.253,1.237,1.237,0,0,0,.436-.673v-.323a1.251,1.251,0,0,0-.485-.267,2.043,2.043,0,0,0-.633-.1h-.559a.885.885,0,0,0-.581.183.594.594,0,0,0-.223.481v.28a.618.618,0,0,0,.21.489.817.817,0,0,0,.559.183Z" transform="translate(-876.132 -1006.201)" fill="#fff"/><path d="M957.707,1010.372a1.335,1.335,0,0,1-.3-.979v-2.525h-.769v-.559h.769v-1.32h.629v1.32h1.136v.559h-1.136v2.525a.8.8,0,0,0,.153.55.669.669,0,0,0,.511.166h.472v.559H958.7A1.377,1.377,0,0,1,957.707,1010.372Z" transform="translate(-882.525 -1004.483)" fill="#fff"/><path d="M971.445,1012a1.636,1.636,0,0,1-.446-1.2v-1.2a1.626,1.626,0,0,1,.45-1.2,1.6,1.6,0,0,1,1.192-.454h.717a1.6,1.6,0,0,1,1.192.454,1.627,1.627,0,0,1,.449,1.2v1.2a1.561,1.561,0,0,1-1.659,1.651h-.716A1.575,1.575,0,0,1,971.445,1012Zm1.9-.1a.973.973,0,0,0,.751-.3,1.115,1.115,0,0,0,.279-.791v-1.2a1.115,1.115,0,0,0-.279-.791.953.953,0,0,0-.733-.3h-.717a.953.953,0,0,0-.734.3,1.117,1.117,0,0,0-.279.791v1.2a1.136,1.136,0,0,0,.271.8.933.933,0,0,0,.725.3Z" transform="translate(-890.842 -1006.201)" fill="#fff"/><path d="M983.122,1006.22h-.751v-.559h.751v-.341a1.29,1.29,0,0,1,1.441-1.451h.332v.542h-.332a.782.782,0,0,0-.616.223,1.017,1.017,0,0,0-.2.686v.341H984.8v.559h-1.048v3.8h-.629Z" transform="translate(-897.428 -1003.834)" fill="#fff"/><path d="M996.828,1010.372a1.333,1.333,0,0,1-.3-.979v-2.525h-.768v-.559h.768v-1.32h.629v1.32h1.135v.559h-1.135v2.525a.8.8,0,0,0,.152.55.671.671,0,0,0,.511.166h.471v.559h-.471A1.377,1.377,0,0,1,996.828,1010.372Z" transform="translate(-905.181 -1004.483)" fill="#fff"/><path d="M1004.515,1003.952h.629v2.359a1.527,1.527,0,0,1,.515-.489,1.251,1.251,0,0,1,.638-.183h.611a1.252,1.252,0,0,1,.974.41,1.543,1.543,0,0,1,.371,1.075v2.945h-.629v-2.962a1.026,1.026,0,0,0-.2-.655.646.646,0,0,0-.533-.253h-.577a1.06,1.06,0,0,0-.747.319,1.427,1.427,0,0,0-.423.817v2.735h-.629Z" transform="translate(-910.253 -1003.882)" fill="#fff"/><path d="M1016.456,1012.025a1.529,1.529,0,0,1-.445-1.149v-1.249a1.664,1.664,0,0,1,.445-1.21,1.568,1.568,0,0,1,1.179-.459h.716a1.491,1.491,0,0,1,1.126.445,1.631,1.631,0,0,1,.428,1.18v.769h-3.266v.524a1.016,1.016,0,0,0,.275.738.956.956,0,0,0,.721.284h.664a1.027,1.027,0,0,0,.708-.24.816.816,0,0,0,.27-.642h.612a1.346,1.346,0,0,1-.436,1.044,1.647,1.647,0,0,1-1.153.4h-.664A1.621,1.621,0,0,1,1016.456,1012.025Zm2.821-2.215v-.227a1.144,1.144,0,0,0-.253-.774.845.845,0,0,0-.672-.292h-.716a.923.923,0,0,0-.721.306,1.157,1.157,0,0,0-.275.8v.183Z" transform="translate(-916.911 -1006.201)" fill="#fff"/><path d="M1034.516,1009.763a1.878,1.878,0,0,1-.7-.782,2.576,2.576,0,0,1-.249-1.158v-1.818a2.6,2.6,0,0,1,.249-1.162,1.827,1.827,0,0,1,.707-.782,2.026,2.026,0,0,1,1.061-.275h.926a2,2,0,0,1,1,.245,1.706,1.706,0,0,1,.672.691,2.115,2.115,0,0,1,.24,1.022h-.629a1.41,1.41,0,0,0-.354-1,1.21,1.21,0,0,0-.93-.38h-.926a1.234,1.234,0,0,0-1,.45,1.8,1.8,0,0,0-.375,1.193v1.818a1.829,1.829,0,0,0,.367,1.192,1.188,1.188,0,0,0,.969.45h.944a1.2,1.2,0,0,0,.956-.419,1.627,1.627,0,0,0,.362-1.1h.629a2.365,2.365,0,0,1-.245,1.1,1.787,1.787,0,0,1-.685.739,1.954,1.954,0,0,1-1.017.262h-.944A1.914,1.914,0,0,1,1034.516,1009.763Z" transform="translate(-927.078 -1003.786)" fill="#fff"/><path d="M1047.626,1012a1.636,1.636,0,0,1-.445-1.2v-1.2a1.626,1.626,0,0,1,.45-1.2,1.6,1.6,0,0,1,1.192-.454h.716a1.6,1.6,0,0,1,1.192.454,1.626,1.626,0,0,1,.45,1.2v1.2a1.562,1.562,0,0,1-1.66,1.651h-.716A1.576,1.576,0,0,1,1047.626,1012Zm1.9-.1a.973.973,0,0,0,.751-.3,1.115,1.115,0,0,0,.279-.791v-1.2a1.114,1.114,0,0,0-.279-.791.951.951,0,0,0-.733-.3h-.716a.952.952,0,0,0-.734.3,1.116,1.116,0,0,0-.279.791v1.2a1.137,1.137,0,0,0,.271.8.933.933,0,0,0,.725.3Z" transform="translate(-934.962 -1006.201)" fill="#fff"/><path d="M1065.113,1008.329a1.472,1.472,0,0,1,.336,1.026v3.032h-.629v-3.05a.942.942,0,0,0-.175-.6.563.563,0,0,0-.463-.218h-.5a.826.826,0,0,0-.621.253,1.277,1.277,0,0,0-.314.717v2.9h-.629v-3a1.107,1.107,0,0,0-.162-.642.509.509,0,0,0-.441-.232h-.5a.809.809,0,0,0-.629.315,1.548,1.548,0,0,0-.341.821v2.735h-.629v-4.36h.611v.629a1.416,1.416,0,0,1,.437-.516.943.943,0,0,1,.55-.183h.515a1.06,1.06,0,0,1,1.039.7,1.443,1.443,0,0,1,.481-.524,1.129,1.129,0,0,1,.611-.175h.533A1.168,1.168,0,0,1,1065.113,1008.329Z" transform="translate(-942.053 -1006.201)" fill="#fff"/><path d="M1082.462,1008.329a1.474,1.474,0,0,1,.336,1.026v3.032h-.629v-3.05a.944.944,0,0,0-.175-.6.565.565,0,0,0-.463-.218h-.5a.824.824,0,0,0-.62.253,1.276,1.276,0,0,0-.314.717v2.9h-.629v-3a1.108,1.108,0,0,0-.161-.642.511.511,0,0,0-.441-.232h-.5a.81.81,0,0,0-.629.315,1.55,1.55,0,0,0-.34.821v2.735h-.629v-4.36h.611v.629a1.419,1.419,0,0,1,.437-.516.942.942,0,0,1,.55-.183h.516a1.06,1.06,0,0,1,1.04.7,1.445,1.445,0,0,1,.48-.524,1.132,1.132,0,0,1,.612-.175h.533A1.17,1.17,0,0,1,1082.462,1008.329Z" transform="translate(-952.099 -1006.201)" fill="#fff"/><path d="M1094.251,1005.139a.508.508,0,1,1,.341.131A.461.461,0,0,1,1094.251,1005.139Zm.026.787h.629v4.36h-.629Z" transform="translate(-962.146 -1004.099)" fill="#fff"/><path d="M1099.756,1010.372a1.332,1.332,0,0,1-.3-.979v-2.525h-.769v-.559h.769v-1.32h.629v1.32h1.135v.559h-1.135v2.525a.8.8,0,0,0,.153.55.67.67,0,0,0,.511.166h.471v.559h-.471A1.375,1.375,0,0,1,1099.756,1010.372Z" transform="translate(-964.791 -1004.483)" fill="#fff"/><path d="M1107.682,1010.372a1.334,1.334,0,0,1-.3-.979v-2.525h-.768v-.559h.768v-1.32h.629v1.32h1.135v.559h-1.135v2.525a.8.8,0,0,0,.152.55.67.67,0,0,0,.511.166h.471v.559h-.471A1.378,1.378,0,0,1,1107.682,1010.372Z" transform="translate(-969.381 -1004.483)" fill="#fff"/><path d="M1115.068,1012.025a1.527,1.527,0,0,1-.446-1.149v-1.249a1.662,1.662,0,0,1,.446-1.21,1.566,1.566,0,0,1,1.179-.459h.716a1.489,1.489,0,0,1,1.126.445,1.632,1.632,0,0,1,.428,1.18v.769h-3.266v.524a1.013,1.013,0,0,0,.276.738.953.953,0,0,0,.72.284h.664a1.026,1.026,0,0,0,.707-.24.816.816,0,0,0,.271-.642h.612a1.345,1.345,0,0,1-.437,1.044,1.645,1.645,0,0,1-1.152.4h-.664A1.618,1.618,0,0,1,1115.068,1012.025Zm2.821-2.215v-.227a1.14,1.14,0,0,0-.253-.774.845.845,0,0,0-.672-.292h-.716a.921.921,0,0,0-.72.306,1.154,1.154,0,0,0-.276.8v.183Z" transform="translate(-974.02 -1006.201)" fill="#fff"/><path d="M1126.522,1012.025a1.527,1.527,0,0,1-.446-1.149v-1.249a1.662,1.662,0,0,1,.446-1.21,1.566,1.566,0,0,1,1.179-.459h.716a1.49,1.49,0,0,1,1.126.445,1.631,1.631,0,0,1,.428,1.18v.769H1126.7v.524a1.013,1.013,0,0,0,.275.738.955.955,0,0,0,.721.284h.664a1.025,1.025,0,0,0,.707-.24.817.817,0,0,0,.271-.642h.611a1.347,1.347,0,0,1-.437,1.044,1.645,1.645,0,0,1-1.152.4h-.664A1.619,1.619,0,0,1,1126.522,1012.025Zm2.821-2.215v-.227a1.142,1.142,0,0,0-.254-.774.844.844,0,0,0-.672-.292h-.716a.922.922,0,0,0-.721.306,1.154,1.154,0,0,0-.275.8v.183Z" transform="translate(-980.653 -1006.201)" fill="#fff"/><path d="M1143.97,1006.22h-.751v-.559h.751v-.341a1.29,1.29,0,0,1,1.442-1.451h.332v.542h-.332a.782.782,0,0,0-.616.223,1.017,1.017,0,0,0-.2.686v.341h1.048v.559H1144.6v3.8h-.629Z" transform="translate(-990.581 -1003.834)" fill="#fff"/><path d="M1150.907,1012a1.634,1.634,0,0,1-.445-1.2v-1.2a1.628,1.628,0,0,1,.449-1.2,1.6,1.6,0,0,1,1.193-.454h.716a1.6,1.6,0,0,1,1.192.454,1.629,1.629,0,0,1,.45,1.2v1.2a1.561,1.561,0,0,1-1.659,1.651h-.716A1.575,1.575,0,0,1,1150.907,1012Zm1.9-.1a.973.973,0,0,0,.751-.3,1.117,1.117,0,0,0,.28-.791v-1.2a1.117,1.117,0,0,0-.28-.791.952.952,0,0,0-.734-.3h-.716a.953.953,0,0,0-.734.3,1.114,1.114,0,0,0-.279.791v1.2a1.133,1.133,0,0,0,.271.8.932.932,0,0,0,.724.3Z" transform="translate(-994.776 -1006.201)" fill="#fff"/><path d="M1162.705,1008.1h.611v.672a1.312,1.312,0,0,1,.529-.5,1.524,1.524,0,0,1,.738-.193h.384v.568h-.384a1.206,1.206,0,0,0-.9.354,1.288,1.288,0,0,0-.345.939v2.516h-.629Z" transform="translate(-1001.867 -1006.273)" fill="#fff"/><path d="M780.956,1028.854h2.969a1.514,1.514,0,0,1,1.079.381,1.305,1.305,0,0,1,.406,1v.637a1.233,1.233,0,0,1-.3.818,1.609,1.609,0,0,1-.795.5v.009a1.4,1.4,0,0,1,.476.446,2.362,2.362,0,0,1,.328.69l.48,1.635h-.664l-.48-1.635a1.4,1.4,0,0,0-.423-.69.984.984,0,0,0-.66-.263H781.6v2.587h-.646Zm2.742,2.954a1.128,1.128,0,0,0,.773-.258.862.862,0,0,0,.292-.678v-.672a.713.713,0,0,0-.236-.56.9.9,0,0,0-.62-.21H781.6v2.377Z" transform="translate(-780.781 -1018.298)" fill="#fff"/><path d="M794.391,1036.927a1.527,1.527,0,0,1-.445-1.149v-1.25a1.666,1.666,0,0,1,.445-1.21,1.569,1.569,0,0,1,1.179-.458h.716a1.492,1.492,0,0,1,1.127.446,1.632,1.632,0,0,1,.428,1.18v.769h-3.266v.524a1.015,1.015,0,0,0,.275.738.957.957,0,0,0,.721.284h.664a1.026,1.026,0,0,0,.707-.24.815.815,0,0,0,.271-.642h.611a1.346,1.346,0,0,1-.436,1.044,1.646,1.646,0,0,1-1.153.4h-.664A1.621,1.621,0,0,1,794.391,1036.927Zm2.821-2.215v-.227a1.141,1.141,0,0,0-.253-.773.845.845,0,0,0-.672-.293h-.716a.923.923,0,0,0-.721.306,1.156,1.156,0,0,0-.275.8v.184Z" transform="translate(-788.304 -1020.618)" fill="#fff"/><path d="M805.677,1036.984a1.289,1.289,0,0,1-.4-.987h.611a.787.787,0,0,0,.236.594.855.855,0,0,0,.62.227h.759a1.11,1.11,0,0,0,.612-.153.458.458,0,0,0,.235-.4v-.3a.4.4,0,0,0-.13-.292.677.677,0,0,0-.341-.171l-1.511-.262a1.345,1.345,0,0,1-.729-.345.842.842,0,0,1-.276-.625v-.288a1,1,0,0,1,.384-.817,1.566,1.566,0,0,1,1.013-.31h.751a1.4,1.4,0,0,1,.987.345,1.183,1.183,0,0,1,.375.913h-.611a.717.717,0,0,0-.214-.519.744.744,0,0,0-.537-.2h-.751a.89.89,0,0,0-.559.162.51.51,0,0,0-.21.424v.253a.393.393,0,0,0,.144.3.692.692,0,0,0,.371.166l1.5.263a1.3,1.3,0,0,1,.7.341.85.85,0,0,1,.266.629v.35a.921.921,0,0,1-.406.778,1.773,1.773,0,0,1-1.07.3h-.759A1.5,1.5,0,0,1,805.677,1036.984Z" transform="translate(-794.866 -1020.618)" fill="#fff"/><path d="M816.636,1036.906a1.635,1.635,0,0,1-.446-1.2v-1.2a1.626,1.626,0,0,1,.45-1.2,1.6,1.6,0,0,1,1.192-.454h.716a1.6,1.6,0,0,1,1.192.454,1.626,1.626,0,0,1,.449,1.2v1.2a1.561,1.561,0,0,1-1.659,1.651h-.716A1.577,1.577,0,0,1,816.636,1036.906Zm1.9-.1a.975.975,0,0,0,.751-.3,1.118,1.118,0,0,0,.279-.791v-1.2a1.116,1.116,0,0,0-.279-.791.953.953,0,0,0-.733-.3h-.716a.953.953,0,0,0-.734.3,1.116,1.116,0,0,0-.279.791v1.2a1.133,1.133,0,0,0,.271.795.933.933,0,0,0,.725.3Z" transform="translate(-801.187 -1020.618)" fill="#fff"/><path d="M828.714,1034.7a1.245,1.245,0,0,1-.279-.913v-4.928h.629v4.928a.7.7,0,0,0,.135.481.571.571,0,0,0,.441.149h.3v.56h-.3A1.286,1.286,0,0,1,828.714,1034.7Z" transform="translate(-808.278 -1018.298)" fill="#fff"/><path d="M834.246,1037.045a1.529,1.529,0,0,1-.375-1.075v-2.945h.629v2.962a1.016,1.016,0,0,0,.2.66.641.641,0,0,0,.524.249h.542a1.06,1.06,0,0,0,.742-.324,1.486,1.486,0,0,0,.436-.813v-2.735h.629v4.36h-.611v-.664a1.7,1.7,0,0,1-.533.524,1.21,1.21,0,0,1-.646.21h-.559A1.264,1.264,0,0,1,834.246,1037.045Z" transform="translate(-811.426 -1020.714)" fill="#fff"/><path d="M846.063,1035.275a1.337,1.337,0,0,1-.3-.979v-2.525h-.769v-.559h.769v-1.32h.629v1.32h1.135v.559H846.39v2.525a.8.8,0,0,0,.153.55.668.668,0,0,0,.511.167h.471v.559h-.471A1.381,1.381,0,0,1,846.063,1035.275Z" transform="translate(-817.868 -1018.899)" fill="#fff"/><path d="M853.881,1030.041a.508.508,0,1,1,.341.131A.462.462,0,0,1,853.881,1030.041Zm.026.786h.629v4.36h-.629Z" transform="translate(-822.939 -1018.515)" fill="#fff"/><path d="M859.175,1036.906a1.636,1.636,0,0,1-.445-1.2v-1.2a1.627,1.627,0,0,1,.45-1.2,1.6,1.6,0,0,1,1.192-.454h.716a1.6,1.6,0,0,1,1.192.454,1.628,1.628,0,0,1,.45,1.2v1.2a1.561,1.561,0,0,1-1.659,1.651h-.716A1.577,1.577,0,0,1,859.175,1036.906Zm1.9-.1a.975.975,0,0,0,.751-.3,1.117,1.117,0,0,0,.279-.791v-1.2a1.116,1.116,0,0,0-.279-.791.954.954,0,0,0-.733-.3h-.716a.953.953,0,0,0-.734.3,1.114,1.114,0,0,0-.279.791v1.2a1.133,1.133,0,0,0,.27.795.934.934,0,0,0,.725.3Z" transform="translate(-825.823 -1020.618)" fill="#fff"/><path d="M870.974,1032.93h.611v.646a1.638,1.638,0,0,1,.524-.515,1.214,1.214,0,0,1,.647-.2h.594a1.252,1.252,0,0,1,.974.411,1.542,1.542,0,0,1,.371,1.075v2.945h-.629v-2.962a1.024,1.024,0,0,0-.2-.655.645.645,0,0,0-.533-.254h-.559a1.054,1.054,0,0,0-.747.323,1.455,1.455,0,0,0-.423.83v2.718h-.629Z" transform="translate(-832.914 -1020.618)" fill="#fff"/><path d="M887.4,1036.906a1.636,1.636,0,0,1-.445-1.2v-1.2a1.626,1.626,0,0,1,.45-1.2,1.6,1.6,0,0,1,1.192-.454h.716a1.6,1.6,0,0,1,1.192.454,1.628,1.628,0,0,1,.45,1.2v1.2a1.561,1.561,0,0,1-1.659,1.651h-.716A1.577,1.577,0,0,1,887.4,1036.906Zm1.9-.1a.975.975,0,0,0,.751-.3,1.12,1.12,0,0,0,.279-.791v-1.2a1.118,1.118,0,0,0-.279-.791.955.955,0,0,0-.734-.3h-.716a.954.954,0,0,0-.734.3,1.116,1.116,0,0,0-.279.791v1.2a1.133,1.133,0,0,0,.271.795.934.934,0,0,0,.725.3Z" transform="translate(-842.166 -1020.618)" fill="#fff"/><path d="M899.072,1031.122h-.751v-.559h.751v-.341a1.29,1.29,0,0,1,1.441-1.451h.332v.542h-.332a.779.779,0,0,0-.616.223,1.013,1.013,0,0,0-.2.686v.341h1.048v.559H899.7v3.8h-.629Z" transform="translate(-848.752 -1018.25)" fill="#fff"/><path d="M911.656,1034.665a1.878,1.878,0,0,1-.7-.782,2.57,2.57,0,0,1-.249-1.157v-1.818a2.6,2.6,0,0,1,.249-1.162,1.822,1.822,0,0,1,.707-.782,2.024,2.024,0,0,1,1.061-.276h.926a2,2,0,0,1,1,.245,1.706,1.706,0,0,1,.672.691,2.121,2.121,0,0,1,.24,1.023h-.629a1.409,1.409,0,0,0-.354-1,1.21,1.21,0,0,0-.93-.38h-.926a1.233,1.233,0,0,0-1,.45,1.8,1.8,0,0,0-.375,1.193v1.818a1.83,1.83,0,0,0,.367,1.192,1.189,1.189,0,0,0,.97.45h.943a1.2,1.2,0,0,0,.957-.42,1.627,1.627,0,0,0,.362-1.1h.629a2.365,2.365,0,0,1-.245,1.1,1.789,1.789,0,0,1-.685.738,1.952,1.952,0,0,1-1.017.262h-.943A1.917,1.917,0,0,1,911.656,1034.665Z" transform="translate(-855.926 -1018.202)" fill="#fff"/><path d="M924.766,1036.906a1.637,1.637,0,0,1-.445-1.2v-1.2a1.626,1.626,0,0,1,.45-1.2,1.6,1.6,0,0,1,1.192-.454h.716a1.6,1.6,0,0,1,1.192.454,1.628,1.628,0,0,1,.45,1.2v1.2a1.561,1.561,0,0,1-1.659,1.651h-.716A1.578,1.578,0,0,1,924.766,1036.906Zm1.9-.1a.975.975,0,0,0,.751-.3,1.12,1.12,0,0,0,.279-.791v-1.2a1.118,1.118,0,0,0-.279-.791.954.954,0,0,0-.733-.3h-.716a.954.954,0,0,0-.734.3,1.116,1.116,0,0,0-.28.791v1.2a1.133,1.133,0,0,0,.271.795.933.933,0,0,0,.725.3Z" transform="translate(-863.809 -1020.618)" fill="#fff"/><path d="M942.253,1033.231a1.473,1.473,0,0,1,.336,1.026v3.032h-.629v-3.05a.94.94,0,0,0-.175-.6.563.563,0,0,0-.463-.219h-.5a.824.824,0,0,0-.62.254,1.274,1.274,0,0,0-.314.716v2.9h-.629v-3a1.107,1.107,0,0,0-.162-.642.51.51,0,0,0-.441-.232h-.5a.81.81,0,0,0-.629.315,1.549,1.549,0,0,0-.341.822v2.735h-.629v-4.36h.612v.629a1.416,1.416,0,0,1,.436-.516.943.943,0,0,1,.55-.183h.516a1.06,1.06,0,0,1,1.039.7,1.454,1.454,0,0,1,.48-.524,1.13,1.13,0,0,1,.611-.175h.533A1.169,1.169,0,0,1,942.253,1033.231Z" transform="translate(-870.899 -1020.618)" fill="#fff"/><path d="M953.912,1032.93h.611v.594a1.45,1.45,0,0,1,.485-.48,1.156,1.156,0,0,1,.607-.183h.629a1.506,1.506,0,0,1,1.131.446,1.623,1.623,0,0,1,.432,1.18v1.075a1.887,1.887,0,0,1-.441,1.306,1.486,1.486,0,0,1-1.166.494h-.629a1.237,1.237,0,0,1-.567-.153,1.218,1.218,0,0,1-.463-.4v2.22h-.629Zm2.271,3.871a.878.878,0,0,0,.724-.341,1.4,1.4,0,0,0,.271-.9v-1.075a1.116,1.116,0,0,0-.262-.773.882.882,0,0,0-.69-.293h-.612a.939.939,0,0,0-.664.284,1.5,1.5,0,0,0-.41.73v1.311a1.275,1.275,0,0,0,.358.76.965.965,0,0,0,.707.3Z" transform="translate(-880.946 -1020.618)" fill="#fff"/><path d="M965.936,1036.927a1.527,1.527,0,0,1-.445-1.149v-1.25a1.666,1.666,0,0,1,.445-1.21,1.568,1.568,0,0,1,1.179-.458h.716a1.491,1.491,0,0,1,1.126.446,1.631,1.631,0,0,1,.428,1.18v.769H966.12v.524a1.015,1.015,0,0,0,.275.738.958.958,0,0,0,.721.284h.664a1.026,1.026,0,0,0,.707-.24.815.815,0,0,0,.271-.642h.611a1.345,1.345,0,0,1-.436,1.044,1.645,1.645,0,0,1-1.153.4h-.664A1.62,1.62,0,0,1,965.936,1036.927Zm2.821-2.215v-.227a1.141,1.141,0,0,0-.253-.773.845.845,0,0,0-.672-.293h-.716a.923.923,0,0,0-.721.306,1.155,1.155,0,0,0-.275.8v.184Z" transform="translate(-887.652 -1020.618)" fill="#fff"/><path d="M977.476,1035.275a1.337,1.337,0,0,1-.3-.979v-2.525h-.768v-.559h.768v-1.32h.629v1.32h1.135v.559H977.8v2.525a.8.8,0,0,0,.152.55.668.668,0,0,0,.511.167h.471v.559h-.471A1.381,1.381,0,0,1,977.476,1035.275Z" transform="translate(-893.974 -1018.899)" fill="#fff"/><path d="M985.294,1030.041a.508.508,0,1,1,.341.131A.462.462,0,0,1,985.294,1030.041Zm.026.786h.629v4.36h-.629Z" transform="translate(-899.045 -1018.515)" fill="#fff"/><path d="M990.8,1035.275a1.338,1.338,0,0,1-.3-.979v-2.525h-.769v-.559h.769v-1.32h.629v1.32h1.135v.559h-1.135v2.525a.8.8,0,0,0,.153.55.667.667,0,0,0,.511.167h.472v.559h-.472A1.38,1.38,0,0,1,990.8,1035.275Z" transform="translate(-901.689 -1018.899)" fill="#fff"/><path d="M998.615,1030.041a.508.508,0,1,1,.34.131A.461.461,0,0,1,998.615,1030.041Zm.026.786h.629v4.36h-.629Z" transform="translate(-906.76 -1018.515)" fill="#fff"/><path d="M1003.91,1036.906a1.635,1.635,0,0,1-.445-1.2v-1.2a1.626,1.626,0,0,1,.45-1.2,1.6,1.6,0,0,1,1.192-.454h.716a1.6,1.6,0,0,1,1.192.454,1.626,1.626,0,0,1,.45,1.2v1.2a1.561,1.561,0,0,1-1.659,1.651h-.716A1.578,1.578,0,0,1,1003.91,1036.906Zm1.9-.1a.976.976,0,0,0,.751-.3,1.118,1.118,0,0,0,.279-.791v-1.2a1.116,1.116,0,0,0-.279-.791.954.954,0,0,0-.733-.3h-.716a.953.953,0,0,0-.733.3,1.118,1.118,0,0,0-.28.791v1.2a1.134,1.134,0,0,0,.271.795.932.932,0,0,0,.725.3Z" transform="translate(-909.644 -1020.618)" fill="#fff"/><path d="M1015.708,1032.93h.612v.646a1.634,1.634,0,0,1,.524-.515,1.214,1.214,0,0,1,.646-.2h.594a1.25,1.25,0,0,1,.973.411,1.541,1.541,0,0,1,.371,1.075v2.945h-.629v-2.962a1.022,1.022,0,0,0-.2-.655.644.644,0,0,0-.532-.254h-.559a1.054,1.054,0,0,0-.747.323,1.462,1.462,0,0,0-.424.83v2.718h-.629Z" transform="translate(-916.735 -1020.618)" fill="#fff"/><path d="M1032.331,1034.822a.567.567,0,0,1-.148-.419v-5.549h.647v5.541h3.318v.577h-3.4A.567.567,0,0,1,1032.331,1034.822Z" transform="translate(-926.276 -1018.298)" fill="#fff"/><path d="M1043.769,1037.028a1.125,1.125,0,0,1-.38-.892v-.28a1.1,1.1,0,0,1,.392-.882,1.555,1.555,0,0,1,1.04-.332h.559a2.166,2.166,0,0,1,.594.088,1.794,1.794,0,0,1,.523.236v-.726a.817.817,0,0,0-.227-.6.8.8,0,0,0-.6-.232h-.7a.961.961,0,0,0-.6.175.556.556,0,0,0-.227.463h-.629a1.057,1.057,0,0,1,.4-.861,1.62,1.62,0,0,1,1.057-.327h.7a1.449,1.449,0,0,1,1.043.38,1.321,1.321,0,0,1,.4,1v3.05h-.594v-.611a1.47,1.47,0,0,1-.528.5,1.372,1.372,0,0,1-.677.183h-.524A1.492,1.492,0,0,1,1043.769,1037.028Zm1.559-.219a1.156,1.156,0,0,0,.734-.253,1.237,1.237,0,0,0,.436-.672v-.324a1.261,1.261,0,0,0-.484-.266,2.046,2.046,0,0,0-.633-.1h-.559a.885.885,0,0,0-.581.184.593.593,0,0,0-.222.48v.28a.618.618,0,0,0,.21.49.816.816,0,0,0,.559.183Z" transform="translate(-932.766 -1020.618)" fill="#fff"/><path d="M1060.1,1033.026l-.944,3.854a.848.848,0,0,1-.193.384.448.448,0,0,1-.332.122h-.3l-1.092-3.295-1.126,3.295h-.3a.468.468,0,0,1-.332-.122.745.745,0,0,1-.192-.384l-.952-3.854h.664l.812,3.661,1.179-3.539h.227a.342.342,0,0,1,.34.28l1.066,3.233.8-3.635Z" transform="translate(-939.111 -1020.714)" fill="#fff"/><path d="M1075.938,1034.875a.756.756,0,0,1-.188-.305l-2.087-5.715h.664l1.9,5.339h.009l1.913-5.339h.664l-2.271,6.117h-.332A.4.4,0,0,1,1075.938,1034.875Z" transform="translate(-950.299 -1018.298)" fill="#fff"/><path d="M1088.07,1030.041a.508.508,0,1,1,.341.131A.463.463,0,0,1,1088.07,1030.041Zm.026.786h.629v4.36h-.629Z" transform="translate(-958.567 -1018.515)" fill="#fff"/><path d="M1093.365,1036.906a1.634,1.634,0,0,1-.445-1.2v-1.2a1.626,1.626,0,0,1,.449-1.2,1.6,1.6,0,0,1,1.192-.454h.716a1.6,1.6,0,0,1,1.192.454,1.628,1.628,0,0,1,.45,1.2v1.2a1.561,1.561,0,0,1-1.659,1.651h-.716A1.576,1.576,0,0,1,1093.365,1036.906Zm1.9-.1a.976.976,0,0,0,.751-.3,1.119,1.119,0,0,0,.279-.791v-1.2a1.118,1.118,0,0,0-.279-.791.956.956,0,0,0-.734-.3h-.716a.954.954,0,0,0-.734.3,1.117,1.117,0,0,0-.279.791v1.2a1.134,1.134,0,0,0,.271.795.933.933,0,0,0,.725.3Z" transform="translate(-961.451 -1020.618)" fill="#fff"/><path d="M1105.442,1034.7a1.248,1.248,0,0,1-.28-.913v-4.928h.629v4.928a.7.7,0,0,0,.136.481.57.57,0,0,0,.441.149h.3v.56h-.3A1.288,1.288,0,0,1,1105.442,1034.7Z" transform="translate(-968.541 -1018.298)" fill="#fff"/><path d="M1110.772,1037.028a1.124,1.124,0,0,1-.38-.892v-.28a1.1,1.1,0,0,1,.393-.882,1.554,1.554,0,0,1,1.039-.332h.559a2.158,2.158,0,0,1,.594.088,1.793,1.793,0,0,1,.524.236v-.726a.817.817,0,0,0-.227-.6.8.8,0,0,0-.6-.232h-.7a.961.961,0,0,0-.6.175.555.555,0,0,0-.227.463h-.629a1.058,1.058,0,0,1,.4-.861,1.621,1.621,0,0,1,1.056-.327h.7a1.45,1.45,0,0,1,1.044.38,1.322,1.322,0,0,1,.4,1v3.05h-.594v-.611a1.469,1.469,0,0,1-.528.5,1.37,1.37,0,0,1-.677.183h-.524A1.491,1.491,0,0,1,1110.772,1037.028Zm1.559-.219a1.158,1.158,0,0,0,.734-.253,1.241,1.241,0,0,0,.437-.672v-.324a1.268,1.268,0,0,0-.484-.266,2.046,2.046,0,0,0-.633-.1h-.559a.885.885,0,0,0-.581.184.594.594,0,0,0-.223.48v.28a.618.618,0,0,0,.209.49.818.818,0,0,0,.559.183Z" transform="translate(-971.57 -1020.618)" fill="#fff"/><path d="M1122.5,1035.275a1.337,1.337,0,0,1-.3-.979v-2.525h-.768v-.559h.768v-1.32h.629v1.32h1.135v.559h-1.135v2.525a.8.8,0,0,0,.152.55.669.669,0,0,0,.511.167h.472v.559h-.472A1.38,1.38,0,0,1,1122.5,1035.275Z" transform="translate(-977.964 -1018.899)" fill="#fff"/><path d="M1130.319,1030.041a.507.507,0,1,1,.341.131A.462.462,0,0,1,1130.319,1030.041Zm.026.786h.629v4.36h-.629Z" transform="translate(-983.035 -1018.515)" fill="#fff"/><path d="M1135.614,1036.906a1.634,1.634,0,0,1-.446-1.2v-1.2a1.626,1.626,0,0,1,.45-1.2,1.6,1.6,0,0,1,1.192-.454h.716a1.6,1.6,0,0,1,1.192.454,1.628,1.628,0,0,1,.449,1.2v1.2a1.561,1.561,0,0,1-1.659,1.651h-.716A1.575,1.575,0,0,1,1135.614,1036.906Zm1.895-.1a.975.975,0,0,0,.751-.3,1.119,1.119,0,0,0,.28-.791v-1.2a1.117,1.117,0,0,0-.28-.791.954.954,0,0,0-.734-.3h-.716a.954.954,0,0,0-.734.3,1.116,1.116,0,0,0-.28.791v1.2a1.131,1.131,0,0,0,.271.795.931.931,0,0,0,.724.3Z" transform="translate(-985.919 -1020.618)" fill="#fff"/><path d="M1147.411,1032.93h.611v.646a1.644,1.644,0,0,1,.524-.515,1.215,1.215,0,0,1,.647-.2h.594a1.251,1.251,0,0,1,.974.411,1.542,1.542,0,0,1,.371,1.075v2.945h-.629v-2.962a1.022,1.022,0,0,0-.2-.655.645.645,0,0,0-.532-.254h-.559a1.054,1.054,0,0,0-.747.323,1.462,1.462,0,0,0-.423.83v2.718h-.629Z" transform="translate(-993.009 -1020.618)" fill="#fff"/><path d="M1159.143,1036.984a1.29,1.29,0,0,1-.4-.987h.611a.787.787,0,0,0,.236.594.855.855,0,0,0,.62.227h.76a1.1,1.1,0,0,0,.611-.153.458.458,0,0,0,.236-.4v-.3a.4.4,0,0,0-.131-.292.673.673,0,0,0-.34-.171l-1.511-.262a1.348,1.348,0,0,1-.73-.345.842.842,0,0,1-.275-.625v-.288a1,1,0,0,1,.384-.817,1.566,1.566,0,0,1,1.013-.31h.751a1.4,1.4,0,0,1,.987.345,1.182,1.182,0,0,1,.376.913h-.611a.719.719,0,0,0-.214-.519.744.744,0,0,0-.537-.2h-.751a.89.89,0,0,0-.559.162.511.511,0,0,0-.21.424v.253a.394.394,0,0,0,.144.3.692.692,0,0,0,.371.166l1.5.263a1.3,1.3,0,0,1,.7.341.85.85,0,0,1,.266.629v.35a.92.92,0,0,1-.406.778,1.774,1.774,0,0,1-1.07.3h-.76A1.5,1.5,0,0,1,1159.143,1036.984Z" transform="translate(-999.571 -1020.618)" fill="#fff"/></g><g transform="translate(1244 2942.495)"><path d="M784.043,927.857H785.8v8.013h1.319v1.387h-1.386a3.21,3.21,0,0,1-3.518,3.066c-2.119,0-3.425-1.12-3.425-3.786a9.768,9.768,0,0,1,.306-2.386l1.825-.334a9.159,9.159,0,0,0-.373,2.56c0,2.04.88,2.573,1.812,2.573.986,0,1.679-.613,1.679-2.573Z" transform="translate(-778.753 -926.67)" fill="#fff"/><path d="M798.1,946.886h1.612v1.387H798.1Z" transform="translate(-789.934 -937.687)" fill="#fff"/><path d="M801.456,946.886h1.612v1.387h-1.612Z" transform="translate(-791.878 -937.687)" fill="#fff"/><path d="M803.711,941.326c-.266,0-.8-.267-.8-.694s.533-.693.8-.693h1.572v-4.879h1.759v.333a11.353,11.353,0,0,1-.16,1.973h.026a3.6,3.6,0,0,1,3.371-2.48c1.852,0,2.812,1.147,2.812,3.026a3.42,3.42,0,0,1-.573,2.027h1.439v1.387H803.711Zm5.463-1.387c1.666,0,2.119-.84,2.119-1.92s-.439-1.733-1.372-1.733c-1.439,0-2.625,1.773-2.892,3.653Z" transform="translate(-792.72 -930.74)" fill="#fff"/><path d="M827.578,937.843c-.266,0-.8-.266-.8-.694s.533-.693.8-.693h.8a5.96,5.96,0,0,1,.826.066,2.485,2.485,0,0,1-.626-1.8,3.22,3.22,0,0,1,3.4-3.319,2.793,2.793,0,0,1,3.092,3.106,2.7,2.7,0,0,1-.773,2.013s.56-.066,1.026-.066h.573v1.387Zm5.73-3.24c0-1.173-.466-1.813-1.466-1.813-.76,0-1.492.533-1.492,1.787s.493,1.88,1.466,1.88C832.655,936.456,833.308,935.843,833.308,934.6Zm-1.452-5.732a.92.92,0,1,1-.92.92A.939.939,0,0,1,831.855,928.87Z" transform="translate(-806.543 -927.257)" fill="#fff"/><path d="M846.855,937.256c-.266,0-.8-.266-.8-.693s.533-.693.8-.693h1.572v-8.013h1.759v9.4Z" transform="translate(-817.707 -926.67)" fill="#fff"/><path d="M860.934,927.857h1.759v9.4h-1.759Z" transform="translate(-826.324 -926.67)" fill="#fff"/><path d="M883.756,937.934c-2.585,0-3.558-1.2-3.558-3.093a3.206,3.206,0,0,1,3.519-3.346,8.6,8.6,0,0,1,2.8.466v4.586h1.373v1.387Zm-1.266-8.906a.867.867,0,1,1-.867.867A.874.874,0,0,1,882.49,929.028Zm2.318,4.093a3.209,3.209,0,0,0-1.266-.24,1.6,1.6,0,0,0-1.586,1.8c0,1.213.6,1.867,2,1.867h.852Zm-.186-4.093a.867.867,0,1,1,0,1.733.865.865,0,0,1-.866-.866A.873.873,0,0,1,884.622,929.028Z" transform="translate(-837.48 -927.348)" fill="#fff"/><path d="M897.987,946.886H899.6v1.387h-1.612Z" transform="translate(-847.782 -937.687)" fill="#fff"/><path d="M901.343,946.886h1.612v1.387h-1.612Z" transform="translate(-849.726 -937.687)" fill="#fff"/><path d="M902.8,937.223c0-.413.533-.693.8-.693h1.573v-4.88h1.759v4.88H908.3v1.387h-4.7C903.331,937.916,902.8,937.65,902.8,937.223ZM906.049,929a.92.92,0,1,1-.919.92A.93.93,0,0,1,906.049,929Z" transform="translate(-850.569 -927.33)" fill="#fff"/><path d="M913.5,940.76c0-.413.533-.693.8-.693h4.65a8.433,8.433,0,0,0,.067-1.014c0-1.693-.693-2.56-2.6-2.56a8.984,8.984,0,0,0-1.492.134v-1.373a9.265,9.265,0,0,1,1.652-.147c3,0,4.184,1.32,4.184,3.88a10.644,10.644,0,0,1-.053,1.08h.839v1.387H914.3C914.03,941.453,913.5,941.187,913.5,940.76Zm3.464,1.587a.907.907,0,1,1-.906.907A.883.883,0,0,1,916.961,942.346Z" transform="translate(-856.765 -930.867)" fill="#fff"/><path d="M930.242,937.112c0-.413.533-.693.8-.693h1.572v-7.613h1.759v7.613h1.372v1.387h-4.7C930.775,937.806,930.242,937.539,930.242,937.112Z" transform="translate(-866.462 -927.22)" fill="#fff"/><path d="M941.741,937.256c-.267,0-.8-.266-.8-.693s.533-.693.8-.693h1.572v-8.013h1.759v9.4Z" transform="translate(-872.658 -926.67)" fill="#fff"/><path d="M969.367,937.934c-2.586,0-3.558-1.2-3.558-3.093a3.206,3.206,0,0,1,3.518-3.346,8.594,8.594,0,0,1,2.8.466v4.586H973.5v1.387Zm-1.266-8.906a.867.867,0,1,1-.867.867A.874.874,0,0,1,968.1,929.028Zm2.318,4.093a3.21,3.21,0,0,0-1.266-.24,1.6,1.6,0,0,0-1.586,1.8c0,1.213.6,1.867,2,1.867h.853Zm-.187-4.093a.867.867,0,1,1,0,1.733.864.864,0,0,1-.866-.866A.873.873,0,0,1,970.233,929.028Z" transform="translate(-887.061 -927.348)" fill="#fff"/><path d="M983.6,946.886h1.612v1.387H983.6Z" transform="translate(-897.363 -937.687)" fill="#fff"/><path d="M986.953,946.886h1.612v1.387h-1.612Z" transform="translate(-899.306 -937.687)" fill="#fff"/><path d="M990.308,946.886h1.612v1.387h-1.612Z" transform="translate(-901.249 -937.687)" fill="#fff"/><path d="M992.563,941.326c-.267,0-.8-.267-.8-.694s.532-.693.8-.693h1.026a2.585,2.585,0,0,1,.746.093,2.168,2.168,0,0,1-.746-1.906,3.182,3.182,0,0,1,3.464-3.24,2.729,2.729,0,0,1,3.011,3.066v3.373Zm5.783-3.16c0-1.333-.533-1.893-1.425-1.893a1.6,1.6,0,0,0-1.586,1.8c0,1.253.613,1.867,2,1.867h1.012Z" transform="translate(-902.092 -930.74)" fill="#fff"/><path d="M1016.043,927.857h1.759v8.013h1.372v1.387h-3.132Z" transform="translate(-916.153 -926.67)" fill="#fff"/><path d="M1021.906,941.271c-.266,0-.8-.267-.8-.694s.533-.693.8-.693h.387a10.139,10.139,0,0,0,3.118-.414,6.921,6.921,0,0,0-2.8-1.946l.146-1.253a7.2,7.2,0,0,1,3.851-1.48c1.985,0,2.8,1.026,2.8,2.186a3.41,3.41,0,0,1-1.359,2.56,3.309,3.309,0,0,0,1.479.347h.693v1.387h-.893a4.717,4.717,0,0,1-2.732-.827,10.725,10.725,0,0,1-4.37.827Zm4.93-2.547a1.947,1.947,0,0,0,.839-1.52,1.109,1.109,0,0,0-1.266-1.12,4.113,4.113,0,0,0-2.026.8A10.175,10.175,0,0,1,1026.836,938.724Z" transform="translate(-919.085 -930.685)" fill="#fff"/><path d="M1041.183,937.256c-.266,0-.8-.266-.8-.693s.533-.693.8-.693h1.573v-8.013h1.759v9.4Z" transform="translate(-930.25 -926.67)" fill="#fff"/><path d="M1055.262,927.857h1.759v9.4h-1.759Z" transform="translate(-938.866 -926.67)" fill="#fff"/><path d="M1078.084,937.934c-2.585,0-3.558-1.2-3.558-3.093a3.206,3.206,0,0,1,3.518-3.346,8.6,8.6,0,0,1,2.8.466v4.586h1.373v1.387Zm-1.266-8.906a.867.867,0,1,1-.866.867A.873.873,0,0,1,1076.818,929.028Zm2.318,4.093a3.209,3.209,0,0,0-1.265-.24,1.6,1.6,0,0,0-1.586,1.8c0,1.213.6,1.867,2,1.867h.853Zm-.186-4.093a.867.867,0,1,1-.866.867A.873.873,0,0,1,1078.95,929.028Z" transform="translate(-950.023 -927.348)" fill="#fff"/><path d="M1092.315,946.886h1.612v1.387h-1.612Z" transform="translate(-960.325 -937.687)" fill="#fff"/><path d="M1095.67,946.886h1.612v1.387h-1.612Z" transform="translate(-962.268 -937.687)" fill="#fff"/><path d="M1099.025,946.886h1.612v1.387h-1.612Z" transform="translate(-964.211 -937.687)" fill="#fff"/><path d="M1101.279,937.916c-.266,0-.8-.267-.8-.693s.533-.693.8-.693h1.572v-4.88h1.759v6.266Zm2.452-8.919a.92.92,0,1,1-.92.92A.93.93,0,0,1,1103.731,929Z" transform="translate(-965.053 -927.33)" fill="#fff"/><path d="M1115.358,927.857h1.759v8.013h1.373v1.387h-3.132Z" transform="translate(-973.67 -926.67)" fill="#fff"/><path d="M1121.221,941.326c-.266,0-.8-.267-.8-.694s.533-.693.8-.693h1.026a2.588,2.588,0,0,1,.746.093,2.168,2.168,0,0,1-.746-1.906,3.182,3.182,0,0,1,3.464-3.24,2.729,2.729,0,0,1,3.012,3.066v3.373Zm5.784-3.16c0-1.333-.533-1.893-1.426-1.893a1.6,1.6,0,0,0-1.586,1.8c0,1.253.613,1.867,2,1.867H1127Z" transform="translate(-976.603 -930.74)" fill="#fff"/><path d="M1142.612,926.785a3.911,3.911,0,0,1,.706.04.57.57,0,0,1-.24-.506c0-.627.559-1.28,1.852-1.28a5.037,5.037,0,0,1,.786.08l-.173.893a3.2,3.2,0,0,0-.707-.08c-.413,0-.613.173-.613.4,0,.293.213.453.893.453h.84v.907h-3.345Zm4.117,6.453h-1.8l-1.439-4.973h1.8Zm-3.145,2.387v-1.387h4.1v-8.013h1.758v9.4Z" transform="translate(-989.454 -925.039)" fill="#fff"/><path d="M1163.948,927.857h1.759v9.4h-1.759Z" transform="translate(-1001.81 -926.67)" fill="#fff"/><path d="M782.255,975.919c-2.585,0-3.558-1.2-3.558-3.093a3.207,3.207,0,0,1,3.518-3.346,8.6,8.6,0,0,1,2.8.467v4.586h1.373v1.387Zm-1.266-8.906a.867.867,0,1,1-.867.867A.874.874,0,0,1,780.989,967.013Zm2.318,4.093a3.212,3.212,0,0,0-1.265-.24,1.6,1.6,0,0,0-1.586,1.8c0,1.213.6,1.867,2,1.867h.853Zm-.186-4.093a.867.867,0,1,1-.866.867A.874.874,0,0,1,783.121,967.013Z" transform="translate(-778.697 -949.339)" fill="#fff"/><path d="M796.486,984.871H798.1v1.387h-1.612Z" transform="translate(-788.999 -959.677)" fill="#fff"/><path d="M796.486,984.871H798.1v1.387h-1.612Z" transform="translate(-788.999 -959.677)" fill="#fff"/><path d="M804.778,977.9a2.1,2.1,0,0,1-2.013,1.027,1.769,1.769,0,0,1-1.785-1.04,1.678,1.678,0,0,1-1.772.933h-.466c-.267,0-.8-.267-.8-.693s.533-.693.8-.693h.479c.867,0,1.2-.346,1.2-1.653v-2.427h1.759v2.467c0,1.2.133,1.72.919,1.72.693,0,1.079-.414,1.079-1.707v-3.013h1.692v3.346c0,1.053.36,1.266,1.586,1.266h.359c.053-.533.08-1.186.08-1.6a16.583,16.583,0,0,0-.386-3.573l1.719-.24a16.458,16.458,0,0,1,.426,3.693c0,.534-.013,1.133-.053,1.72h1.346v1.387H807.27C805.87,978.815,805.164,978.629,804.778,977.9Z" transform="translate(-789.843 -952.235)" fill="#fff"/><path d="M827.261,975.9c-.266,0-.8-.266-.8-.693s.533-.693.8-.693h1.026a2.575,2.575,0,0,1,.746.094,2.169,2.169,0,0,1-.746-1.907,3.183,3.183,0,0,1,3.465-3.24,2.729,2.729,0,0,1,3.011,3.066V975.9Zm5.784-3.16c0-1.333-.533-1.893-1.426-1.893a1.6,1.6,0,0,0-1.586,1.8c0,1.254.613,1.867,2,1.867h1.013Zm-1.466-5.759a.92.92,0,1,1-.919.92A.93.93,0,0,1,831.579,966.982Z" transform="translate(-806.36 -949.321)" fill="#fff"/><path d="M850.742,965.843H852.5v8.012h1.372v1.387h-3.132Z" transform="translate(-820.421 -948.661)" fill="#fff"/><path d="M855.806,975.208c0-.413.532-.693.8-.693h1.572v-4.879h1.759v4.879h1.373V975.9h-4.7C856.338,975.9,855.806,975.635,855.806,975.208Zm3.251-8.226a.92.92,0,1,1-.919.92A.931.931,0,0,1,859.057,966.982Z" transform="translate(-823.354 -949.321)" fill="#fff"/><path d="M869.476,978.284c-.24.613-.773,1.027-1.892,1.027h-.28c-.266,0-.8-.267-.8-.693s.533-.693.8-.693h.093c.8,0,1.319-.44,1.319-1.813a3.182,3.182,0,0,1,3.464-3.24,2.729,2.729,0,0,1,3.012,3.066v1.987h1.066v1.387h-3.8C870.542,979.31,869.943,978.9,869.476,978.284Zm4-2.133c0-1.333-.533-1.893-1.425-1.893a1.6,1.6,0,0,0-1.586,1.8c0,1.254.613,1.867,2,1.867h1.013Z" transform="translate(-829.55 -952.73)" fill="#fff"/><path d="M888.1,975.242c-.267,0-.8-.267-.8-.694s.532-.693.8-.693h1.572v-8.012h1.759v9.4Z" transform="translate(-841.594 -948.661)" fill="#fff"/><path d="M902.18,965.843h1.759v9.4H902.18Z" transform="translate(-850.211 -948.661)" fill="#fff"/><path d="M923.631,979.31c-2.345,0-3.345-1-3.518-2.587h-.293c-.773,0-.986.44-.786,1.694l.693,4.359h-1.706l-.666-4.226c-.293-1.893.386-3.213,2.519-3.213h.319a3.16,3.16,0,0,1,3.345-2.466,2.723,2.723,0,0,1,3.011,3.066v3.373Zm1.213-3.16c0-1.333-.533-1.893-1.425-1.893a1.6,1.6,0,0,0-1.586,1.8c0,1.254.613,1.867,2,1.867h1.013Z" transform="translate(-858.962 -952.73)" fill="#fff"/><path d="M943.876,965.843h1.759v8.012h1.372v1.387h-3.131Z" transform="translate(-874.358 -948.661)" fill="#fff"/><path d="M950.839,984.871h1.612v1.387h-1.612Z" transform="translate(-878.391 -959.677)" fill="#fff"/><path d="M950.839,984.871h1.612v1.387h-1.612Z" transform="translate(-878.391 -959.677)" fill="#fff"/><path d="M953.093,975.242c-.266,0-.8-.267-.8-.694s.533-.693.8-.693h1.573v-8.012h1.759v3.466a11.311,11.311,0,0,1-.16,1.974h.027a3.6,3.6,0,0,1,3.371-2.48c1.852,0,2.811,1.147,2.811,3.026a3.418,3.418,0,0,1-.573,2.027h1.44v1.387Zm5.464-1.387c1.666,0,2.119-.84,2.119-1.92s-.439-1.733-1.372-1.733c-1.439,0-2.625,1.773-2.892,3.653Zm.84-7.533a.92.92,0,1,1-.919.92A.93.93,0,0,1,959.4,966.323Z" transform="translate(-879.233 -948.661)" fill="#fff"/><path d="M976.961,975.9c-.266,0-.8-.266-.8-.693s.533-.693.8-.693h1.572v-4.879h1.759V975.9Zm2.452-8.919a.92.92,0,1,1-.919.92A.93.93,0,0,1,979.413,966.982Z" transform="translate(-893.056 -949.321)" fill="#fff"/><path d="M1002.015,975.919c-3.625,0-4.891-1.507-4.891-3.946a6.689,6.689,0,0,1,.346-2.093l1.892-.307a5.564,5.564,0,0,0-.466,2.2c0,1.88.813,2.76,3.318,2.76h1.8v-4.879h1.759v6.266Zm-1.266-8.906a.867.867,0,1,1-.866.867A.873.873,0,0,1,1000.748,967.013Zm2.132,0a.867.867,0,1,1-.866.867A.873.873,0,0,1,1002.88,967.013Z" transform="translate(-905.196 -949.339)" fill="#fff"/><path d="M1022.765,965.843h1.759v8.012h1.373v1.387h-3.131Z" transform="translate(-920.046 -948.661)" fill="#fff"/><path d="M1029.728,984.871h1.612v1.387h-1.612Z" transform="translate(-924.079 -959.677)" fill="#fff"/><path d="M1029.728,984.871h1.612v1.387h-1.612Z" transform="translate(-924.079 -959.677)" fill="#fff"/><path d="M1031.982,975.828c-.266,0-.8-.267-.8-.694s.533-.693.8-.693h.8a5.954,5.954,0,0,1,.826.066,2.484,2.484,0,0,1-.626-1.8,3.22,3.22,0,0,1,3.4-3.32,2.794,2.794,0,0,1,3.091,3.107,2.7,2.7,0,0,1-.773,2.013s.56-.066,1.026-.066h.573v1.387Zm5.73-3.24c0-1.173-.466-1.813-1.466-1.813-.76,0-1.492.533-1.492,1.787s.494,1.88,1.466,1.88C1037.059,974.441,1037.712,973.828,1037.712,972.588Zm-1.453-5.733a.92.92,0,1,1-.919.92A.931.931,0,0,1,1036.26,966.855Z" transform="translate(-924.921 -949.247)" fill="#fff"/><path d="M1051.259,975.242c-.266,0-.8-.267-.8-.694s.533-.693.8-.693h1.573v-8.012h1.759v9.4Z" transform="translate(-936.085 -948.661)" fill="#fff"/><path d="M1065.338,965.843h1.759v8.012h1.372v1.387h-3.131Z" transform="translate(-944.702 -948.661)" fill="#fff"/><path d="M1070.4,975.208c0-.413.533-.693.8-.693h4.651a8.521,8.521,0,0,0,.066-1.013c0-1.694-.693-2.56-2.6-2.56a9,9,0,0,0-1.492.133V969.7a9.321,9.321,0,0,1,1.653-.147c3,0,4.184,1.32,4.184,3.879a10.463,10.463,0,0,1-.053,1.08h.84V975.9H1071.2C1070.934,975.9,1070.4,975.635,1070.4,975.208Zm3.465-8.226a.92.92,0,1,1-.92.92A.93.93,0,0,1,1073.866,966.982Z" transform="translate(-947.634 -949.321)" fill="#fff"/><path d="M1087.946,979.31c-.266,0-.8-.267-.8-.693s.534-.693.8-.693h1.026a2.581,2.581,0,0,1,.747.094,2.168,2.168,0,0,1-.747-1.907,3.183,3.183,0,0,1,3.465-3.24,2.729,2.729,0,0,1,3.011,3.066v3.373Zm5.783-3.16c0-1.333-.533-1.893-1.426-1.893a1.6,1.6,0,0,0-1.585,1.8c0,1.254.613,1.867,2,1.867h1.013Z" transform="translate(-957.331 -952.73)" fill="#fff"/><path d="M1122.4,979.31c-3.624,0-4.891-1.507-4.891-3.946a6.669,6.669,0,0,1,.346-2.093l1.892-.306a5.559,5.559,0,0,0-.466,2.2c0,1.88.813,2.76,3.318,2.76h.893v-4.8a15.265,15.265,0,0,1,2.691-.253c2.332,0,3.065,1.12,3.065,2.946v2.107h1.08v1.387h-2.785V976c0-1.28-.374-1.746-1.479-1.746a5.626,5.626,0,0,0-.879.08v4.973Zm-1.453.973a.867.867,0,1,1-.867.867A.873.873,0,0,1,1120.95,980.283Zm2.132,0a.867.867,0,1,1-.866.867A.865.865,0,0,1,1123.082,980.283Z" transform="translate(-974.917 -952.73)" fill="#fff"/><path d="M1147.487,984.871h1.612v1.387h-1.612Z" transform="translate(-992.277 -959.677)" fill="#fff"/><path d="M1147.486,984.871h1.612v1.387h-1.612Z" transform="translate(-992.276 -959.677)" fill="#fff"/><path d="M1149.741,975.9c-.267,0-.8-.266-.8-.693s.533-.693.8-.693h1.026a2.576,2.576,0,0,1,.746.094,2.17,2.17,0,0,1-.746-1.907,3.183,3.183,0,0,1,3.465-3.24,2.729,2.729,0,0,1,3.011,3.066V975.9Zm5.783-3.16c0-1.333-.533-1.893-1.426-1.893a1.6,1.6,0,0,0-1.586,1.8c0,1.254.613,1.867,2,1.867h1.013Zm-1.466-5.759a.92.92,0,1,1-.919.92A.93.93,0,0,1,1154.058,966.982Z" transform="translate(-993.119 -949.321)" fill="#fff"/></g></g></svg>