<svg xmlns="http://www.w3.org/2000/svg" width="38.13" height="47.737" viewBox="0 0 38.13 47.737"><g transform="translate(-1426.444 -840.49)"><path d="M1307.261,980.177l28.018,27.992-.063.117-11.165-2.336c-.775,4-1.54,7.949-2.317,11.964a4.094,4.094,0,0,1-.487-.239q-4.481-3.089-8.958-6.184a2.789,2.789,0,0,1-1.2-1.983q-.588-4.015-1.16-8.032-.606-4.3-1.189-8.6c-.329-2.453-.637-4.908-.95-7.363q-.294-2.309-.574-4.62c-.027-.22-.042-.441-.062-.661Z" transform="translate(124.295 -134.687)" fill="#008d33"/><path d="M1307.261,980.177l-.112.054c.02.22.035.442.062.661q.284,2.311.574,4.62c.313,2.455.621,4.91.95,7.363q.578,4.3,1.189,8.6.568,4.018,1.16,8.032a2.789,2.789,0,0,0,1.2,1.983q4.481,3.091,8.958,6.184a4.094,4.094,0,0,0,.487.239c.778-4.014,1.542-7.959,2.317-11.964l11.165,2.336.063-.117-28.018-27.992m0-5a5,5,0,0,1,3.535,1.463l22.076,22.055,5.942,5.936a5,5,0,0,1,.866,5.913l-.063.117a5,5,0,0,1-5.424,2.518l-6.2-1.3-.684,3.53-.669,3.452a5,5,0,0,1-7.077,3.555l-.046-.02a6.526,6.526,0,0,1-1.1-.6l-.013-.009q-2.422-1.669-4.841-3.341-2.059-1.422-4.118-2.844a7.822,7.822,0,0,1-3.313-5.378c-.351-2.393-.763-5.223-1.163-8.054-.358-2.536-.779-5.544-1.194-8.634-.269-2-.527-4.034-.776-6l-.178-1.4c-.187-1.472-.37-2.963-.548-4.4l-.029-.238c-.031-.246-.05-.472-.065-.653,0-.054-.009-.109-.014-.163a5,5,0,0,1,2.8-4.956l.112-.054A4.992,4.992,0,0,1,1307.259,975.177Z" transform="translate(124.295 -134.687)" fill="#fff"/></g></svg>