<svg xmlns="http://www.w3.org/2000/svg" width="111.824" height="95.082" viewBox="0 0 111.824 95.082"><g transform="translate(-560.58 -285.843)"><path d="M650.909,343.7l-3.783,27.032c-.354,2.528-.744,5.152-2.165,7.273s-4.2,3.564-6.573,2.633c-2.443-.958-3.465-3.971-3.234-6.585s1.381-5.051,1.982-7.606a18.521,18.521,0,0,0-.909-11.241c-.772-1.865-1.876-3.726-1.714-5.738.2-2.448,2.306-4.4,4.632-5.191a19.089,19.089,0,0,1,7.3-.494Z" fill="#019edb"/><path d="M649.149,333.136c0,7.606,5.206,13.772,11.627,13.772s11.628-6.166,11.628-13.772-5.206-13.772-11.628-13.772S649.149,325.53,649.149,333.136Z" fill="#043f68"/><path d="M590.638,295.084a71.5,71.5,0,0,0,41.992,20.741l22.5,2.829a54.422,54.422,0,0,1,1.85,14.482H585.475V289.847Z" fill="#016cb9"/><path d="M655.131,347.618l-22.5,2.83a71.5,71.5,0,0,0-41.992,20.741l-5.163,5.236V333.136h71.506A54.422,54.422,0,0,1,655.131,347.618Z" fill="#043f68"/><path d="M655.131,347.618l.95-.12Z" fill="#727272"/><path d="M655.131,318.654l5.645.71Z" fill="#727272"/><path d="M655.131,318.654l5.645.71a58.128,58.128,0,0,1,0,27.544l-4.7.59-.95.12a57.607,57.607,0,0,0,0-28.964Z" fill="#33aade"/><path d="M563.021,333.136c0,23.063,5.622,41.759,14.289,41.759S593,356.2,593,333.136s-7.026-41.758-15.694-41.758S563.021,310.074,563.021,333.136Z" fill="#929292"/><path d="M563.021,333.136c0,23.063,5.622,41.759,14.289,41.759S593,356.2,593,333.136s-7.026-41.758-15.694-41.758S563.021,310.074,563.021,333.136Z" fill="#0185cc"/><path d="M576.327,313.962l15.389-5.926,2.907,25.1H576.4Z" fill="#019edb"/><path d="M576.327,352.31l15.389,5.926,2.907-25.1H576.4Z" fill="#043f68"/><path d="M569.331,333.136c0,10.59,2.752,19.174,7,19.174s7.684-8.584,7.684-19.174-3.44-19.174-7.684-19.174S569.331,322.546,569.331,333.136Z" fill="#002b54"/><path d="M570.7,333.136c0,8.769,2.138,15.877,5.433,15.877s5.967-7.108,5.967-15.877-2.672-15.877-5.967-15.877S570.7,324.367,570.7,333.136Z" fill="#fff"/><path d="M577.31,291.378a7.827,7.827,0,0,1,5.443,2.583,6.418,6.418,0,0,0-.747-.047c-8.668,0-14.289,17.56-14.289,39.222s5.621,39.222,14.289,39.222a6.418,6.418,0,0,0,.747-.047,7.828,7.828,0,0,1-5.443,2.584c-8.667,0-14.289-18.7-14.289-41.759S568.643,291.378,577.31,291.378Z" fill="#016db6"/><path d="M577.835,285.843c10.467,0,18.952,21.174,18.952,47.293s-8.485,47.293-18.952,47.293-17.255-21.174-17.255-47.293S567.368,285.843,577.835,285.843Zm-.525,89.052c8.668,0,15.694-18.7,15.694-41.759s-7.026-41.758-15.694-41.758-14.289,18.7-14.289,41.758S568.643,374.895,577.31,374.895Z" fill="#2ae9d5"/></g></svg>