<svg xmlns="http://www.w3.org/2000/svg" width="91.97" height="61.723" viewBox="0 0 91.97 61.723"><g transform="translate(-386.968 -295.958) rotate(9)" opacity="0.25"><path d="M462.735,277.538c-5.325,3.075-14.856,2.574-21.245-1.114s-7.257-9.192-1.932-12.267L498.2,234.52c5.324-3.074,14.7-5.871,21.088-2.182s-3.039,12.924-8.363,16Z" fill="#585d85" opacity="0"/><path d="M463.63,276.713c-5.231,3.02-14.58,2.536-20.841-1.078s-7.1-9.013-1.869-12.033l57.062-28.853c5.23-3.02,14.427-5.727,20.689-2.112s-2.864,12.625-8.094,15.644Z" fill="#585d85" opacity="0.01"/><path d="M464.525,275.888c-5.137,2.966-14.3,2.5-20.437-1.042s-6.943-8.834-1.805-11.8l55.482-28.068c5.136-2.965,14.158-5.583,20.29-2.042s-2.688,12.325-7.824,15.291Z" fill="#585d85" opacity="0.019"/><path d="M465.42,275.063c-5.043,2.912-14.03,2.46-20.033-1s-6.785-8.655-1.742-11.567l53.9-27.284c5.042-2.911,13.887-5.438,19.891-1.972s-2.513,12.026-7.556,14.937Z" fill="#585d85" opacity="0.029"/><path d="M466.316,274.238c-4.95,2.857-13.755,2.422-19.629-.969s-6.629-8.476-1.68-11.334l52.326-26.5c4.948-2.857,13.617-5.294,19.492-1.9s-2.339,11.726-7.287,14.583Z" fill="#585d85" opacity="0.039"/><path d="M467.211,273.413c-4.856,2.8-13.48,2.384-19.225-.933s-6.472-8.3-1.616-11.1l50.746-25.715c4.855-2.8,13.348-5.15,19.094-1.832s-2.164,11.427-7.018,14.229Z" fill="#585d85" opacity="0.048"/><path d="M468.106,272.587c-4.761,2.749-13.2,2.347-18.821-.9s-6.314-8.118-1.553-10.867L496.9,235.894c4.761-2.749,13.077-5.006,18.695-1.763s-1.989,11.128-6.749,13.876Z" fill="#585d85" opacity="0.058"/><path d="M469,271.762c-4.667,2.7-12.929,2.309-18.417-.859s-6.157-7.939-1.49-10.634l47.59-24.146c4.666-2.694,12.807-4.862,18.3-1.693s-1.814,10.828-6.481,13.523Z" fill="#585d85" opacity="0.068"/><path d="M469.9,270.937c-4.573,2.641-12.654,2.271-18.013-.823s-6-7.76-1.426-10.4l46.011-23.362c4.572-2.64,12.536-4.718,17.9-1.623s-1.639,10.529-6.212,13.169Z" fill="#585d85" opacity="0.077"/><path d="M470.791,270.112c-4.479,2.586-12.379,2.233-17.609-.786s-5.843-7.582-1.363-10.168l44.432-22.577c4.479-2.586,12.267-4.573,17.5-1.553s-1.464,10.229-5.942,12.815Z" fill="#585d85" opacity="0.087"/><path d="M471.687,269.287c-4.386,2.532-12.1,2.2-17.206-.75s-5.685-7.4-1.3-9.934l42.854-21.794c4.385-2.531,12-4.428,17.1-1.482s-1.289,9.93-5.673,12.461Z" fill="#585d85" opacity="0.097"/><path d="M472.582,268.462c-4.292,2.477-11.829,2.157-16.8-.714s-5.528-7.223-1.236-9.7l41.275-21.008c4.291-2.478,11.726-4.285,16.7-1.413s-1.114,9.63-5.4,12.108Z" fill="#585d85" opacity="0.106"/><path d="M473.477,267.637c-4.2,2.423-11.554,2.119-16.4-.677s-5.372-7.045-1.174-9.468l39.7-20.225c4.2-2.423,11.456-4.14,16.3-1.343s-.939,9.332-5.136,11.755Z" fill="#585d85" opacity="0.116"/><path d="M474.372,266.811c-4.1,2.37-11.278,2.082-15.993-.64s-5.214-6.865-1.111-9.235l38.118-19.44c4.1-2.368,11.187-4,15.9-1.273s-.764,9.032-4.867,11.4Z" fill="#585d85" opacity="0.126"/><path d="M475.267,265.986c-4.009,2.315-11,2.044-15.589-.6s-5.057-6.686-1.047-9l36.539-18.656c4.009-2.314,10.916-3.851,15.5-1.2s-.59,8.733-4.6,11.047Z" fill="#585d85" opacity="0.135"/><path d="M476.163,265.161c-3.916,2.261-10.729,2.006-15.186-.567s-4.9-6.508-.984-8.769l34.961-17.871c3.915-2.26,10.646-3.707,15.1-1.133s-.415,8.433-4.33,10.693Z" fill="#585d85" opacity="0.145"/><path d="M477.058,264.336c-3.822,2.206-10.453,1.968-14.782-.531s-4.743-6.328-.921-8.535l33.382-17.087c3.822-2.206,10.377-3.563,14.706-1.063s-.239,8.134-4.06,10.34Z" fill="#585d85" opacity="0.155"/><path d="M477.953,263.511c-3.728,2.152-10.178,1.93-14.378-.495s-4.585-6.149-.857-8.3l31.8-16.3c3.727-2.152,10.106-3.419,14.307-.994s-.064,7.835-3.791,9.987Z" fill="#585d85" opacity="0.165"/><path d="M478.848,262.686c-3.634,2.1-9.9,1.892-13.974-.459s-4.428-5.97-.794-8.068L494.3,238.641c3.633-2.1,9.836-3.275,13.908-.924s.111,7.535-3.523,9.633Z" fill="#585d85" opacity="0.174"/><path d="M479.743,261.86c-3.54,2.044-9.627,1.855-13.57-.421s-4.271-5.792-.731-7.835l28.647-14.734c3.539-2.043,9.566-3.131,13.509-.854s.285,7.236-3.254,9.279Z" fill="#585d85" opacity="0.184"/><path d="M480.639,261.035c-3.446,1.99-9.353,1.817-13.166-.385s-4.115-5.612-.668-7.6L493.872,239.1c3.446-1.989,9.3-2.986,13.111-.784s.46,6.936-2.985,8.925Z" fill="#585d85" opacity="0.194"/><path d="M481.534,260.21c-3.352,1.936-9.077,1.779-12.762-.349s-3.957-5.433-.605-7.368l25.489-13.165c3.352-1.935,9.026-2.842,12.712-.714s.635,6.637-2.716,8.572Z" fill="#585d85" opacity="0.203"/><path d="M482.429,259.385c-3.258,1.881-8.8,1.741-12.358-.312s-3.8-5.255-.542-7.136l23.911-12.38c3.257-1.881,8.756-2.7,12.312-.644s.811,6.337-2.447,8.218Z" fill="#585d85" opacity="0.213"/><path d="M483.324,258.56c-3.164,1.827-8.527,1.7-11.954-.276s-3.643-5.075-.478-6.9l22.332-11.6c3.163-1.827,8.485-2.554,11.913-.575s.986,6.039-2.178,7.865Z" fill="#585d85" opacity="0.223"/><path d="M484.219,257.735c-3.07,1.772-8.251,1.665-11.55-.24s-3.485-4.9-.415-6.669l20.753-10.811c3.07-1.772,8.216-2.41,11.515-.505s1.16,5.739-1.909,7.511Z" fill="#585d85" opacity="0.232"/><path d="M485.115,256.909c-2.977,1.719-7.977,1.628-11.147-.2s-3.328-4.718-.352-6.436l19.175-10.027c2.976-1.718,7.946-2.265,11.116-.435s1.335,5.44-1.641,7.158Z" fill="#585d85" opacity="0.242"/><path d="M486.01,256.084a11.9,11.9,0,0,1-10.743-.166c-3.041-1.756-3.171-4.538-.288-6.2l17.6-9.243c2.881-1.664,7.675-2.121,10.717-.365s1.51,5.14-1.372,6.8Z" fill="#585d85" opacity="0.252"/><path d="M486.9,255.259a11.447,11.447,0,0,1-10.339-.13c-2.912-1.681-3.014-4.359-.225-5.969l16.017-8.458c2.788-1.61,7.406-1.977,10.319-.295s1.685,4.84-1.1,6.45Z" fill="#585d85" opacity="0.261"/><path d="M487.8,254.434a11,11,0,0,1-9.934-.093c-2.784-1.608-2.857-4.181-.163-5.736l14.439-7.674c2.694-1.556,7.136-1.833,9.92-.225s1.86,4.541-.834,6.1Z" fill="#585d85" opacity="0.271"/><path d="M488.7,253.609a10.548,10.548,0,0,1-9.53-.057c-2.656-1.533-2.7-4-.1-5.5l12.86-6.889a10.524,10.524,0,0,1,9.52-.156c2.655,1.533,2.035,4.242-.565,5.743Z" fill="#585d85" opacity="0.281"/><path d="M489.591,252.784a10.1,10.1,0,0,1-9.127-.021c-2.527-1.458-2.543-3.822-.036-5.269l11.282-6.1a10.091,10.091,0,0,1,9.121-.086c2.526,1.459,2.21,3.943-.3,5.39Z" fill="#585d85" opacity="0.29"/><path d="M490.486,251.959a9.654,9.654,0,0,1-8.723.016c-2.4-1.385-2.385-3.644.027-5.037l9.7-5.32a9.654,9.654,0,0,1,8.723-.016c2.4,1.384,2.385,3.643-.027,5.036Z" fill="#585d85" opacity="0.3"/></g></svg>