<svg xmlns="http://www.w3.org/2000/svg" width="86" height="66.648" viewBox="0 0 86 66.648"><g transform="translate(-13.822 -137.32)"><path d="M19.1,157.783a1.4,1.4,0,0,1-1.4-1.4v-6.215a1.4,1.4,0,1,1,2.806,0v6.215A1.4,1.4,0,0,1,19.1,157.783Z" transform="translate(3.707 10.947)"/><path d="M25.605,157.783a1.4,1.4,0,0,1-1.4-1.4v-6.215a1.4,1.4,0,1,1,2.806,0v6.215A1.4,1.4,0,0,1,25.605,157.783Z" transform="translate(9.931 10.947)"/><path d="M24.815,150.2a6.441,6.441,0,1,1,6.442-6.442A6.449,6.449,0,0,1,24.815,150.2Zm0-10.077a3.637,3.637,0,1,0,3.638,3.636A3.641,3.641,0,0,0,24.815,140.124Z" transform="translate(4.356 0)"/><path d="M47.36,157.783a1.4,1.4,0,0,1-1.4-1.4v-6.215a1.4,1.4,0,1,1,2.8,0v6.215A1.4,1.4,0,0,1,47.36,157.783Z" transform="translate(30.748 10.947)"/><path d="M53.865,157.783a1.4,1.4,0,0,1-1.4-1.4v-6.215a1.4,1.4,0,1,1,2.8,0v6.215A1.4,1.4,0,0,1,53.865,157.783Z" transform="translate(36.971 10.947)"/><path d="M53.078,150.2a6.441,6.441,0,1,1,6.44-6.442A6.45,6.45,0,0,1,53.078,150.2Zm0-10.077a3.637,3.637,0,1,0,3.636,3.636A3.641,3.641,0,0,0,53.078,140.124Z" transform="translate(31.395 0)"/><path d="M66.98,161.436H45a1.4,1.4,0,0,1-1.4-1.4v-7.727a7.371,7.371,0,0,1,7.361-7.361H61.022a7.371,7.371,0,0,1,7.361,7.361v7.727A1.4,1.4,0,0,1,66.98,161.436Zm-20.581-2.8h19.18v-6.326a4.563,4.563,0,0,0-4.557-4.557H50.954a4.561,4.561,0,0,0-4.555,4.557Z" transform="translate(28.484 7.294)"/><path d="M33.231,157.783a1.4,1.4,0,0,1-1.4-1.4v-6.215a1.4,1.4,0,1,1,2.8,0v6.215A1.4,1.4,0,0,1,33.231,157.783Z" transform="translate(17.228 10.947)" fill="#007dc6"/><path d="M39.736,157.783a1.4,1.4,0,0,1-1.4-1.4v-6.215a1.4,1.4,0,1,1,2.8,0v6.215A1.4,1.4,0,0,1,39.736,157.783Z" transform="translate(23.451 10.947)" fill="#007dc6"/><path d="M38.946,150.2a6.441,6.441,0,1,1,6.442-6.442A6.448,6.448,0,0,1,38.946,150.2Zm0-10.077a3.637,3.637,0,1,0,3.636,3.636A3.641,3.641,0,0,0,38.946,140.124Z" transform="translate(17.876)" fill="#007dc6"/><path d="M52.85,161.436H30.864a1.4,1.4,0,0,1-1.4-1.4v-7.727a7.369,7.369,0,0,1,7.361-7.361H46.89a7.371,7.371,0,0,1,7.363,7.361v7.727A1.4,1.4,0,0,1,52.85,161.436Zm-20.583-2.8h19.18v-6.326a4.562,4.562,0,0,0-4.557-4.557H36.824a4.563,4.563,0,0,0-4.557,4.557Z" transform="translate(14.965 7.294)" fill="#007dc6"/><path d="M38.719,161.436H16.735a1.4,1.4,0,0,1-1.4-1.4v-7.727a7.371,7.371,0,0,1,7.361-7.361H32.761a7.371,7.371,0,0,1,7.361,7.361v7.727A1.4,1.4,0,0,1,38.719,161.436Zm-20.581-2.8h19.18v-6.326a4.563,4.563,0,0,0-4.557-4.557H22.693a4.561,4.561,0,0,0-4.555,4.557Z" transform="translate(1.445 7.294)"/><path d="M97.026,161.887H16.62a2.8,2.8,0,0,1-2.8-2.8v-4.354a2.8,2.8,0,0,1,2.8-2.8H97.026a2.8,2.8,0,0,1,2.8,2.8v4.354A2.8,2.8,0,0,1,97.026,161.887ZM16.62,154.743l.006,4.346,80.4-.006-.008-4.34Z" transform="translate(0 13.987)"/><path d="M94.02,180.447H16.735a1.4,1.4,0,0,1-1.4-1.4V156.991a1.4,1.4,0,0,1,1.4-1.4H94.02a1.4,1.4,0,0,1,1.4,1.4v22.053A1.4,1.4,0,0,1,94.02,180.447Zm-75.882-2.806h74.48V158.394H18.138Z" transform="translate(1.445 17.48)"/><path d="M83.518,175.706H20.338a1.4,1.4,0,0,1-1.4-1.4v-6.042a1.4,1.4,0,0,1,1.4-1.4h63.18a1.4,1.4,0,0,1,1.4,1.4V174.3A1.4,1.4,0,0,1,83.518,175.706Zm-61.777-2.8H82.115v-3.236H21.741Z" transform="translate(4.894 28.262)"/><path d="M83.518,170.39H20.338a1.4,1.4,0,0,1-1.4-1.4v-8.543a1.4,1.4,0,0,1,1.4-1.4h63.18a1.4,1.4,0,0,1,1.4,1.4v8.543A1.4,1.4,0,0,1,83.518,170.39Zm-61.777-2.8H82.115v-5.739H21.741Z" transform="translate(4.894 20.782)"/><path d="M94.02,172.751H16.735a1.4,1.4,0,1,1,0-2.8H94.02a1.4,1.4,0,1,1,0,2.8Z" transform="translate(1.445 31.217)"/></g></svg>