<svg xmlns="http://www.w3.org/2000/svg" width="78.101" height="68.5" viewBox="0 0 78.101 68.5"><g transform="translate(-320.127 -74.083)"><path d="M326.849,105.175a6.729,6.729,0,0,1-6.722-6.72V95.1a1.287,1.287,0,0,1,1.287-1.289h5.333a1.289,1.289,0,0,1,0,2.577H322.7v2.065a4.146,4.146,0,0,0,8.291,0v-16.8a7.581,7.581,0,0,1,7.572-7.572,1.288,1.288,0,1,1,0,2.576,5,5,0,0,0-5,5v16.8A6.727,6.727,0,0,1,326.849,105.175Z" transform="translate(0 0)"/><path d="M342.365,92.525H324.439a1.288,1.288,0,1,1,0-2.576h17.927a1.288,1.288,0,1,1,0,2.576Z" transform="translate(2.41 12.651)"/><path d="M381.17,142.583h-44a1.288,1.288,0,0,1-1.287-1.289V81.581a4.929,4.929,0,0,0-4.923-4.923,1.288,1.288,0,1,1,0-2.576h44a7.508,7.508,0,0,1,7.5,7.5v7.4a1.289,1.289,0,0,1-2.577,0v-7.4a4.928,4.928,0,0,0-4.921-4.923H336.61a7.466,7.466,0,0,1,1.846,4.923v58.424h41.425v-12.49a1.289,1.289,0,0,1,2.577,0v13.778A1.289,1.289,0,0,1,381.17,142.583Z" transform="translate(7.608 0)"/><path d="M341.016,108.584a2.137,2.137,0,0,1-1.35-.4c-1.6-1.159-1.147-3.645-1-4.463.131-.715.9-4.283,3.253-4.283a4.26,4.26,0,0,1,2.779,1.166,2.45,2.45,0,0,1,.737,1.781,1.288,1.288,0,0,1-2.576.02,1.809,1.809,0,0,0-.814-.379,5.222,5.222,0,0,0-.845,2.157,3.957,3.957,0,0,0-.067,1.815,9.954,9.954,0,0,0,2.193-.532,11.853,11.853,0,0,0,3.487-1.423,5.943,5.943,0,0,0,1.684-2.561c.325-.793.776-1.88,1.97-1.857,1.582.031,2.245,1.936,2.852,5.218a1.288,1.288,0,1,1-2.532.471c-.138-.742-.266-1.325-.383-1.778a7.453,7.453,0,0,1-1.963,2.5c-.969.789-2.088,1.152-4.317,1.876A10.8,10.8,0,0,1,341.016,108.584Z" transform="translate(14.644 20.22)"/><path d="M352.058,108.783H339.781a1.288,1.288,0,1,1,0-2.576h12.278a1.288,1.288,0,1,1,0,2.576Z" transform="translate(14.643 25.614)"/><path d="M355.236,123.377a4.327,4.327,0,0,1-4-5.973l13.146-31.966a1.292,1.292,0,0,1,1.682-.7l5.622,2.313a1.286,1.286,0,0,1,.7,1.681L359.244,120.7A4.336,4.336,0,0,1,355.236,123.377ZM366.277,87.61l-12.655,30.774a1.752,1.752,0,0,0,3.241,1.332l12.655-30.772Z" transform="translate(24.548 8.419)" fill="#007dc6"/><path d="M352.6,110.056a1.311,1.311,0,0,1-.491-.1,1.289,1.289,0,0,1-.7-1.682l1.17-2.845a1.288,1.288,0,1,1,2.383.98l-1.17,2.845A1.291,1.291,0,0,1,352.6,110.056Z" transform="translate(24.864 24.358)" fill="#007dc6"/><path d="M363.838,91.217a1.3,1.3,0,0,1-.491-.1l-3.643-1.5a1.286,1.286,0,0,1-.7-1.681l1.605-3.9a3.258,3.258,0,1,1,6.026,2.479l-1.605,3.9a1.286,1.286,0,0,1-1.192.8Zm-1.963-3.489,1.262.519,1.116-2.714a.682.682,0,0,0-1.262-.518Z" transform="translate(30.92 6.324)" fill="#007dc6"/><path d="M361.622,103.868a1.311,1.311,0,0,1-.491-.1,1.289,1.289,0,0,1-.7-1.682l2.912-7.08a3.328,3.328,0,0,0-1.812-4.342,1.288,1.288,0,0,1,.98-2.383,5.9,5.9,0,0,1,3.214,7.705l-2.91,7.08A1.293,1.293,0,0,1,361.622,103.868Z" transform="translate(32.057 11.246)" fill="#007dc6"/><path d="M358.572,105.807a1.277,1.277,0,0,1-.491-.1l-5.622-2.311a1.288,1.288,0,0,1,.98-2.383l5.622,2.313a1.287,1.287,0,0,1-.489,2.479Z" transform="translate(25.143 21.398)" fill="#007dc6"/><path d="M356.176,81.248h-12.61a1.289,1.289,0,0,1,0-2.577h12.61a1.289,1.289,0,0,1,0,2.577Z" transform="translate(17.663 3.658)"/><path d="M368.527,85.256H338.806a1.288,1.288,0,0,1,0-2.576h29.721a1.288,1.288,0,0,1,0,2.576Z" transform="translate(13.867 6.855)"/><path d="M368.527,89.265H338.806a1.288,1.288,0,0,1,0-2.576h29.721a1.288,1.288,0,0,1,0,2.576Z" transform="translate(13.867 10.051)"/><path d="M366.426,93.274h-27.62a1.288,1.288,0,0,1,0-2.576h27.62a1.288,1.288,0,0,1,0,2.576Z" transform="translate(13.867 13.248)"/><path d="M362.223,97.282H338.806a1.288,1.288,0,0,1,0-2.576h23.417a1.288,1.288,0,0,1,0,2.576Z" transform="translate(13.867 16.443)"/></g></svg>