<svg xmlns="http://www.w3.org/2000/svg" width="58.765" height="68.5" viewBox="0 0 58.765 68.5"><g transform="translate(-201.203 -194.314)"><path d="M247.423,257.464H202.359a1.156,1.156,0,0,1-1.156-1.156V195.47a1.156,1.156,0,0,1,1.156-1.156h45.064a1.156,1.156,0,0,1,1.156,1.156v25.069a1.156,1.156,0,1,1-2.312,0V196.624H203.515v58.53h42.752v-2.721a1.156,1.156,0,0,1,2.312,0v3.875A1.156,1.156,0,0,1,247.423,257.464Z"/><path d="M235.528,237.086a1.156,1.156,0,0,1-1.156-1.156V199.945h-4.057a1.156,1.156,0,1,1,0-2.312h5.213a1.154,1.154,0,0,1,1.154,1.156V235.93A1.154,1.154,0,0,1,235.528,237.086Z" transform="translate(17.108 2.031)"/><path d="M250.657,241.241H205.593a1.156,1.156,0,0,1-1.156-1.156v-5.35a1.156,1.156,0,0,1,2.312,0v4.2H249.5v-8.208a1.155,1.155,0,1,1,2.31,0v9.362A1.154,1.154,0,0,1,250.657,241.241Z" transform="translate(1.979 21.573)"/><path d="M234.221,201.3H208.295a1.155,1.155,0,1,1,0-2.31h25.927a1.155,1.155,0,1,1,0,2.31Z" transform="translate(3.633 2.864)"/><path d="M238.716,205.177H206.274a1.155,1.155,0,1,1,0-2.31h32.442a1.155,1.155,0,1,1,0,2.31Z" transform="translate(2.396 5.234)"/><path d="M238.716,209.05H206.274a1.155,1.155,0,1,1,0-2.31h32.442a1.155,1.155,0,1,1,0,2.31Z" transform="translate(2.396 7.604)"/><path d="M227.879,212.925H206.274a1.156,1.156,0,1,1,0-2.312h21.605a1.156,1.156,0,0,1,0,2.312Z" transform="translate(2.396 9.974)"/><path d="M225.959,216.8H206.274a1.155,1.155,0,1,1,0-2.31h19.685a1.155,1.155,0,0,1,0,2.31Z" transform="translate(2.396 12.345)"/><path d="M221.534,220.67h-15.26a1.155,1.155,0,1,1,0-2.31h15.26a1.155,1.155,0,1,1,0,2.31Z" transform="translate(2.396 14.715)"/><path d="M216.494,224.543h-10.22a1.155,1.155,0,1,1,0-2.31h10.22a1.155,1.155,0,0,1,0,2.31Z" transform="translate(2.396 17.085)"/><path d="M227.62,233.124a1.161,1.161,0,0,1-.572-.152l-9.462-5.389a1.154,1.154,0,0,1-.551-1.273,25.286,25.286,0,0,1,6.619-11.622,1.155,1.155,0,0,1,1.377-.176l9.462,5.389a1.154,1.154,0,0,1,.551,1.273,25.307,25.307,0,0,1-6.619,11.622A1.148,1.148,0,0,1,227.62,233.124Zm-8.118-7.107,7.916,4.509a23.359,23.359,0,0,0,5.157-9.058l-7.916-4.507a23.338,23.338,0,0,0-5.157,9.056Z" transform="translate(9.668 12.268)" fill="#007dc6"/><path d="M226.606,236.01a3.126,3.126,0,0,1-1.551-.411l-9.464-5.39a3.152,3.152,0,0,1-1.178-4.293l1.857-3.263a3.148,3.148,0,0,1,4.294-1.177l9.464,5.389a3.148,3.148,0,0,1,1.178,4.293l-1.859,3.263A3.155,3.155,0,0,1,226.606,236.01Zm-7.6-12.636a.877.877,0,0,0-.222.029.834.834,0,0,0-.506.395l-1.857,3.261a.838.838,0,0,0,.314,1.143l9.462,5.389a.839.839,0,0,0,1.143-.314l1.857-3.261a.841.841,0,0,0-.313-1.143l-9.464-5.389A.838.838,0,0,0,219.007,223.374Z" transform="translate(7.832 16.368)" fill="#007dc6"/><path d="M232.891,224.974a3.132,3.132,0,0,1-1.552-.411l-9.462-5.39a3.15,3.15,0,0,1-1.178-4.293l1.857-3.263a3.151,3.151,0,0,1,4.294-1.177l9.462,5.389a3.15,3.15,0,0,1,1.178,4.293l-1.857,3.261A3.152,3.152,0,0,1,232.891,224.974Zm-10.186-8.953a.841.841,0,0,0,.314,1.145l9.462,5.389a.839.839,0,0,0,1.144-.314l1.855-3.259a.84.84,0,0,0-.313-1.144l-9.462-5.389a.845.845,0,0,0-.637-.081.833.833,0,0,0-.506.393Z" transform="translate(11.678 9.615)" fill="#007dc6"/><path d="M241.359,234.715a3.249,3.249,0,0,1-1.689-.474L226.8,226.463a1.154,1.154,0,0,1,.189-2.068,1.558,1.558,0,0,0,.983-1.726,1.154,1.154,0,0,1,1.683-1.219l13.255,7.1a3.278,3.278,0,0,1-.721,6.059A3.357,3.357,0,0,1,241.359,234.715Zm-11.908-9.351,11.414,6.9a.966.966,0,0,0,1.428-1.1.958.958,0,0,0-.472-.584l-11.758-6.3a3.838,3.838,0,0,1-.613,1.075Z" transform="translate(15.324 16.522)" fill="#007dc6"/><path d="M227.549,227.633a3.874,3.874,0,0,1-2.819-1.223,1.156,1.156,0,0,1-.1-1.462,23.632,23.632,0,0,0,1.335-2.086,24.048,24.048,0,0,0,1.114-2.212,1.152,1.152,0,0,1,1.3-.664,3.869,3.869,0,0,1-.838,7.647Zm-.348-2.35a1.558,1.558,0,0,0,1.48-2.6c-.222.447-.458.888-.7,1.319S227.472,224.866,227.2,225.283Z" transform="translate(14.207 15.694)" fill="#007dc6"/></g></svg>