<svg xmlns="http://www.w3.org/2000/svg" width="313.637" height="95.891" viewBox="0 0 313.637 95.891"><g transform="translate(0.009 0.001)"><g transform="translate(0 48.183)"><path d="M278.823,499.288c-2.925,0-4.643-1.719-4.643-4.574a4.651,4.651,0,0,1,5.031-5.031,8.767,8.767,0,0,1,2.592.4l-.278,1.151a6.863,6.863,0,0,0-2.439-.457c-2.523,0-3.548,1.774-3.548,3.743,0,2.328,1.289,3.659,3.466,3.659a5.508,5.508,0,0,0,1.649-.25V494.4h1.26v4.351a9.223,9.223,0,0,1-3.09.541" transform="translate(-273.737 -466.838)" fill="#444"/><path d="M290.687,496.092h-4.5c-.041,1.719.679,2.523,2.176,2.523a5.052,5.052,0,0,0,1.968-.4l.181.984a6.525,6.525,0,0,1-2.385.429c-2.093,0-3.229-1.108-3.229-3.534,0-2.051,1.151-3.6,3.1-3.6a2.556,2.556,0,0,1,2.73,2.828c0,.166-.013.5-.041.776m-2.772-2.661c-.9,0-1.553.651-1.7,1.774h3.243c.028-1.123-.568-1.774-1.538-1.774" transform="translate(-275.026 -467.175)" fill="#444"/><path d="M297.971,499.5v-4.435c0-.97-.264-1.553-1.178-1.553-1.137,0-1.955,1.165-1.955,2.689v3.3h-1.247v-6.888H294.8a8.547,8.547,0,0,1-.111,1.456h.028a2.528,2.528,0,0,1,2.425-1.581c1.581,0,2.079.984,2.079,2.2v4.81Z" transform="translate(-276.074 -467.175)" fill="#444"/><path d="M307.751,496.092h-4.5c-.041,1.719.679,2.523,2.176,2.523a5.052,5.052,0,0,0,1.968-.4l.181.984a6.525,6.525,0,0,1-2.385.429c-2.093,0-3.229-1.108-3.229-3.534,0-2.051,1.151-3.6,3.1-3.6a2.556,2.556,0,0,1,2.731,2.828c0,.166-.014.5-.042.776m-2.772-2.661c-.9,0-1.553.651-1.7,1.774h3.243c.028-1.123-.568-1.774-1.538-1.774" transform="translate(-277.081 -467.175)" fill="#444"/><path d="M314.05,493.72c-1.456-.263-2.149.8-2.149,3.007V499.5h-1.247v-6.889h1.206a9.2,9.2,0,0,1-.152,1.636h.027a2.188,2.188,0,0,1,2.371-1.76Z" transform="translate(-278.128 -467.174)" fill="#444"/><path d="M319.532,499.5a8.453,8.453,0,0,1,.069-1.371h-.028a2.457,2.457,0,0,1-2.342,1.5,1.79,1.79,0,0,1-1.912-1.857c0-1.483,1.51-2.371,4.144-2.371v-.318c0-1.1-.374-1.622-1.455-1.622a5.436,5.436,0,0,0-2.079.5l-.236-.984a6.734,6.734,0,0,1,2.481-.5c1.926,0,2.536.929,2.536,2.412v2.634c0,.652.014,1.386.042,1.982Zm-.069-3.229c-2.259,0-2.911.624-2.911,1.317a1.012,1.012,0,0,0,1.054,1.053,2.067,2.067,0,0,0,1.857-2.189Z" transform="translate(-278.689 -467.173)" fill="#444"/><rect width="1.247" height="10.118" transform="translate(44.391 22.208)" fill="#444"/><path d="M337.734,499.181l-.777-2.19h-3.978l-.777,2.19h-1.3l3.4-9.356h1.442l3.423,9.356Zm-2.356-6.709c-.166-.457-.291-.873-.4-1.275h-.028c-.111.4-.236.818-.388,1.248L333.3,495.98h3.327Z" transform="translate(-280.565 -466.855)" fill="#444"/><path d="M346.023,499.518a8.529,8.529,0,0,1,.111-1.455h-.028a2.526,2.526,0,0,1-2.425,1.581c-1.58,0-2.065-.985-2.065-2.2V492.63h1.234v4.436c0,.969.277,1.553,1.178,1.553,1.136,0,1.954-1.166,1.954-2.689v-3.3h1.247v6.888Z" transform="translate(-281.855 -467.192)" fill="#444"/><path d="M352.64,499.277c-1.414,0-1.844-.582-1.844-2.065v-3.964h-1.414v-.97H350.8v-2.232l1.246-.347v2.578h1.926v.97h-1.926v3.521c0,1.136.222,1.442.984,1.442a3.333,3.333,0,0,0,.873-.111l.124,1.026a6.445,6.445,0,0,1-1.385.152" transform="translate(-282.79 -466.84)" fill="#444"/><path d="M360.9,499.076v-4.435c0-.97-.264-1.553-1.178-1.553-1.137,0-1.955,1.165-1.955,2.689v3.3H356.52V488.958h1.247v3.271a6.176,6.176,0,0,1-.124,1.372l.027.014a2.493,2.493,0,0,1,2.4-1.552c1.581,0,2.079.984,2.079,2.2v4.81Z" transform="translate(-283.649 -466.75)" fill="#444"/><path d="M367.961,499.626c-1.885,0-3.091-1.081-3.091-3.506a3.352,3.352,0,0,1,3.354-3.632c1.76,0,3.091.97,3.091,3.452a3.393,3.393,0,0,1-3.354,3.686m.152-6.1c-1,0-1.954.763-1.954,2.467,0,1.663.692,2.578,1.954,2.578,1.026,0,1.913-.8,1.913-2.564,0-1.567-.638-2.481-1.913-2.481" transform="translate(-284.654 -467.175)" fill="#444"/><path d="M377.562,493.72c-1.456-.263-2.149.8-2.149,3.007V499.5h-1.247v-6.889h1.206a9.2,9.2,0,0,1-.152,1.636h.027a2.188,2.188,0,0,1,2.371-1.76Z" transform="translate(-285.774 -467.174)" fill="#444"/><path d="M380.355,490.848a.811.811,0,0,1-.832-.8.832.832,0,1,1,.832.8m-.625,1.372h1.247v6.889H379.73Z" transform="translate(-286.418 -466.783)" fill="#444"/><path d="M385.821,499.277c-1.414,0-1.844-.582-1.844-2.065v-3.964h-1.414v-.97h1.414v-2.232l1.248-.347v2.578h1.925v.97h-1.925v3.521c0,1.136.221,1.442.983,1.442a3.333,3.333,0,0,0,.873-.111l.124,1.026a6.444,6.444,0,0,1-1.385.152" transform="translate(-286.784 -466.84)" fill="#444"/><path d="M392.031,500.1c-.832,2.218-1.691,2.952-3.243,2.952a4.96,4.96,0,0,1-.8-.083l.138-1.109a3.167,3.167,0,0,0,.832.111c.706,0,1.3-.347,1.816-1.7l.277-.749-2.606-6.889h1.414l1.3,3.577c.222.624.375,1.165.527,1.7h.028c.124-.485.415-1.372.679-2.121l1.108-3.16h1.358Z" transform="translate(-287.437 -467.192)" fill="#444"/><path d="M404.966,490.029a3.143,3.143,0,0,0-1.012-.152c-.984,0-1.414.554-1.414,1.774v.526h1.913v.97H402.54v5.919h-1.247v-5.919h-1.414v-.97h1.414v-.513c0-1.9.929-2.8,2.648-2.8a5.221,5.221,0,0,1,1.137.125Z" transform="translate(-288.869 -466.739)" fill="#444"/><path d="M408.721,499.626c-1.885,0-3.091-1.081-3.091-3.506a3.352,3.352,0,0,1,3.354-3.632c1.76,0,3.091.97,3.091,3.452a3.393,3.393,0,0,1-3.354,3.686m.152-6.1c-1,0-1.954.763-1.954,2.467,0,1.663.693,2.578,1.954,2.578,1.026,0,1.913-.8,1.913-2.564,0-1.567-.638-2.481-1.913-2.481" transform="translate(-289.561 -467.175)" fill="#444"/><path d="M418.322,493.72c-1.456-.263-2.149.8-2.149,3.007V499.5h-1.247v-6.889h1.206a9.2,9.2,0,0,1-.152,1.636h.027a2.188,2.188,0,0,1,2.371-1.76Z" transform="translate(-290.68 -467.174)" fill="#444"/><path d="M428,499.281c-3.007,0-4.255-1.912-4.255-4.56,0-2.855,1.414-4.99,4.573-4.99a7.871,7.871,0,0,1,2.149.291l-.208,1.165a6.548,6.548,0,0,0-2.079-.361c-2.134,0-3.05,1.635-3.05,3.686,0,2.3,1,3.632,3.174,3.632a5.012,5.012,0,0,0,2.051-.471l.208,1.109a6.92,6.92,0,0,1-2.564.5" transform="translate(-291.743 -466.843)" fill="#444"/><path d="M435.616,499.626c-1.885,0-3.091-1.081-3.091-3.506a3.352,3.352,0,0,1,3.354-3.632c1.76,0,3.091.97,3.091,3.452a3.393,3.393,0,0,1-3.354,3.686m.152-6.1c-1,0-1.955.763-1.955,2.467,0,1.663.693,2.578,1.955,2.578,1.026,0,1.913-.8,1.913-2.564,0-1.567-.638-2.481-1.913-2.481" transform="translate(-292.799 -467.175)" fill="#444"/><path d="M450.4,499.5v-4.42c0-.943-.222-1.567-1.123-1.567-.983,0-1.926,1.04-1.926,2.717v3.27h-1.233v-4.42c0-.873-.18-1.567-1.122-1.567-1.054,0-1.927,1.136-1.927,2.717v3.27h-1.247v-6.888h1.206a10.246,10.246,0,0,1-.1,1.456l.014.013a2.529,2.529,0,0,1,2.4-1.594,1.716,1.716,0,0,1,1.9,1.567,2.561,2.561,0,0,1,2.357-1.567c1.3,0,2.051.693,2.051,2.259V499.5Z" transform="translate(-293.918 -467.175)" fill="#444"/><path d="M458.083,499.585a6.383,6.383,0,0,1-1.165-.084v3.424h-1.247V492.613h1.2a7.981,7.981,0,0,1-.11,1.4l.027.014a2.391,2.391,0,0,1,2.315-1.538c1.608,0,2.523,1.136,2.523,3.243,0,2.453-1.317,3.854-3.548,3.854m.72-6.071c-1.247,0-1.885,1.456-1.885,2.662v2.273a4.059,4.059,0,0,0,1.219.166c1.3,0,2.19-.79,2.19-2.773,0-1.483-.485-2.328-1.524-2.328" transform="translate(-295.586 -467.175)" fill="#444"/><path d="M469.562,496.092h-4.5c-.041,1.719.679,2.523,2.176,2.523a5.052,5.052,0,0,0,1.968-.4l.181.984a6.525,6.525,0,0,1-2.385.429c-2.093,0-3.229-1.108-3.229-3.534,0-2.051,1.151-3.6,3.1-3.6a2.556,2.556,0,0,1,2.73,2.828c0,.166-.013.5-.041.776m-2.772-2.661c-.9,0-1.553.651-1.7,1.774h3.243c.028-1.123-.568-1.774-1.538-1.774" transform="translate(-296.56 -467.175)" fill="#444"/><path d="M474.432,499.277c-1.414,0-1.845-.582-1.845-2.065v-3.964h-1.414v-.97h1.414v-2.232l1.249-.347v2.578h1.925v.97h-1.925v3.521c0,1.136.22,1.442.983,1.442a3.333,3.333,0,0,0,.873-.111l.124,1.026a6.442,6.442,0,0,1-1.384.152" transform="translate(-297.452 -466.84)" fill="#444"/><path d="M478.906,490.848a.811.811,0,0,1-.831-.8.832.832,0,1,1,.831.8m-.624,1.372h1.247v6.889h-1.247Z" transform="translate(-298.283 -466.783)" fill="#444"/><path d="M484.373,499.277c-1.414,0-1.844-.582-1.844-2.065v-3.964h-1.414v-.97h1.414v-2.232l1.247-.347v2.578H485.7v.97h-1.926v3.521c0,1.136.222,1.442.984,1.442a3.334,3.334,0,0,0,.873-.111l.124,1.026a6.443,6.443,0,0,1-1.385.152" transform="translate(-298.649 -466.84)" fill="#444"/><path d="M488.848,490.848a.81.81,0,0,1-.831-.8.832.832,0,1,1,.831.8m-.624,1.372h1.247v6.889h-1.247Z" transform="translate(-299.48 -466.783)" fill="#444"/><path d="M494.731,499.626c-1.885,0-3.09-1.081-3.09-3.506a3.351,3.351,0,0,1,3.353-3.632c1.76,0,3.091.97,3.091,3.452a3.393,3.393,0,0,1-3.354,3.686m.153-6.1c-1,0-1.954.763-1.954,2.467,0,1.663.691,2.578,1.954,2.578,1.025,0,1.913-.8,1.913-2.564,0-1.567-.639-2.481-1.913-2.481" transform="translate(-299.916 -467.175)" fill="#444"/><path d="M505.317,499.5v-4.435c0-.97-.263-1.553-1.178-1.553-1.137,0-1.954,1.165-1.954,2.689v3.3h-1.247v-6.888h1.2a8.55,8.55,0,0,1-.111,1.456h.028a2.528,2.528,0,0,1,2.425-1.581c1.581,0,2.079.984,2.079,2.2v4.81Z" transform="translate(-301.035 -467.175)" fill="#444"/><path d="M377.886,467.682a.984.984,0,0,0,.974-.992.974.974,0,1,0-.974.992" transform="translate(-286.104 -463.952)" fill="#444"/><path d="M380.975,467.682a.969.969,0,0,0,.955-.992.953.953,0,0,0-.955-.974.983.983,0,1,0,0,1.966" transform="translate(-286.474 -463.952)" fill="#444"/><path d="M396.022,469.644c-2.922,0-4.483,2.094-4.483,4.8,0,2.168-.68,2.7-1.618,2.7h-7.129V470.29a11.458,11.458,0,0,0-3.693-.643,4.305,4.305,0,0,0-4.63,4.556c0,2.61,1.286,4.282,4.814,4.282h10.566a2.448,2.448,0,0,0,2.444-1.562c.57.992,1.709,1.562,3.823,1.562h3.95V474c0-2.812-1.286-4.355-4.043-4.355m-14.884,7.5h-1.617c-2.371,0-3.345-1.029-3.345-3.124,0-1.82,1.029-3.032,2.738-3.032a5.7,5.7,0,0,1,2.224.422Zm17.273,0h-2.077c-2.223,0-3.105-.919-3.105-2.867,0-2.058,1.029-3.289,2.664-3.289s2.517.918,2.517,3.289Z" transform="translate(-285.81 -464.425)" fill="#444"/><path d="M430.57,464.964v11.614h-3.418a4.524,4.524,0,0,1-2.646-.882,5.022,5.022,0,0,0,2.2-3.8c0-1.488-1.048-2.848-3.547-2.848a9.752,9.752,0,0,0-5.311,2.2l-.147,1.176c1.874.607,3.105,1.967,4.41,3.2a12.127,12.127,0,0,1-5.017.956h-8.08V464.964h-1.691V477.92h9.624a13.431,13.431,0,0,0,6.23-1.36,5.8,5.8,0,0,0,3.73,1.36h5.349V464.964Zm-7.149,9.868c-1.231-1.1-2.389-2.444-3.987-3.051a7.112,7.112,0,0,1,3.547-1.47c1.414,0,2.04.808,2.04,1.8a3.52,3.52,0,0,1-1.6,2.72" transform="translate(-289.766 -463.862)" fill="#444"/><rect width="1.691" height="12.955" transform="translate(145.988 1.102)" fill="#444"/><path d="M451.753,467.682a.984.984,0,0,0,.974-.992.974.974,0,1,0-.974.992" transform="translate(-294.997 -463.952)" fill="#444"/><path d="M454.842,467.682a.969.969,0,0,0,.955-.992.953.953,0,0,0-.955-.974.983.983,0,0,0,0,1.966" transform="translate(-295.366 -463.952)" fill="#444"/><path d="M468.482,466.32h-.992c-1.048,0-1.434-.349-1.434-.827,0-.459.349-.754,1.029-.754a7.56,7.56,0,0,1,.882.074l.165-1.029a6.255,6.255,0,0,0-.992-.073c-1.691,0-2.334.918-2.334,1.819a.972.972,0,0,0,.5.881,7.719,7.719,0,0,0-1.268-.091v1.048h4.447Z" transform="translate(-296.593 -463.711)" fill="#444"/><path d="M471.653,481.7a.983.983,0,1,0,.974.974.969.969,0,0,0-.974-.974" transform="translate(-297.392 -465.876)" fill="#444"/><path d="M474.742,481.7a.983.983,0,1,0,0,1.966.969.969,0,0,0,.955-.992.953.953,0,0,0-.955-.974" transform="translate(-297.762 -465.876)" fill="#444"/><path d="M493.359,464.964v11.614h-3.916v-.368c0-5.513-2.481-7.718-6.909-7.718a15.494,15.494,0,0,0-4.318.68l.184,1.231a13.5,13.5,0,0,1,3.9-.643c3.785,0,5.513,1.892,5.513,6.449v.368h-2.426v-.808c0-2.334-1.029-3.859-3.216-3.859a3.007,3.007,0,0,0-3.307,3.051,2.147,2.147,0,0,0,.735,1.672,5.094,5.094,0,0,0-.7-.055h-6.11v-7.3H471.1v7.3H465.64v-7.3h-1.691v7.3H456.66v-6.854a11.459,11.459,0,0,0-3.694-.643,4.306,4.306,0,0,0-4.631,4.557c0,2.609,1.287,4.281,4.815,4.281h41.9V464.964Zm-38.353,11.614h-1.618c-2.371,0-3.344-1.029-3.344-3.124,0-1.819,1.029-3.032,2.738-3.032a5.7,5.7,0,0,1,2.224.422Zm28.906.037h-1.507a1.838,1.838,0,0,1-2.058-1.838,1.59,1.59,0,0,1,1.709-1.709c1.323,0,1.856,1.176,1.856,2.757Z" transform="translate(-294.702 -463.862)" fill="#444"/><rect width="1.691" height="12.955" transform="translate(203.838 1.102)" fill="#444"/><path d="M336.932,467.364a1,1,0,1,0-.992-.992.988.988,0,0,0,.992.992" transform="translate(-281.172 -463.91)" fill="#444"/><path d="M360.823,464.964v11.614H356.5V464.964h-1.691v11.614h-6.14v-3.142c0-2.812-1.286-4.355-4.043-4.355-2.921,0-4.483,2.094-4.483,4.8,0,2.168-.68,2.7-1.618,2.7h-2.113v-7.3H334.72v7.3h-8.4V464.964h-1.691v12.955h13.82a2.448,2.448,0,0,0,2.444-1.562c.57.992,1.709,1.562,3.823,1.562h17.79V464.964Zm-13.8,11.614h-2.077c-2.223,0-3.105-.919-3.105-2.867,0-2.058,1.029-3.289,2.664-3.289s2.517.918,2.517,3.289Z" transform="translate(-279.811 -463.862)" fill="#444"/><path d="M280.184,467.682a.969.969,0,0,0,.955-.992.953.953,0,0,0-.955-.974.983.983,0,0,0,0,1.966" transform="translate(-274.34 -463.952)" fill="#444"/><path d="M277.1,467.682a.984.984,0,0,0,.974-.992.974.974,0,1,0-.974.992" transform="translate(-273.97 -463.952)" fill="#444"/><path d="M311.26,469.644a4.287,4.287,0,0,0-4.593,4.483,3.32,3.32,0,0,0,1.36,3.105,5.559,5.559,0,0,0-1.066-.091H302.35c-1.947,0-2.425-.588-2.425-2.5V470.52h-1.636v4.2c0,1.562-.385,2.554-1.709,2.554-1.359,0-1.727-.974-1.727-2.554v-2.678h-1.691v2.532c0,1.985-.588,2.573-1.893,2.573h-1.143v-5.1h-1.683v5.1H282v-6.854a11.459,11.459,0,0,0-3.694-.643,4.306,4.306,0,0,0-4.631,4.556c0,2.61,1.287,4.282,4.815,4.282h12.76a2.292,2.292,0,0,0,2.48-1.47,2.4,2.4,0,0,0,2.591,1.617,2.59,2.59,0,0,0,2.591-1.617c.386,1.029,1.341,1.47,3.087,1.47h13.192V473.76c0-2.609-1.3-4.116-3.933-4.116m-30.913,7.5h-1.618c-2.37,0-3.344-1.029-3.344-3.124,0-1.82,1.029-3.032,2.738-3.032a5.7,5.7,0,0,1,2.224.422Zm33.192,0H311.72c-2.352,0-3.344-1.011-3.344-3.106,0-1.837,1.029-3.05,2.737-3.05,1.525,0,2.426.863,2.426,3.068Z" transform="translate(-273.676 -464.425)" fill="#444"/><path d="M316.039,467.322a1,1,0,1,0-.992-.992.988.988,0,0,0,.992.992" transform="translate(-278.656 -463.905)" fill="#444"/></g><path d="M570.6,515.857l-7.745-9.9-10.81,8.667-2.379-2.968,13.813-11.074,10.116,12.93Z" transform="translate(-306.902 -419.967)" fill="#a8a9ab"/><path d="M577.4,510.837l-13.92-17.79L546.28,506.5l-2.707-3.46,20.659-16.164,16.626,21.251Z" transform="translate(-306.168 -418.317)" fill="#848588"/><path d="M582.776,503.381l-18.79-24.018-23.6,18.46-3.515-4.494,28.088-21.975,22.306,28.511Z" transform="translate(-305.362 -416.448)" fill="#626467"/><path d="M620.708,493.964,602.745,471l5.022-3.928,2.343,3-2.026,1.584L623.7,491.621Z" transform="translate(-313.292 -415.933)" fill="#ffde8e"/><path d="M626.361,487.372l-9.585-12.252,4.647-3.635,1.758,2.247-2.4,1.877,7.828,10.006Z" transform="translate(-314.981 -416.464)" fill="#ffde8e"/><path d="M610.756,496.719l-21.74-27.787,8.725-6.785,2.7,3.468-5.245,4.08,19.023,24.316Z" transform="translate(-311.639 -415.34)" fill="#ffd05c"/><path d="M598.569,498.288,573.5,466.241,591.053,452.5l3.516,4.5L581.5,467.22l21.557,27.555Z" transform="translate(-309.77 -414.179)" fill="#fac126"/><path d="M526.287,474.782l-2.707-3.461,2.93-2.292L498.6,433.266l3.46-2.707,30.616,39.222Z" transform="translate(-300.754 -411.537)" fill="#007cb0"/><path d="M530.3,484.461l-3.516-4.493,12.786-10-30.605-39,4.493-3.516,34.121,43.492Z" transform="translate(-302.002 -411.163)" fill="#005897"/><path d="M558.242,440.672l-16.5-21.09,3-2.344L558.9,435.332l8.354-6.536,2.343,3Z" transform="translate(-305.948 -409.933)" fill="#acc879"/><path d="M554.547,451.748l-31.205-40.116,3.468-2.7,28.5,36.639,18.808-14.716,2.708,3.461Z" transform="translate(-303.733 -408.933)" fill="#86af42"/><path d="M551.787,465.885l-38.765-49.549,4.493-3.516,35.223,45.022,24.252-19.265,3.549,4.467Z" transform="translate(-302.49 -409.401)" fill="#5f9600"/></g></svg>