<svg xmlns="http://www.w3.org/2000/svg" width="274.036" height="79.991" viewBox="0 0 274.036 79.991"><g transform="translate(184.307)"><path d="M1291.835,880.057c.217.923.448,1.813.634,2.711.385,1.868.747,3.742,1.117,5.614a2.771,2.771,0,0,1,.044.312c.037.44-.005.512-.4.662-.137.052-.279.09-.42.131a34.5,34.5,0,0,0-14.18,8.216,60.265,60.265,0,0,0-5.581,5.8c-.313.387-.619.78-.971,1.226-.2-.232-.353-.422-.516-.6-1.943-2.174-3.819-4.412-5.845-6.505a30.7,30.7,0,0,0-11.618-7.315c-1.02-.379-2.068-.684-3.1-1.022-.215-.07-.433-.133-.689-.212l1.974-9.144a34.029,34.029,0,0,1,11.086,4.835,35.234,35.234,0,0,1,8.668,8.449c.165-.2.308-.369.44-.543a34.1,34.1,0,0,1,9.336-8.612,33.345,33.345,0,0,1,9.491-3.928A5.142,5.142,0,0,1,1291.835,880.057Z" transform="translate(-1227.151 -879.928)" fill="#004184"/><path d="M1307.261,980.177l28.02,27.993-.063.117-11.166-2.336c-.776,4.005-1.54,7.95-2.317,11.964a4.074,4.074,0,0,1-.487-.239q-4.482-3.089-8.958-6.185a2.791,2.791,0,0,1-1.2-1.983q-.588-4.015-1.16-8.032-.607-4.3-1.19-8.6c-.329-2.453-.637-4.908-.95-7.363q-.294-2.309-.574-4.621c-.027-.22-.042-.441-.062-.661Z" transform="translate(-1260.074 -937.969)" fill="#008d33"/><path d="M1257.818,980.347c-.115.976-.222,1.954-.345,2.929-.316,2.5-.629,4.995-.96,7.49q-.587,4.428-1.2,8.853c-.426,3.032-.873,6.061-1.311,9.092-.015.1-.028.208-.035.313a3.6,3.6,0,0,1-1.807,2.91c-2.761,1.832-5.465,3.752-8.192,5.635-.2.139-.411.266-.708.456-.852-4.026-1.512-7.986-2.361-11.993-3.744.743-7.436,1.564-11.118,2.31-.039-.036-.059-.046-.062-.06a.074.074,0,0,1,0-.061c.513-.524,1.023-1.052,1.542-1.571l26.4-26.362Z" transform="translate(-1215.224 -938.033)" fill="#008d33"/><path d="M1366.525,972.56c-.238.15-.418.274-.608.383-4.054,2.326-8.1,4.662-12.172,6.963a1.51,1.51,0,0,0-.867,1.507c.047,4.531.061,9.062.085,13.593a1.5,1.5,0,0,1-.115.69c-.112-.164-.231-.323-.334-.493-2.192-3.6-4.4-7.193-6.568-10.8a46.675,46.675,0,0,0-9.441-11.053c-.142-.124-.283-.249-.422-.378a.425.425,0,0,1-.061-.107C1336.57,972.678,1365.538,972.374,1366.525,972.56Z" transform="translate(-1276.796 -933.525)" fill="#007dc6"/><path d="M1346.653,898.651c-.051.235-.08.41-.126.58-1.236,4.572-2.464,9.147-3.721,13.713a1.465,1.465,0,0,0,.436,1.625c3.254,3.182,6.48,6.392,9.72,9.589a4.123,4.123,0,0,0,.5.368l-.106.181c-.187-.033-.377-.056-.562-.1-4.315-1.049-8.625-2.117-12.945-3.147a43.7,43.7,0,0,0-11.735-1.087c-.938.033-1.876.081-2.823.123C1325.564,919.956,1345.715,899.332,1346.653,898.651Z" transform="translate(-1270.585 -890.768)" fill="#005ca7"/><path d="M1239.583,920.571c-.18,0-.34.01-.5,0a46.714,46.714,0,0,0-15.22,1.24c-3.955,1.018-7.935,1.94-11.905,2.9-.155.037-.317.047-.6.087.224-.238.359-.389.5-.531,3.235-3.2,6.461-6.412,9.717-9.593a1.545,1.545,0,0,0,.443-1.735c-1.277-4.6-2.512-9.221-3.76-13.834-.027-.1-.046-.2-.074-.32C1218.782,899.089,1239.059,919.734,1239.583,920.571Z" transform="translate(-1204.592 -890.846)" fill="#005ca7"/><path d="M1225.833,972.955a2.376,2.376,0,0,0-.372.218,48.232,48.232,0,0,0-10.4,12.437c-1.888,3.243-3.887,6.421-5.837,9.628-.1.158-.2.311-.37.571a3.668,3.668,0,0,1-.076-.489q.034-5.285.075-10.57c.009-1.175-.006-2.35.024-3.524a1.238,1.238,0,0,0-.719-1.21c-2.534-1.438-5.058-2.892-7.585-4.342q-2.4-1.377-4.8-2.755a2.047,2.047,0,0,1-.487-.376c10.15-.089,20.281.14,30.414.224Z" transform="translate(-1195.283 -933.538)" fill="#007dc6"/></g><g transform="translate(0.776 52.148)"><path d="M781.488,1009.767a1.847,1.847,0,0,1-.7-.782,2.606,2.606,0,0,1-.249-1.162v-1.818a2.5,2.5,0,0,1,.257-1.158,1.913,1.913,0,0,1,.721-.782,2.021,2.021,0,0,1,1.065-.28h.926a2.065,2.065,0,0,1,1.017.245,1.726,1.726,0,0,1,.685.69,2.089,2.089,0,0,1,.245,1.022h-.629a1.391,1.391,0,0,0-.362-1,1.26,1.26,0,0,0-.956-.38h-.926a1.267,1.267,0,0,0-1.013.45,1.776,1.776,0,0,0-.384,1.193v1.818a1.813,1.813,0,0,0,.371,1.192,1.21,1.21,0,0,0,.983.45h.943a1.285,1.285,0,0,0,1-.428,1.623,1.623,0,0,0,.384-1.127v-.524h-1.694v-.568H785.5v1.092a2.406,2.406,0,0,1-.249,1.114,1.8,1.8,0,0,1-.707.752,2.08,2.08,0,0,1-1.061.266h-.943A1.975,1.975,0,0,1,781.488,1009.767Z" transform="translate(-780.541 -1003.786)" fill="#004184"/><path d="M795.1,1012.025a1.527,1.527,0,0,1-.446-1.149v-1.249a1.662,1.662,0,0,1,.446-1.21,1.567,1.567,0,0,1,1.179-.458h.716a1.492,1.492,0,0,1,1.127.445,1.634,1.634,0,0,1,.427,1.18v.769H795.28v.524a1.012,1.012,0,0,0,.275.738.955.955,0,0,0,.72.284h.664a1.028,1.028,0,0,0,.707-.24.817.817,0,0,0,.27-.642h.611a1.343,1.343,0,0,1-.437,1.044,1.643,1.643,0,0,1-1.152.4h-.664A1.619,1.619,0,0,1,795.1,1012.025Zm2.82-2.215v-.227a1.142,1.142,0,0,0-.253-.773.847.847,0,0,0-.673-.292h-.716a.922.922,0,0,0-.72.306,1.153,1.153,0,0,0-.275.8v.183Z" transform="translate(-788.713 -1006.201)" fill="#004184"/><path d="M806.521,1008.028h.611v.646a1.635,1.635,0,0,1,.524-.516,1.216,1.216,0,0,1,.646-.2h.594a1.252,1.252,0,0,1,.974.41,1.545,1.545,0,0,1,.371,1.075v2.944h-.629v-2.962a1.026,1.026,0,0,0-.2-.655.646.646,0,0,0-.533-.253h-.559a1.056,1.056,0,0,0-.747.323,1.456,1.456,0,0,0-.423.829v2.717h-.629Z" transform="translate(-795.588 -1006.201)" fill="#004184"/><path d="M818.421,1012.025a1.528,1.528,0,0,1-.445-1.149v-1.249a1.664,1.664,0,0,1,.445-1.21,1.568,1.568,0,0,1,1.179-.458h.716a1.491,1.491,0,0,1,1.126.445,1.631,1.631,0,0,1,.428,1.18v.769H818.6v.524a1.014,1.014,0,0,0,.275.738.956.956,0,0,0,.721.284h.664a1.026,1.026,0,0,0,.707-.24.817.817,0,0,0,.271-.642h.611a1.344,1.344,0,0,1-.436,1.044,1.646,1.646,0,0,1-1.153.4H819.6A1.62,1.62,0,0,1,818.421,1012.025Zm2.821-2.215v-.227a1.143,1.143,0,0,0-.253-.773.846.846,0,0,0-.672-.292H819.6a.923.923,0,0,0-.721.306,1.155,1.155,0,0,0-.275.8v.183Z" transform="translate(-802.223 -1006.201)" fill="#004184"/><path d="M829.845,1008.1h.611v.672a1.3,1.3,0,0,1,.528-.5,1.521,1.521,0,0,1,.738-.193h.384v.568h-.384a1.207,1.207,0,0,0-.9.354,1.289,1.289,0,0,0-.345.939v2.516h-.629Z" transform="translate(-809.097 -1006.273)" fill="#004184"/><path d="M836.928,1012.125a1.124,1.124,0,0,1-.38-.891v-.28a1.1,1.1,0,0,1,.393-.882,1.558,1.558,0,0,1,1.039-.332h.559a2.187,2.187,0,0,1,.594.088,1.811,1.811,0,0,1,.524.236v-.726a.82.82,0,0,0-.227-.6.808.808,0,0,0-.6-.232h-.7a.963.963,0,0,0-.6.175.557.557,0,0,0-.227.463h-.629a1.057,1.057,0,0,1,.4-.861,1.621,1.621,0,0,1,1.057-.327h.7a1.449,1.449,0,0,1,1.043.38,1.32,1.32,0,0,1,.4,1v3.049h-.594v-.611a1.475,1.475,0,0,1-.529.5,1.369,1.369,0,0,1-.677.183h-.524A1.49,1.49,0,0,1,836.928,1012.125Zm1.559-.219a1.153,1.153,0,0,0,.734-.253,1.24,1.24,0,0,0,.437-.673v-.323a1.258,1.258,0,0,0-.485-.267,2.045,2.045,0,0,0-.633-.1h-.559a.885.885,0,0,0-.581.183.593.593,0,0,0-.223.481v.28a.618.618,0,0,0,.21.489.817.817,0,0,0,.559.183Z" transform="translate(-812.979 -1006.201)" fill="#004184"/><path d="M848.7,1009.793a1.248,1.248,0,0,1-.279-.913v-4.928h.629v4.928a.7.7,0,0,0,.135.481.571.571,0,0,0,.441.148h.3v.559h-.3A1.288,1.288,0,0,1,848.7,1009.793Z" transform="translate(-819.854 -1003.882)" fill="#004184"/><path d="M860.431,1009.819a1.565,1.565,0,0,1-.624-.629,1.923,1.923,0,0,1-.223-.939h.629a1.223,1.223,0,0,0,.318.878,1.106,1.106,0,0,0,.843.337h.97a1.362,1.362,0,0,0,.829-.232.719.719,0,0,0,.314-.607v-.559a.66.66,0,0,0-.231-.507,1.191,1.191,0,0,0-.633-.271l-1.572-.262a1.891,1.891,0,0,1-1.031-.472,1.206,1.206,0,0,1-.366-.9v-.472a1.235,1.235,0,0,1,.476-1.018,1.964,1.964,0,0,1,1.262-.38h.987a1.625,1.625,0,0,1,1.2.45,1.593,1.593,0,0,1,.454,1.184H863.4a1.057,1.057,0,0,0-.279-.769.988.988,0,0,0-.742-.289h-.987a1.3,1.3,0,0,0-.795.223.711.711,0,0,0-.3.6v.472a.682.682,0,0,0,.223.516,1.178,1.178,0,0,0,.616.279l1.563.271a2.071,2.071,0,0,1,1.057.467,1.14,1.14,0,0,1,.376.878v.559a1.247,1.247,0,0,1-.489,1.026,2,2,0,0,1-1.284.389h-1A1.873,1.873,0,0,1,860.431,1009.819Z" transform="translate(-826.321 -1003.786)" fill="#004184"/><path d="M873.04,1012.025a1.528,1.528,0,0,1-.445-1.149v-1.249a1.662,1.662,0,0,1,.445-1.21,1.567,1.567,0,0,1,1.179-.458h.716a1.49,1.49,0,0,1,1.127.445,1.632,1.632,0,0,1,.428,1.18v.769h-3.266v.524a1.015,1.015,0,0,0,.275.738.956.956,0,0,0,.721.284h.664a1.027,1.027,0,0,0,.707-.24.815.815,0,0,0,.27-.642h.612a1.345,1.345,0,0,1-.437,1.044,1.646,1.646,0,0,1-1.153.4h-.664A1.62,1.62,0,0,1,873.04,1012.025Zm2.82-2.215v-.227a1.141,1.141,0,0,0-.253-.773.845.845,0,0,0-.672-.292h-.716a.923.923,0,0,0-.721.306,1.156,1.156,0,0,0-.275.8v.183Z" transform="translate(-833.857 -1006.201)" fill="#004184"/><path d="M884.486,1012.025a1.545,1.545,0,0,1-.436-1.149v-1.249a1.683,1.683,0,0,1,.436-1.21,1.505,1.505,0,0,1,1.144-.458h.716a1.542,1.542,0,0,1,1.083.375,1.277,1.277,0,0,1,.411.987h-.612a.756.756,0,0,0-.24-.581.906.906,0,0,0-.642-.222h-.716a.864.864,0,0,0-.69.306,1.192,1.192,0,0,0-.262.8v1.249a1.028,1.028,0,0,0,.267.743.912.912,0,0,0,.694.28h.716a.829.829,0,0,0,.659-.288,1.137,1.137,0,0,0,.249-.769h.612a1.639,1.639,0,0,1-.419,1.171,1.44,1.44,0,0,1-1.1.445h-.716A1.565,1.565,0,0,1,884.486,1012.025Z" transform="translate(-840.492 -1006.201)" fill="#004184"/><path d="M895.587,1008.1h.611v.672a1.306,1.306,0,0,1,.528-.5,1.521,1.521,0,0,1,.738-.193h.384v.568h-.384a1.208,1.208,0,0,0-.9.354,1.289,1.289,0,0,0-.345.939v2.516h-.629Z" transform="translate(-847.174 -1006.273)" fill="#004184"/><path d="M902.652,1012.025a1.529,1.529,0,0,1-.445-1.149v-1.249a1.664,1.664,0,0,1,.445-1.21,1.567,1.567,0,0,1,1.179-.458h.717a1.49,1.49,0,0,1,1.126.445,1.632,1.632,0,0,1,.428,1.18v.769h-3.266v.524a1.016,1.016,0,0,0,.275.738.956.956,0,0,0,.72.284h.664a1.025,1.025,0,0,0,.707-.24.816.816,0,0,0,.271-.642h.611a1.346,1.346,0,0,1-.436,1.044,1.647,1.647,0,0,1-1.153.4h-.664A1.619,1.619,0,0,1,902.652,1012.025Zm2.821-2.215v-.227a1.142,1.142,0,0,0-.253-.773.845.845,0,0,0-.672-.292h-.717a.923.923,0,0,0-.72.306,1.157,1.157,0,0,0-.275.8v.183Z" transform="translate(-851.008 -1006.201)" fill="#004184"/><path d="M914.192,1010.372a1.335,1.335,0,0,1-.3-.978v-2.525h-.768v-.559h.768v-1.319h.629v1.319h1.135v.559h-1.135v2.525a.8.8,0,0,0,.153.55.67.67,0,0,0,.511.166h.471v.559h-.471A1.378,1.378,0,0,1,914.192,1010.372Z" transform="translate(-857.329 -1004.483)" fill="#004184"/><path d="M921.677,1012.125a1.125,1.125,0,0,1-.38-.891v-.28a1.1,1.1,0,0,1,.393-.882,1.558,1.558,0,0,1,1.039-.332h.559a2.186,2.186,0,0,1,.594.088,1.81,1.81,0,0,1,.524.236v-.726a.82.82,0,0,0-.227-.6.807.807,0,0,0-.6-.232h-.7a.963.963,0,0,0-.6.175.557.557,0,0,0-.227.463h-.629a1.057,1.057,0,0,1,.4-.861,1.621,1.621,0,0,1,1.057-.327h.7a1.449,1.449,0,0,1,1.043.38,1.321,1.321,0,0,1,.4,1v3.049h-.594v-.611a1.477,1.477,0,0,1-.529.5,1.37,1.37,0,0,1-.677.183H922.7A1.491,1.491,0,0,1,921.677,1012.125Zm1.559-.219a1.153,1.153,0,0,0,.734-.253,1.24,1.24,0,0,0,.437-.673v-.323a1.258,1.258,0,0,0-.485-.267,2.045,2.045,0,0,0-.633-.1h-.559a.885.885,0,0,0-.581.183.593.593,0,0,0-.223.481v.28a.618.618,0,0,0,.21.489.817.817,0,0,0,.559.183Z" transform="translate(-862.065 -1006.201)" fill="#004184"/><path d="M933.167,1008.1h.611v.672a1.3,1.3,0,0,1,.528-.5,1.523,1.523,0,0,1,.738-.193h.384v.568h-.384a1.207,1.207,0,0,0-.9.354,1.291,1.291,0,0,0-.345.939v2.516h-.629Z" transform="translate(-868.939 -1006.273)" fill="#004184"/><path d="M940.665,1005.139a.508.508,0,1,1,.34.131A.462.462,0,0,1,940.665,1005.139Zm.026.787h.629v4.359h-.629Z" transform="translate(-873.206 -1004.099)" fill="#004184"/><path d="M945.978,1012.125a1.123,1.123,0,0,1-.38-.891v-.28a1.1,1.1,0,0,1,.393-.882,1.557,1.557,0,0,1,1.039-.332h.559a2.184,2.184,0,0,1,.594.088,1.8,1.8,0,0,1,.524.236v-.726a.818.818,0,0,0-.227-.6.806.806,0,0,0-.6-.232h-.7a.964.964,0,0,0-.6.175.556.556,0,0,0-.227.463h-.629a1.057,1.057,0,0,1,.4-.861,1.62,1.62,0,0,1,1.057-.327h.7a1.448,1.448,0,0,1,1.043.38,1.32,1.32,0,0,1,.4,1v3.049h-.594v-.611a1.47,1.47,0,0,1-.528.5,1.37,1.37,0,0,1-.677.183H947A1.49,1.49,0,0,1,945.978,1012.125Zm1.559-.219a1.154,1.154,0,0,0,.733-.253,1.238,1.238,0,0,0,.436-.673v-.323a1.252,1.252,0,0,0-.484-.267,2.042,2.042,0,0,0-.633-.1h-.559a.885.885,0,0,0-.581.183.593.593,0,0,0-.223.481v.28a.618.618,0,0,0,.21.489.817.817,0,0,0,.559.183Z" transform="translate(-876.139 -1006.201)" fill="#004184"/><path d="M957.707,1010.372a1.335,1.335,0,0,1-.3-.978v-2.525h-.769v-.559h.769v-1.319h.629v1.319h1.135v.559h-1.135v2.525a.8.8,0,0,0,.153.55.669.669,0,0,0,.511.166h.472v.559H958.7A1.377,1.377,0,0,1,957.707,1010.372Z" transform="translate(-882.533 -1004.483)" fill="#004184"/><path d="M971.445,1012a1.636,1.636,0,0,1-.446-1.2v-1.2a1.626,1.626,0,0,1,.45-1.2,1.6,1.6,0,0,1,1.192-.454h.716a1.6,1.6,0,0,1,1.192.454,1.627,1.627,0,0,1,.449,1.2v1.2a1.561,1.561,0,0,1-1.659,1.651h-.716A1.575,1.575,0,0,1,971.445,1012Zm1.9-.1a.973.973,0,0,0,.751-.3,1.115,1.115,0,0,0,.279-.791v-1.2a1.115,1.115,0,0,0-.279-.791.953.953,0,0,0-.733-.3h-.716a.953.953,0,0,0-.734.3,1.117,1.117,0,0,0-.279.791v1.2a1.136,1.136,0,0,0,.271.8.933.933,0,0,0,.725.3Z" transform="translate(-890.851 -1006.201)" fill="#004184"/><path d="M983.122,1006.22h-.751v-.559h.751v-.341a1.29,1.29,0,0,1,1.441-1.451h.332v.542h-.332a.782.782,0,0,0-.616.223,1.016,1.016,0,0,0-.2.686v.341H984.8v.559H983.75v3.8h-.629Z" transform="translate(-897.437 -1003.834)" fill="#004184"/><path d="M996.828,1010.372a1.333,1.333,0,0,1-.3-.978v-2.525h-.768v-.559h.768v-1.319h.629v1.319h1.135v.559h-1.135v2.525a.8.8,0,0,0,.152.55.671.671,0,0,0,.511.166h.471v.559h-.471A1.377,1.377,0,0,1,996.828,1010.372Z" transform="translate(-905.191 -1004.483)" fill="#004184"/><path d="M1004.515,1003.952h.629v2.359a1.527,1.527,0,0,1,.515-.489,1.25,1.25,0,0,1,.638-.183h.611a1.252,1.252,0,0,1,.974.41,1.543,1.543,0,0,1,.371,1.075v2.944h-.629v-2.962a1.026,1.026,0,0,0-.2-.655.646.646,0,0,0-.533-.253h-.577a1.06,1.06,0,0,0-.747.319,1.427,1.427,0,0,0-.423.817v2.735h-.629Z" transform="translate(-910.263 -1003.882)" fill="#004184"/><path d="M1016.456,1012.025a1.529,1.529,0,0,1-.445-1.149v-1.249a1.664,1.664,0,0,1,.445-1.21,1.568,1.568,0,0,1,1.179-.458h.716a1.491,1.491,0,0,1,1.126.445,1.631,1.631,0,0,1,.428,1.18v.769h-3.266v.524a1.016,1.016,0,0,0,.275.738.956.956,0,0,0,.72.284h.664a1.027,1.027,0,0,0,.708-.24.816.816,0,0,0,.27-.642h.611a1.346,1.346,0,0,1-.436,1.044,1.647,1.647,0,0,1-1.153.4h-.664A1.621,1.621,0,0,1,1016.456,1012.025Zm2.821-2.215v-.227a1.144,1.144,0,0,0-.253-.773.845.845,0,0,0-.672-.292h-.716a.923.923,0,0,0-.72.306,1.157,1.157,0,0,0-.275.8v.183Z" transform="translate(-916.921 -1006.201)" fill="#004184"/><path d="M1034.516,1009.762a1.878,1.878,0,0,1-.7-.782,2.577,2.577,0,0,1-.249-1.157v-1.818a2.6,2.6,0,0,1,.249-1.162,1.827,1.827,0,0,1,.707-.782,2.025,2.025,0,0,1,1.061-.275h.925a2,2,0,0,1,1,.245,1.706,1.706,0,0,1,.672.69,2.116,2.116,0,0,1,.24,1.022h-.629a1.41,1.41,0,0,0-.354-1,1.21,1.21,0,0,0-.93-.38h-.925a1.234,1.234,0,0,0-1,.45,1.8,1.8,0,0,0-.375,1.193v1.818a1.828,1.828,0,0,0,.367,1.192,1.187,1.187,0,0,0,.969.45h.944a1.2,1.2,0,0,0,.956-.419,1.627,1.627,0,0,0,.362-1.1h.629a2.366,2.366,0,0,1-.244,1.1,1.787,1.787,0,0,1-.685.739,1.954,1.954,0,0,1-1.017.262h-.944A1.914,1.914,0,0,1,1034.516,1009.762Z" transform="translate(-927.09 -1003.786)" fill="#004184"/><path d="M1047.626,1012a1.636,1.636,0,0,1-.445-1.2v-1.2a1.626,1.626,0,0,1,.45-1.2,1.6,1.6,0,0,1,1.192-.454h.716a1.6,1.6,0,0,1,1.192.454,1.627,1.627,0,0,1,.45,1.2v1.2a1.562,1.562,0,0,1-1.659,1.651h-.716A1.576,1.576,0,0,1,1047.626,1012Zm1.895-.1a.973.973,0,0,0,.751-.3,1.114,1.114,0,0,0,.279-.791v-1.2a1.114,1.114,0,0,0-.279-.791.951.951,0,0,0-.733-.3h-.716a.952.952,0,0,0-.734.3,1.115,1.115,0,0,0-.279.791v1.2a1.137,1.137,0,0,0,.271.8.933.933,0,0,0,.725.3Z" transform="translate(-934.974 -1006.201)" fill="#004184"/><path d="M1065.113,1008.329a1.472,1.472,0,0,1,.336,1.026v3.032h-.629v-3.049a.942.942,0,0,0-.175-.6.563.563,0,0,0-.463-.218h-.5a.826.826,0,0,0-.62.253,1.277,1.277,0,0,0-.314.717v2.9h-.628v-3a1.106,1.106,0,0,0-.162-.642.509.509,0,0,0-.441-.232h-.5a.809.809,0,0,0-.629.315,1.548,1.548,0,0,0-.341.821v2.735h-.629v-4.359h.611v.629a1.416,1.416,0,0,1,.437-.516.943.943,0,0,1,.55-.183h.515a1.059,1.059,0,0,1,1.039.7,1.443,1.443,0,0,1,.481-.524,1.128,1.128,0,0,1,.611-.175h.533A1.168,1.168,0,0,1,1065.113,1008.329Z" transform="translate(-942.065 -1006.201)" fill="#004184"/><path d="M1082.461,1008.329a1.473,1.473,0,0,1,.336,1.026v3.032h-.629v-3.049a.944.944,0,0,0-.175-.6.565.565,0,0,0-.463-.218h-.5a.823.823,0,0,0-.619.253,1.276,1.276,0,0,0-.314.717v2.9h-.629v-3a1.107,1.107,0,0,0-.161-.642.511.511,0,0,0-.441-.232h-.5a.81.81,0,0,0-.628.315,1.55,1.55,0,0,0-.34.821v2.735h-.629v-4.359h.611v.629a1.418,1.418,0,0,1,.437-.516.942.942,0,0,1,.55-.183h.516a1.06,1.06,0,0,1,1.04.7,1.445,1.445,0,0,1,.48-.524,1.131,1.131,0,0,1,.611-.175h.533A1.17,1.17,0,0,1,1082.461,1008.329Z" transform="translate(-952.113 -1006.201)" fill="#004184"/><path d="M1094.251,1005.139a.508.508,0,1,1,.34.131A.461.461,0,0,1,1094.251,1005.139Zm.026.787h.629v4.359h-.629Z" transform="translate(-962.16 -1004.099)" fill="#004184"/><path d="M1099.756,1010.372a1.332,1.332,0,0,1-.3-.978v-2.525h-.768v-.559h.768v-1.319h.628v1.319h1.135v.559h-1.135v2.525a.8.8,0,0,0,.153.55.67.67,0,0,0,.511.166h.471v.559h-.471A1.375,1.375,0,0,1,1099.756,1010.372Z" transform="translate(-964.805 -1004.483)" fill="#004184"/><path d="M1107.682,1010.372a1.334,1.334,0,0,1-.3-.978v-2.525h-.768v-.559h.768v-1.319h.629v1.319h1.135v.559h-1.135v2.525a.8.8,0,0,0,.152.55.67.67,0,0,0,.511.166h.471v.559h-.471A1.377,1.377,0,0,1,1107.682,1010.372Z" transform="translate(-969.396 -1004.483)" fill="#004184"/><path d="M1115.068,1012.025a1.527,1.527,0,0,1-.446-1.149v-1.249a1.662,1.662,0,0,1,.446-1.21,1.566,1.566,0,0,1,1.179-.458h.716a1.49,1.49,0,0,1,1.126.445,1.632,1.632,0,0,1,.428,1.18v.769h-3.266v.524a1.013,1.013,0,0,0,.276.738.953.953,0,0,0,.72.284h.664a1.026,1.026,0,0,0,.707-.24.816.816,0,0,0,.271-.642h.611a1.345,1.345,0,0,1-.437,1.044,1.645,1.645,0,0,1-1.152.4h-.664A1.618,1.618,0,0,1,1115.068,1012.025Zm2.82-2.215v-.227a1.14,1.14,0,0,0-.253-.773.845.845,0,0,0-.672-.292h-.716a.921.921,0,0,0-.72.306,1.154,1.154,0,0,0-.276.8v.183Z" transform="translate(-974.035 -1006.201)" fill="#004184"/><path d="M1126.522,1012.025a1.527,1.527,0,0,1-.446-1.149v-1.249a1.662,1.662,0,0,1,.446-1.21,1.567,1.567,0,0,1,1.179-.458h.716a1.49,1.49,0,0,1,1.126.445,1.631,1.631,0,0,1,.428,1.18v.769H1126.7v.524a1.013,1.013,0,0,0,.275.738.955.955,0,0,0,.721.284h.664a1.025,1.025,0,0,0,.707-.24.817.817,0,0,0,.271-.642h.611a1.347,1.347,0,0,1-.437,1.044,1.645,1.645,0,0,1-1.152.4h-.664A1.619,1.619,0,0,1,1126.522,1012.025Zm2.821-2.215v-.227a1.141,1.141,0,0,0-.254-.773.844.844,0,0,0-.672-.292h-.716a.922.922,0,0,0-.721.306,1.153,1.153,0,0,0-.275.8v.183Z" transform="translate(-980.669 -1006.201)" fill="#004184"/><path d="M1143.97,1006.22h-.751v-.559h.751v-.341a1.29,1.29,0,0,1,1.441-1.451h.332v.542h-.332a.782.782,0,0,0-.616.223,1.016,1.016,0,0,0-.2.686v.341h1.048v.559H1144.6v3.8h-.629Z" transform="translate(-990.598 -1003.834)" fill="#004184"/><path d="M1150.907,1012a1.634,1.634,0,0,1-.445-1.2v-1.2a1.628,1.628,0,0,1,.449-1.2,1.6,1.6,0,0,1,1.192-.454h.716a1.6,1.6,0,0,1,1.192.454,1.628,1.628,0,0,1,.45,1.2v1.2a1.561,1.561,0,0,1-1.659,1.651h-.716A1.574,1.574,0,0,1,1150.907,1012Zm1.895-.1a.973.973,0,0,0,.751-.3,1.118,1.118,0,0,0,.28-.791v-1.2a1.117,1.117,0,0,0-.28-.791.952.952,0,0,0-.734-.3h-.716a.953.953,0,0,0-.734.3,1.114,1.114,0,0,0-.279.791v1.2a1.133,1.133,0,0,0,.271.8.932.932,0,0,0,.724.3Z" transform="translate(-994.793 -1006.201)" fill="#004184"/><path d="M1162.705,1008.1h.611v.672a1.311,1.311,0,0,1,.529-.5,1.523,1.523,0,0,1,.738-.193h.384v.568h-.384a1.206,1.206,0,0,0-.9.354,1.288,1.288,0,0,0-.345.939v2.516h-.629Z" transform="translate(-1001.884 -1006.273)" fill="#004184"/><path d="M780.956,1028.854h2.969a1.514,1.514,0,0,1,1.078.381,1.305,1.305,0,0,1,.406,1v.637a1.233,1.233,0,0,1-.3.817,1.609,1.609,0,0,1-.794.5v.009a1.4,1.4,0,0,1,.476.446,2.364,2.364,0,0,1,.328.69l.48,1.634h-.664l-.48-1.634a1.4,1.4,0,0,0-.423-.69.984.984,0,0,0-.659-.263H781.6v2.587h-.646Zm2.742,2.953a1.128,1.128,0,0,0,.773-.258.861.861,0,0,0,.292-.677v-.672a.713.713,0,0,0-.236-.56.9.9,0,0,0-.62-.21H781.6v2.377Z" transform="translate(-780.781 -1018.299)" fill="#004184"/><path d="M794.391,1036.927a1.527,1.527,0,0,1-.445-1.149v-1.25a1.666,1.666,0,0,1,.445-1.21,1.569,1.569,0,0,1,1.179-.458h.716a1.492,1.492,0,0,1,1.127.446,1.632,1.632,0,0,1,.428,1.179v.769h-3.266v.524a1.015,1.015,0,0,0,.275.738.957.957,0,0,0,.72.284h.664a1.026,1.026,0,0,0,.707-.24.815.815,0,0,0,.271-.642h.611a1.346,1.346,0,0,1-.436,1.044,1.646,1.646,0,0,1-1.153.4h-.664A1.621,1.621,0,0,1,794.391,1036.927Zm2.821-2.214v-.227a1.14,1.14,0,0,0-.253-.773.845.845,0,0,0-.672-.293h-.716a.923.923,0,0,0-.72.306,1.156,1.156,0,0,0-.275.8v.184Z" transform="translate(-788.305 -1020.619)" fill="#004184"/><path d="M805.677,1036.984a1.289,1.289,0,0,1-.4-.987h.611a.787.787,0,0,0,.236.594.855.855,0,0,0,.62.227h.759a1.11,1.11,0,0,0,.612-.153.458.458,0,0,0,.235-.4v-.3a.4.4,0,0,0-.13-.292.677.677,0,0,0-.341-.171l-1.511-.262a1.345,1.345,0,0,1-.729-.345.841.841,0,0,1-.276-.625v-.288a1,1,0,0,1,.384-.817,1.566,1.566,0,0,1,1.013-.31h.751a1.4,1.4,0,0,1,.987.345,1.183,1.183,0,0,1,.375.913h-.611a.717.717,0,0,0-.214-.519.744.744,0,0,0-.537-.2h-.751a.89.89,0,0,0-.559.162.51.51,0,0,0-.209.424v.253a.393.393,0,0,0,.144.3.692.692,0,0,0,.371.166l1.5.262a1.3,1.3,0,0,1,.7.341.85.85,0,0,1,.266.629v.349a.92.92,0,0,1-.406.778,1.774,1.774,0,0,1-1.07.3h-.759A1.5,1.5,0,0,1,805.677,1036.984Z" transform="translate(-794.867 -1020.619)" fill="#004184"/><path d="M816.636,1036.905a1.635,1.635,0,0,1-.446-1.2v-1.2a1.626,1.626,0,0,1,.45-1.2,1.6,1.6,0,0,1,1.192-.454h.716a1.6,1.6,0,0,1,1.192.454,1.625,1.625,0,0,1,.449,1.2v1.2a1.561,1.561,0,0,1-1.659,1.651h-.716A1.577,1.577,0,0,1,816.636,1036.905Zm1.895-.1a.975.975,0,0,0,.751-.3,1.118,1.118,0,0,0,.279-.791v-1.2a1.116,1.116,0,0,0-.279-.791.953.953,0,0,0-.733-.3h-.716a.953.953,0,0,0-.734.3,1.116,1.116,0,0,0-.279.791v1.2a1.133,1.133,0,0,0,.271.795.933.933,0,0,0,.725.3Z" transform="translate(-801.188 -1020.619)" fill="#004184"/><path d="M828.714,1034.695a1.245,1.245,0,0,1-.279-.913v-4.928h.629v4.928a.7.7,0,0,0,.135.481.571.571,0,0,0,.441.149h.3v.559h-.3A1.287,1.287,0,0,1,828.714,1034.695Z" transform="translate(-808.28 -1018.299)" fill="#004184"/><path d="M834.246,1037.045a1.529,1.529,0,0,1-.375-1.075v-2.944h.629v2.962a1.017,1.017,0,0,0,.2.66.641.641,0,0,0,.524.249h.542a1.06,1.06,0,0,0,.742-.324,1.485,1.485,0,0,0,.436-.812v-2.735h.629v4.36h-.611v-.664a1.7,1.7,0,0,1-.533.524,1.21,1.21,0,0,1-.646.21h-.559A1.264,1.264,0,0,1,834.246,1037.045Z" transform="translate(-811.429 -1020.715)" fill="#004184"/><path d="M846.063,1035.274a1.337,1.337,0,0,1-.3-.979v-2.525h-.768v-.559h.768v-1.32h.629v1.32h1.135v.559H846.39v2.525a.8.8,0,0,0,.153.55.668.668,0,0,0,.511.167h.471v.559h-.471A1.38,1.38,0,0,1,846.063,1035.274Z" transform="translate(-817.87 -1018.901)" fill="#004184"/><path d="M853.881,1030.041a.508.508,0,1,1,.34.131A.462.462,0,0,1,853.881,1030.041Zm.026.786h.629v4.36h-.629Z" transform="translate(-822.942 -1018.516)" fill="#004184"/><path d="M859.175,1036.905a1.637,1.637,0,0,1-.445-1.2v-1.2a1.626,1.626,0,0,1,.45-1.2,1.6,1.6,0,0,1,1.192-.454h.716a1.6,1.6,0,0,1,1.192.454,1.628,1.628,0,0,1,.449,1.2v1.2a1.561,1.561,0,0,1-1.659,1.651h-.716A1.578,1.578,0,0,1,859.175,1036.905Zm1.9-.1a.975.975,0,0,0,.751-.3,1.117,1.117,0,0,0,.279-.791v-1.2a1.116,1.116,0,0,0-.279-.791.954.954,0,0,0-.733-.3h-.716a.953.953,0,0,0-.734.3,1.114,1.114,0,0,0-.279.791v1.2a1.133,1.133,0,0,0,.27.795.933.933,0,0,0,.725.3Z" transform="translate(-825.827 -1020.619)" fill="#004184"/><path d="M870.974,1032.93h.611v.646a1.637,1.637,0,0,1,.524-.515,1.213,1.213,0,0,1,.647-.2h.594a1.252,1.252,0,0,1,.974.411,1.541,1.541,0,0,1,.371,1.074v2.945h-.629v-2.962a1.023,1.023,0,0,0-.2-.655.645.645,0,0,0-.533-.254h-.559a1.054,1.054,0,0,0-.746.323,1.455,1.455,0,0,0-.423.83v2.717h-.629Z" transform="translate(-832.918 -1020.619)" fill="#004184"/><path d="M887.4,1036.905a1.637,1.637,0,0,1-.445-1.2v-1.2a1.626,1.626,0,0,1,.45-1.2,1.6,1.6,0,0,1,1.192-.454h.716a1.6,1.6,0,0,1,1.192.454,1.627,1.627,0,0,1,.449,1.2v1.2a1.561,1.561,0,0,1-1.659,1.651h-.716A1.577,1.577,0,0,1,887.4,1036.905Zm1.9-.1a.975.975,0,0,0,.751-.3,1.12,1.12,0,0,0,.279-.791v-1.2a1.118,1.118,0,0,0-.279-.791.955.955,0,0,0-.734-.3h-.716a.955.955,0,0,0-.734.3,1.116,1.116,0,0,0-.279.791v1.2a1.134,1.134,0,0,0,.271.795.933.933,0,0,0,.725.3Z" transform="translate(-842.171 -1020.619)" fill="#004184"/><path d="M899.072,1031.121h-.751v-.559h.751v-.341a1.29,1.29,0,0,1,1.441-1.451h.332v.542h-.332a.779.779,0,0,0-.616.223,1.013,1.013,0,0,0-.2.686v.341h1.048v.559H899.7v3.8h-.629Z" transform="translate(-848.757 -1018.251)" fill="#004184"/><path d="M911.656,1034.664a1.878,1.878,0,0,1-.7-.782,2.569,2.569,0,0,1-.249-1.157v-1.817a2.6,2.6,0,0,1,.249-1.162,1.82,1.82,0,0,1,.707-.782,2.023,2.023,0,0,1,1.061-.276h.925a2,2,0,0,1,1,.245,1.705,1.705,0,0,1,.672.69,2.12,2.12,0,0,1,.24,1.023h-.629a1.409,1.409,0,0,0-.354-1,1.21,1.21,0,0,0-.93-.38h-.925a1.233,1.233,0,0,0-1,.45,1.8,1.8,0,0,0-.375,1.193v1.817a1.829,1.829,0,0,0,.366,1.192,1.189,1.189,0,0,0,.97.45h.943a1.2,1.2,0,0,0,.956-.42,1.626,1.626,0,0,0,.362-1.1h.629a2.364,2.364,0,0,1-.245,1.1,1.789,1.789,0,0,1-.685.738,1.952,1.952,0,0,1-1.017.262h-.943A1.916,1.916,0,0,1,911.656,1034.664Z" transform="translate(-855.931 -1018.203)" fill="#004184"/><path d="M924.766,1036.905a1.637,1.637,0,0,1-.445-1.2v-1.2a1.626,1.626,0,0,1,.45-1.2,1.6,1.6,0,0,1,1.192-.454h.716a1.6,1.6,0,0,1,1.192.454,1.627,1.627,0,0,1,.449,1.2v1.2a1.561,1.561,0,0,1-1.659,1.651h-.716A1.578,1.578,0,0,1,924.766,1036.905Zm1.9-.1a.975.975,0,0,0,.751-.3,1.12,1.12,0,0,0,.279-.791v-1.2a1.118,1.118,0,0,0-.279-.791.954.954,0,0,0-.733-.3h-.716a.954.954,0,0,0-.734.3,1.116,1.116,0,0,0-.28.791v1.2a1.133,1.133,0,0,0,.271.795.933.933,0,0,0,.725.3Z" transform="translate(-863.816 -1020.619)" fill="#004184"/><path d="M942.252,1033.231a1.473,1.473,0,0,1,.336,1.026v3.032h-.629v-3.049a.939.939,0,0,0-.175-.6.563.563,0,0,0-.463-.219h-.5a.823.823,0,0,0-.62.254,1.274,1.274,0,0,0-.314.716v2.9h-.629v-3a1.107,1.107,0,0,0-.162-.642.51.51,0,0,0-.441-.232h-.5a.81.81,0,0,0-.629.315,1.55,1.55,0,0,0-.34.822v2.734h-.629v-4.36h.612v.629a1.416,1.416,0,0,1,.436-.516.943.943,0,0,1,.55-.183h.515a1.06,1.06,0,0,1,1.039.7,1.454,1.454,0,0,1,.48-.524,1.13,1.13,0,0,1,.611-.175h.533A1.169,1.169,0,0,1,942.252,1033.231Z" transform="translate(-870.906 -1020.619)" fill="#004184"/><path d="M953.912,1032.93h.611v.594a1.449,1.449,0,0,1,.485-.48,1.156,1.156,0,0,1,.607-.183h.629a1.506,1.506,0,0,1,1.131.446,1.623,1.623,0,0,1,.432,1.179v1.074a1.887,1.887,0,0,1-.441,1.306,1.487,1.487,0,0,1-1.166.494h-.629a1.236,1.236,0,0,1-.567-.153,1.216,1.216,0,0,1-.463-.4v2.219h-.629Zm2.271,3.87a.877.877,0,0,0,.724-.341,1.4,1.4,0,0,0,.271-.9v-1.074a1.115,1.115,0,0,0-.262-.773.881.881,0,0,0-.69-.293h-.612a.939.939,0,0,0-.664.284,1.5,1.5,0,0,0-.41.729v1.311a1.275,1.275,0,0,0,.358.76.965.965,0,0,0,.707.3Z" transform="translate(-880.954 -1020.619)" fill="#004184"/><path d="M965.936,1036.927a1.527,1.527,0,0,1-.445-1.149v-1.25a1.666,1.666,0,0,1,.445-1.21,1.568,1.568,0,0,1,1.179-.458h.716a1.491,1.491,0,0,1,1.126.446,1.631,1.631,0,0,1,.428,1.179v.769H966.12v.524a1.015,1.015,0,0,0,.275.738.958.958,0,0,0,.721.284h.664a1.026,1.026,0,0,0,.707-.24.815.815,0,0,0,.271-.642h.611a1.345,1.345,0,0,1-.436,1.044,1.646,1.646,0,0,1-1.153.4h-.664A1.62,1.62,0,0,1,965.936,1036.927Zm2.821-2.214v-.227a1.14,1.14,0,0,0-.253-.773.845.845,0,0,0-.672-.293h-.716a.923.923,0,0,0-.721.306,1.155,1.155,0,0,0-.275.8v.184Z" transform="translate(-887.661 -1020.619)" fill="#004184"/><path d="M977.476,1035.274a1.337,1.337,0,0,1-.3-.979v-2.525h-.768v-.559h.768v-1.32h.629v1.32h1.135v.559H977.8v2.525a.8.8,0,0,0,.152.55.668.668,0,0,0,.511.167h.471v.559h-.471A1.38,1.38,0,0,1,977.476,1035.274Z" transform="translate(-893.983 -1018.901)" fill="#004184"/><path d="M985.294,1030.041a.508.508,0,1,1,.34.131A.462.462,0,0,1,985.294,1030.041Zm.026.786h.629v4.36h-.629Z" transform="translate(-899.054 -1018.516)" fill="#004184"/><path d="M990.8,1035.274a1.337,1.337,0,0,1-.3-.979v-2.525h-.769v-.559h.769v-1.32h.629v1.32h1.135v.559h-1.135v2.525a.8.8,0,0,0,.153.55.667.667,0,0,0,.511.167h.472v.559h-.472A1.379,1.379,0,0,1,990.8,1035.274Z" transform="translate(-901.698 -1018.901)" fill="#004184"/><path d="M998.615,1030.041a.508.508,0,1,1,.34.131A.461.461,0,0,1,998.615,1030.041Zm.026.786h.629v4.36h-.629Z" transform="translate(-906.77 -1018.516)" fill="#004184"/><path d="M1003.91,1036.905a1.635,1.635,0,0,1-.445-1.2v-1.2a1.626,1.626,0,0,1,.45-1.2,1.6,1.6,0,0,1,1.192-.454h.716a1.6,1.6,0,0,1,1.192.454,1.626,1.626,0,0,1,.45,1.2v1.2a1.561,1.561,0,0,1-1.659,1.651h-.716A1.578,1.578,0,0,1,1003.91,1036.905Zm1.9-.1a.976.976,0,0,0,.751-.3,1.118,1.118,0,0,0,.279-.791v-1.2a1.116,1.116,0,0,0-.279-.791.954.954,0,0,0-.733-.3h-.716a.953.953,0,0,0-.733.3,1.118,1.118,0,0,0-.279.791v1.2a1.134,1.134,0,0,0,.271.795.932.932,0,0,0,.725.3Z" transform="translate(-909.654 -1020.619)" fill="#004184"/><path d="M1015.708,1032.93h.612v.646a1.634,1.634,0,0,1,.524-.515,1.214,1.214,0,0,1,.646-.2h.594a1.25,1.25,0,0,1,.973.411,1.541,1.541,0,0,1,.371,1.074v2.945h-.629v-2.962a1.022,1.022,0,0,0-.2-.655.644.644,0,0,0-.532-.254h-.559a1.054,1.054,0,0,0-.747.323,1.462,1.462,0,0,0-.424.83v2.717h-.629Z" transform="translate(-916.745 -1020.619)" fill="#004184"/><path d="M1032.331,1034.822a.567.567,0,0,1-.148-.419v-5.548h.646v5.54h3.318v.577h-3.4A.567.567,0,0,1,1032.331,1034.822Z" transform="translate(-926.288 -1018.299)" fill="#004184"/><path d="M1043.769,1037.028a1.125,1.125,0,0,1-.38-.892v-.28a1.1,1.1,0,0,1,.392-.882,1.555,1.555,0,0,1,1.04-.332h.559a2.166,2.166,0,0,1,.594.088,1.793,1.793,0,0,1,.523.236v-.725a.817.817,0,0,0-.227-.6.8.8,0,0,0-.6-.232h-.7a.961.961,0,0,0-.6.175.556.556,0,0,0-.227.463h-.629a1.057,1.057,0,0,1,.4-.861,1.619,1.619,0,0,1,1.057-.327h.7a1.448,1.448,0,0,1,1.043.38,1.321,1.321,0,0,1,.4,1v3.049h-.594v-.611a1.469,1.469,0,0,1-.528.5,1.372,1.372,0,0,1-.677.183h-.524A1.492,1.492,0,0,1,1043.769,1037.028Zm1.559-.219a1.156,1.156,0,0,0,.734-.253,1.237,1.237,0,0,0,.436-.672v-.324a1.26,1.26,0,0,0-.484-.266,2.046,2.046,0,0,0-.633-.1h-.559a.885.885,0,0,0-.581.184.593.593,0,0,0-.222.48v.28a.618.618,0,0,0,.21.49.816.816,0,0,0,.559.183Z" transform="translate(-932.778 -1020.619)" fill="#004184"/><path d="M1060.1,1033.026l-.943,3.853a.847.847,0,0,1-.193.384.447.447,0,0,1-.331.122h-.3l-1.092-3.294-1.126,3.294h-.3a.468.468,0,0,1-.332-.122.745.745,0,0,1-.192-.384l-.952-3.853h.664l.812,3.661,1.179-3.539h.227a.342.342,0,0,1,.34.28l1.066,3.233.8-3.634Z" transform="translate(-939.123 -1020.715)" fill="#004184"/><path d="M1075.938,1034.874a.754.754,0,0,1-.188-.305l-2.087-5.715h.664l1.9,5.339h.009l1.912-5.339h.664l-2.27,6.117h-.332A.4.4,0,0,1,1075.938,1034.874Z" transform="translate(-950.312 -1018.299)" fill="#004184"/><path d="M1088.07,1030.041a.508.508,0,1,1,.341.131A.463.463,0,0,1,1088.07,1030.041Zm.026.786h.629v4.36h-.629Z" transform="translate(-958.581 -1018.516)" fill="#004184"/><path d="M1093.365,1036.905a1.635,1.635,0,0,1-.445-1.2v-1.2a1.626,1.626,0,0,1,.449-1.2,1.6,1.6,0,0,1,1.192-.454h.716a1.6,1.6,0,0,1,1.192.454,1.628,1.628,0,0,1,.45,1.2v1.2a1.561,1.561,0,0,1-1.659,1.651h-.716A1.576,1.576,0,0,1,1093.365,1036.905Zm1.9-.1a.976.976,0,0,0,.751-.3,1.119,1.119,0,0,0,.279-.791v-1.2a1.118,1.118,0,0,0-.279-.791.956.956,0,0,0-.734-.3h-.716a.954.954,0,0,0-.733.3,1.117,1.117,0,0,0-.279.791v1.2a1.134,1.134,0,0,0,.271.795.933.933,0,0,0,.725.3Z" transform="translate(-961.465 -1020.619)" fill="#004184"/><path d="M1105.442,1034.695a1.248,1.248,0,0,1-.28-.913v-4.928h.629v4.928a.7.7,0,0,0,.136.481.57.57,0,0,0,.441.149h.3v.559h-.3A1.288,1.288,0,0,1,1105.442,1034.695Z" transform="translate(-968.556 -1018.299)" fill="#004184"/><path d="M1110.772,1037.028a1.124,1.124,0,0,1-.38-.892v-.28a1.1,1.1,0,0,1,.393-.882,1.555,1.555,0,0,1,1.039-.332h.559a2.158,2.158,0,0,1,.594.088,1.793,1.793,0,0,1,.524.236v-.725a.817.817,0,0,0-.227-.6.8.8,0,0,0-.6-.232h-.7a.96.96,0,0,0-.6.175.555.555,0,0,0-.227.463h-.629a1.058,1.058,0,0,1,.4-.861,1.621,1.621,0,0,1,1.056-.327h.7a1.449,1.449,0,0,1,1.044.38,1.322,1.322,0,0,1,.4,1v3.049h-.594v-.611a1.468,1.468,0,0,1-.528.5,1.37,1.37,0,0,1-.677.183h-.524A1.491,1.491,0,0,1,1110.772,1037.028Zm1.559-.219a1.158,1.158,0,0,0,.733-.253,1.241,1.241,0,0,0,.437-.672v-.324a1.268,1.268,0,0,0-.484-.266,2.046,2.046,0,0,0-.633-.1h-.559a.885.885,0,0,0-.58.184.594.594,0,0,0-.223.48v.28a.618.618,0,0,0,.209.49.817.817,0,0,0,.559.183Z" transform="translate(-971.585 -1020.619)" fill="#004184"/><path d="M1122.5,1035.274a1.336,1.336,0,0,1-.3-.979v-2.525h-.768v-.559h.768v-1.32h.629v1.32h1.135v.559h-1.135v2.525a.8.8,0,0,0,.152.55.669.669,0,0,0,.511.167h.472v.559h-.472A1.379,1.379,0,0,1,1122.5,1035.274Z" transform="translate(-977.979 -1018.901)" fill="#004184"/><path d="M1130.319,1030.041a.507.507,0,1,1,.341.131A.462.462,0,0,1,1130.319,1030.041Zm.026.786h.629v4.36h-.629Z" transform="translate(-983.05 -1018.516)" fill="#004184"/><path d="M1135.614,1036.905a1.635,1.635,0,0,1-.446-1.2v-1.2a1.626,1.626,0,0,1,.449-1.2,1.6,1.6,0,0,1,1.192-.454h.716a1.6,1.6,0,0,1,1.192.454,1.628,1.628,0,0,1,.449,1.2v1.2a1.561,1.561,0,0,1-1.659,1.651h-.716A1.575,1.575,0,0,1,1135.614,1036.905Zm1.895-.1a.975.975,0,0,0,.751-.3,1.119,1.119,0,0,0,.28-.791v-1.2a1.117,1.117,0,0,0-.28-.791.954.954,0,0,0-.733-.3h-.716a.954.954,0,0,0-.734.3,1.116,1.116,0,0,0-.28.791v1.2a1.131,1.131,0,0,0,.271.795.931.931,0,0,0,.724.3Z" transform="translate(-985.935 -1020.619)" fill="#004184"/><path d="M1147.411,1032.93h.611v.646a1.644,1.644,0,0,1,.524-.515,1.215,1.215,0,0,1,.647-.2h.594a1.251,1.251,0,0,1,.974.411,1.542,1.542,0,0,1,.371,1.074v2.945h-.629v-2.962a1.021,1.021,0,0,0-.2-.655.645.645,0,0,0-.532-.254h-.559a1.054,1.054,0,0,0-.747.323,1.462,1.462,0,0,0-.423.83v2.717h-.629Z" transform="translate(-993.025 -1020.619)" fill="#004184"/><path d="M1159.143,1036.984a1.29,1.29,0,0,1-.4-.987h.611a.787.787,0,0,0,.236.594.855.855,0,0,0,.62.227h.76a1.1,1.1,0,0,0,.611-.153.458.458,0,0,0,.236-.4v-.3a.4.4,0,0,0-.131-.292.673.673,0,0,0-.34-.171l-1.511-.262a1.347,1.347,0,0,1-.729-.345.842.842,0,0,1-.275-.625v-.288a1,1,0,0,1,.384-.817,1.565,1.565,0,0,1,1.013-.31h.751a1.4,1.4,0,0,1,.986.345,1.182,1.182,0,0,1,.376.913h-.611a.718.718,0,0,0-.214-.519.744.744,0,0,0-.537-.2h-.751a.89.89,0,0,0-.559.162.51.51,0,0,0-.21.424v.253a.394.394,0,0,0,.144.3.692.692,0,0,0,.371.166l1.5.262a1.3,1.3,0,0,1,.7.341.85.85,0,0,1,.266.629v.349a.92.92,0,0,1-.406.778,1.775,1.775,0,0,1-1.07.3h-.76A1.5,1.5,0,0,1,1159.143,1036.984Z" transform="translate(-999.588 -1020.619)" fill="#004184"/></g><g transform="translate(0 18.993)"><path d="M784.043,927.857H785.8v8.012h1.319v1.386h-1.386a3.209,3.209,0,0,1-3.517,3.066c-2.118,0-3.424-1.12-3.424-3.786a9.766,9.766,0,0,1,.306-2.386l1.825-.333a9.16,9.16,0,0,0-.373,2.559c0,2.04.88,2.573,1.812,2.573.986,0,1.679-.613,1.679-2.573Z" transform="translate(-778.753 -926.671)" fill="#004184"/><path d="M798.1,946.886h1.612v1.386H798.1Z" transform="translate(-789.935 -937.688)" fill="#004184"/><path d="M801.456,946.886h1.612v1.386h-1.612Z" transform="translate(-791.879 -937.688)" fill="#004184"/><path d="M803.71,941.325c-.266,0-.8-.267-.8-.693s.533-.693.8-.693h1.572v-4.879h1.759v.333a11.351,11.351,0,0,1-.16,1.973h.026a3.6,3.6,0,0,1,3.371-2.479c1.852,0,2.811,1.147,2.811,3.026a3.42,3.42,0,0,1-.573,2.026h1.439v1.387H803.71Zm5.463-1.387c1.666,0,2.118-.84,2.118-1.92s-.439-1.732-1.372-1.732c-1.439,0-2.625,1.773-2.891,3.652Z" transform="translate(-792.721 -930.74)" fill="#004184"/><path d="M827.578,937.842c-.266,0-.8-.266-.8-.693s.533-.693.8-.693h.8a5.959,5.959,0,0,1,.826.066,2.485,2.485,0,0,1-.626-1.8,3.22,3.22,0,0,1,3.4-3.319,2.793,2.793,0,0,1,3.091,3.106,2.7,2.7,0,0,1-.773,2.013s.56-.066,1.026-.066h.573v1.386Zm5.729-3.24c0-1.173-.466-1.812-1.466-1.812-.76,0-1.492.533-1.492,1.786s.493,1.88,1.466,1.88C832.654,936.455,833.307,935.842,833.307,934.6Zm-1.452-5.732a.92.92,0,1,1-.92.919A.939.939,0,0,1,831.855,928.87Z" transform="translate(-806.545 -927.257)" fill="#004184"/><path d="M846.855,937.255c-.266,0-.8-.266-.8-.693s.533-.693.8-.693h1.572v-8.012h1.759v9.4Z" transform="translate(-817.71 -926.671)" fill="#004184"/><path d="M860.934,927.857h1.758v9.4h-1.758Z" transform="translate(-826.327 -926.671)" fill="#004184"/><path d="M883.756,937.933c-2.585,0-3.558-1.2-3.558-3.093a3.206,3.206,0,0,1,3.518-3.346,8.6,8.6,0,0,1,2.8.466v4.586h1.373v1.386Zm-1.265-8.905a.866.866,0,1,1-.867.867A.874.874,0,0,1,882.49,929.028Zm2.318,4.093a3.209,3.209,0,0,0-1.265-.24,1.6,1.6,0,0,0-1.586,1.8c0,1.213.6,1.866,2,1.866h.852Zm-.186-4.093a.866.866,0,1,1,0,1.733.864.864,0,0,1-.866-.866A.873.873,0,0,1,884.622,929.028Z" transform="translate(-837.485 -927.349)" fill="#004184"/><path d="M897.987,946.886H899.6v1.386h-1.612Z" transform="translate(-847.788 -937.688)" fill="#004184"/><path d="M901.343,946.886h1.612v1.386h-1.612Z" transform="translate(-849.731 -937.688)" fill="#004184"/><path d="M902.8,937.222c0-.413.533-.693.8-.693h1.573V931.65h1.759v4.879H908.3v1.386h-4.7C903.331,937.915,902.8,937.649,902.8,937.222ZM906.049,929a.92.92,0,1,1-.919.92A.93.93,0,0,1,906.049,929Z" transform="translate(-850.574 -927.33)" fill="#004184"/><path d="M913.5,940.759c0-.413.533-.693.8-.693h4.65a8.431,8.431,0,0,0,.067-1.014c0-1.693-.693-2.559-2.6-2.559a8.982,8.982,0,0,0-1.492.134v-1.373a9.263,9.263,0,0,1,1.652-.147c3,0,4.184,1.32,4.184,3.879a10.641,10.641,0,0,1-.053,1.08h.839v1.386H914.3C914.03,941.453,913.5,941.186,913.5,940.759Zm3.464,1.586a.907.907,0,1,1-.906.906A.883.883,0,0,1,916.961,942.346Z" transform="translate(-856.771 -930.868)" fill="#004184"/><path d="M930.242,937.111c0-.413.533-.693.8-.693h1.572v-7.612h1.759v7.612h1.372V937.8h-4.7C930.775,937.8,930.242,937.538,930.242,937.111Z" transform="translate(-866.469 -927.22)" fill="#004184"/><path d="M941.74,937.255c-.267,0-.8-.266-.8-.693s.533-.693.8-.693h1.572v-8.012h1.759v9.4Z" transform="translate(-872.666 -926.671)" fill="#004184"/><path d="M969.367,937.933c-2.585,0-3.558-1.2-3.558-3.093a3.206,3.206,0,0,1,3.518-3.346,8.593,8.593,0,0,1,2.8.466v4.586H973.5v1.386Zm-1.266-8.905a.866.866,0,1,1-.867.867A.874.874,0,0,1,968.1,929.028Zm2.318,4.093a3.21,3.21,0,0,0-1.266-.24,1.6,1.6,0,0,0-1.586,1.8c0,1.213.6,1.866,2,1.866h.853Zm-.187-4.093a.866.866,0,1,1,0,1.733.864.864,0,0,1-.865-.866A.873.873,0,0,1,970.232,929.028Z" transform="translate(-887.069 -927.349)" fill="#004184"/><path d="M983.6,946.886h1.612v1.386H983.6Z" transform="translate(-897.372 -937.688)" fill="#004184"/><path d="M986.953,946.886h1.612v1.386h-1.612Z" transform="translate(-899.315 -937.688)" fill="#004184"/><path d="M990.308,946.886h1.612v1.386h-1.612Z" transform="translate(-901.258 -937.688)" fill="#004184"/><path d="M992.563,941.325c-.267,0-.8-.267-.8-.693s.532-.693.8-.693h1.026a2.585,2.585,0,0,1,.746.093,2.168,2.168,0,0,1-.746-1.906,3.182,3.182,0,0,1,3.464-3.239,2.728,2.728,0,0,1,3.011,3.066v3.373Zm5.782-3.16c0-1.333-.533-1.893-1.425-1.893a1.6,1.6,0,0,0-1.586,1.8c0,1.253.613,1.866,2,1.866h1.012Z" transform="translate(-902.102 -930.74)" fill="#004184"/><path d="M1016.043,927.857h1.759v8.012h1.372v1.386h-3.131Z" transform="translate(-916.164 -926.671)" fill="#004184"/><path d="M1021.906,941.27c-.266,0-.8-.267-.8-.693s.533-.693.8-.693h.387a10.14,10.14,0,0,0,3.117-.414,6.921,6.921,0,0,0-2.8-1.946l.146-1.253a7.2,7.2,0,0,1,3.851-1.479c1.985,0,2.8,1.026,2.8,2.186a3.409,3.409,0,0,1-1.359,2.56,3.31,3.31,0,0,0,1.479.347h.693v1.387h-.893a4.716,4.716,0,0,1-2.731-.827,10.725,10.725,0,0,1-4.37.827Zm4.93-2.546a1.947,1.947,0,0,0,.839-1.52,1.108,1.108,0,0,0-1.266-1.119,4.112,4.112,0,0,0-2.025.8A10.177,10.177,0,0,1,1026.836,938.723Z" transform="translate(-919.096 -930.685)" fill="#004184"/><path d="M1041.183,937.255c-.266,0-.8-.266-.8-.693s.533-.693.8-.693h1.573v-8.012h1.759v9.4Z" transform="translate(-930.261 -926.671)" fill="#004184"/><path d="M1055.262,927.857h1.759v9.4h-1.759Z" transform="translate(-938.878 -926.671)" fill="#004184"/><path d="M1078.083,937.933c-2.584,0-3.557-1.2-3.557-3.093a3.206,3.206,0,0,1,3.518-3.346,8.6,8.6,0,0,1,2.8.466v4.586h1.372v1.386Zm-1.266-8.905a.866.866,0,1,1-.866.867A.873.873,0,0,1,1076.818,929.028Zm2.318,4.093a3.209,3.209,0,0,0-1.265-.24,1.6,1.6,0,0,0-1.586,1.8c0,1.213.6,1.866,2,1.866h.853Zm-.186-4.093a.866.866,0,0,1,0,1.733.865.865,0,0,1-.866-.866A.873.873,0,0,1,1078.95,929.028Z" transform="translate(-950.036 -927.349)" fill="#004184"/><path d="M1092.315,946.886h1.612v1.386h-1.612Z" transform="translate(-960.339 -937.688)" fill="#004184"/><path d="M1095.67,946.886h1.612v1.386h-1.612Z" transform="translate(-962.282 -937.688)" fill="#004184"/><path d="M1099.025,946.886h1.612v1.386h-1.612Z" transform="translate(-964.225 -937.688)" fill="#004184"/><path d="M1101.279,937.915c-.266,0-.8-.267-.8-.693s.533-.693.8-.693h1.572V931.65h1.759v6.265Zm2.452-8.918a.92.92,0,1,1-.92.92A.93.93,0,0,1,1103.731,929Z" transform="translate(-965.068 -927.33)" fill="#004184"/><path d="M1115.358,927.857h1.759v8.012h1.373v1.386h-3.132Z" transform="translate(-973.685 -926.671)" fill="#004184"/><path d="M1121.221,941.325c-.266,0-.8-.267-.8-.693s.533-.693.8-.693h1.026a2.586,2.586,0,0,1,.746.093,2.167,2.167,0,0,1-.746-1.906,3.182,3.182,0,0,1,3.464-3.239,2.728,2.728,0,0,1,3.011,3.066v3.373Zm5.783-3.16c0-1.333-.533-1.893-1.426-1.893a1.6,1.6,0,0,0-1.586,1.8c0,1.253.613,1.866,2,1.866H1127Z" transform="translate(-976.618 -930.74)" fill="#004184"/><path d="M1142.612,926.785a3.911,3.911,0,0,1,.706.04.57.57,0,0,1-.24-.506c0-.627.559-1.28,1.852-1.28a5.033,5.033,0,0,1,.786.08l-.173.893a3.208,3.208,0,0,0-.707-.079c-.413,0-.613.173-.613.4,0,.293.213.453.892.453h.84v.907h-3.344Zm4.117,6.452h-1.8l-1.439-4.972h1.8Zm-3.144,2.386v-1.386h4.1v-8.012h1.758v9.4Z" transform="translate(-989.47 -925.039)" fill="#004184"/><path d="M1163.948,927.857h1.759v9.4h-1.759Z" transform="translate(-1001.828 -926.671)" fill="#004184"/><path d="M782.255,975.918c-2.585,0-3.557-1.2-3.557-3.093a3.206,3.206,0,0,1,3.518-3.346,8.593,8.593,0,0,1,2.8.467v4.586h1.373v1.387Zm-1.265-8.905a.867.867,0,1,1-.866.867A.874.874,0,0,1,780.989,967.013Zm2.318,4.093a3.212,3.212,0,0,0-1.265-.24,1.6,1.6,0,0,0-1.586,1.8c0,1.213.6,1.866,2,1.866h.853Zm-.186-4.093a.867.867,0,1,1-.866.867A.873.873,0,0,1,783.121,967.013Z" transform="translate(-778.697 -949.341)" fill="#004184"/><path d="M796.486,984.871H798.1v1.386h-1.612Z" transform="translate(-789 -959.68)" fill="#004184"/><path d="M796.486,984.871H798.1v1.386h-1.612Z" transform="translate(-789 -959.68)" fill="#004184"/><path d="M804.777,977.895a2.1,2.1,0,0,1-2.012,1.026,1.769,1.769,0,0,1-1.785-1.04,1.678,1.678,0,0,1-1.772.933h-.466c-.267,0-.8-.267-.8-.693s.533-.693.8-.693h.479c.867,0,1.2-.346,1.2-1.653v-2.426h1.759v2.466c0,1.2.133,1.72.919,1.72.693,0,1.079-.414,1.079-1.707v-3.012h1.692v3.346c0,1.053.36,1.266,1.586,1.266h.359c.053-.533.08-1.186.08-1.6a16.584,16.584,0,0,0-.386-3.572l1.719-.24a16.459,16.459,0,0,1,.426,3.693c0,.533-.013,1.133-.053,1.719h1.346v1.386h-3.678C805.87,978.815,805.164,978.628,804.777,977.895Z" transform="translate(-789.844 -952.237)" fill="#004184"/><path d="M827.261,975.9c-.266,0-.8-.266-.8-.693s.533-.693.8-.693h1.026a2.576,2.576,0,0,1,.746.093,2.169,2.169,0,0,1-.746-1.906,3.182,3.182,0,0,1,3.464-3.239,2.728,2.728,0,0,1,3.011,3.066V975.9Zm5.783-3.159c0-1.333-.533-1.893-1.426-1.893a1.6,1.6,0,0,0-1.586,1.8c0,1.253.613,1.866,2,1.866h1.013Zm-1.466-5.759a.92.92,0,1,1-.919.92A.93.93,0,0,1,831.578,966.982Z" transform="translate(-806.362 -949.323)" fill="#004184"/><path d="M850.742,965.843H852.5v8.011h1.372v1.386h-3.131Z" transform="translate(-820.424 -948.663)" fill="#004184"/><path d="M855.806,975.207c0-.413.532-.693.8-.693h1.572v-4.879h1.759v4.879h1.373V975.9h-4.7C856.338,975.9,855.806,975.634,855.806,975.207Zm3.251-8.225a.92.92,0,1,1-.919.92A.931.931,0,0,1,859.057,966.982Z" transform="translate(-823.357 -949.323)" fill="#004184"/><path d="M869.476,978.283c-.24.613-.773,1.026-1.892,1.026h-.28c-.266,0-.8-.267-.8-.693s.533-.693.8-.693h.093c.8,0,1.319-.44,1.319-1.813a3.182,3.182,0,0,1,3.464-3.24,2.729,2.729,0,0,1,3.011,3.066v1.986h1.066v1.386h-3.8C870.542,979.31,869.942,978.9,869.476,978.283Zm4-2.133c0-1.333-.533-1.893-1.425-1.893a1.6,1.6,0,0,0-1.586,1.8c0,1.253.613,1.866,2,1.866h1.012Z" transform="translate(-829.554 -952.732)" fill="#004184"/><path d="M888.1,975.241c-.267,0-.8-.267-.8-.693s.532-.693.8-.693h1.572v-8.011h1.759v9.4Z" transform="translate(-841.599 -948.663)" fill="#004184"/><path d="M902.18,965.843h1.759v9.4H902.18Z" transform="translate(-850.216 -948.663)" fill="#004184"/><path d="M923.631,979.31c-2.345,0-3.344-1-3.518-2.586h-.293c-.773,0-.986.44-.786,1.693l.693,4.359h-1.706l-.666-4.226c-.293-1.893.386-3.213,2.519-3.213h.319a3.16,3.16,0,0,1,3.345-2.466,2.723,2.723,0,0,1,3.011,3.066v3.373Zm1.212-3.159c0-1.333-.533-1.893-1.425-1.893a1.6,1.6,0,0,0-1.586,1.8c0,1.253.613,1.866,2,1.866h1.013Z" transform="translate(-858.968 -952.732)" fill="#004184"/><path d="M943.876,965.843h1.759v8.011h1.372v1.386h-3.131Z" transform="translate(-874.366 -948.663)" fill="#004184"/><path d="M950.839,984.871h1.612v1.386h-1.612Z" transform="translate(-878.398 -959.68)" fill="#004184"/><path d="M950.839,984.871h1.612v1.386h-1.612Z" transform="translate(-878.398 -959.68)" fill="#004184"/><path d="M953.093,975.241c-.266,0-.8-.267-.8-.693s.533-.693.8-.693h1.573v-8.011h1.759v3.466a11.314,11.314,0,0,1-.16,1.973h.027a3.6,3.6,0,0,1,3.371-2.48c1.852,0,2.811,1.147,2.811,3.026a3.418,3.418,0,0,1-.573,2.026h1.439v1.386Zm5.463-1.386c1.666,0,2.118-.84,2.118-1.92s-.439-1.733-1.372-1.733c-1.439,0-2.625,1.773-2.891,3.652Zm.839-7.532a.92.92,0,1,1-.919.92A.93.93,0,0,1,959.4,966.323Z" transform="translate(-879.241 -948.663)" fill="#004184"/><path d="M976.961,975.9c-.266,0-.8-.266-.8-.693s.533-.693.8-.693h1.572v-4.879h1.759V975.9Zm2.452-8.918a.92.92,0,1,1-.919.92A.93.93,0,0,1,979.412,966.982Z" transform="translate(-893.065 -949.323)" fill="#004184"/><path d="M1002.014,975.918c-3.624,0-4.89-1.507-4.89-3.946a6.689,6.689,0,0,1,.346-2.093l1.892-.307a5.564,5.564,0,0,0-.466,2.2c0,1.879.813,2.759,3.318,2.759h1.8v-4.879h1.759v6.265Zm-1.266-8.905a.867.867,0,1,1-.866.867A.873.873,0,0,1,1000.748,967.013Zm2.132,0a.867.867,0,1,1-.866.867A.873.873,0,0,1,1002.88,967.013Z" transform="translate(-905.206 -949.341)" fill="#004184"/><path d="M1022.765,965.843h1.759v8.011h1.372v1.386h-3.131Z" transform="translate(-920.057 -948.663)" fill="#004184"/><path d="M1029.728,984.871h1.612v1.386h-1.612Z" transform="translate(-924.09 -959.68)" fill="#004184"/><path d="M1029.728,984.871h1.612v1.386h-1.612Z" transform="translate(-924.09 -959.68)" fill="#004184"/><path d="M1031.982,975.827c-.266,0-.8-.266-.8-.693s.533-.693.8-.693h.8a5.954,5.954,0,0,1,.826.066,2.484,2.484,0,0,1-.626-1.8,3.219,3.219,0,0,1,3.4-3.319,2.793,2.793,0,0,1,3.091,3.106,2.7,2.7,0,0,1-.773,2.012s.56-.066,1.026-.066h.573v1.386Zm5.73-3.239c0-1.173-.466-1.813-1.466-1.813-.76,0-1.492.533-1.492,1.786s.493,1.879,1.466,1.879C1037.059,974.44,1037.712,973.827,1037.712,972.587Zm-1.452-5.732a.92.92,0,1,1-.919.92A.93.93,0,0,1,1036.259,966.855Z" transform="translate(-924.933 -949.249)" fill="#004184"/><path d="M1051.259,975.241c-.266,0-.8-.267-.8-.693s.533-.693.8-.693h1.573v-8.011h1.758v9.4Z" transform="translate(-936.097 -948.663)" fill="#004184"/><path d="M1065.338,965.843h1.759v8.011h1.372v1.386h-3.131Z" transform="translate(-944.714 -948.663)" fill="#004184"/><path d="M1070.4,975.207c0-.413.533-.693.8-.693h4.651a8.52,8.52,0,0,0,.066-1.013c0-1.693-.693-2.559-2.6-2.559a9,9,0,0,0-1.492.133V969.7a9.319,9.319,0,0,1,1.652-.147c3,0,4.183,1.32,4.183,3.879a10.462,10.462,0,0,1-.053,1.08h.84V975.9H1071.2C1070.934,975.9,1070.4,975.634,1070.4,975.207Zm3.464-8.225a.92.92,0,1,1-.919.92A.93.93,0,0,1,1073.865,966.982Z" transform="translate(-947.647 -949.323)" fill="#004184"/><path d="M1087.945,979.31c-.266,0-.8-.267-.8-.693s.533-.693.8-.693h1.026a2.581,2.581,0,0,1,.747.093,2.168,2.168,0,0,1-.747-1.906,3.183,3.183,0,0,1,3.465-3.24,2.728,2.728,0,0,1,3.011,3.066v3.373Zm5.783-3.159c0-1.333-.533-1.893-1.426-1.893a1.6,1.6,0,0,0-1.585,1.8c0,1.253.613,1.866,2,1.866h1.013Z" transform="translate(-957.345 -952.732)" fill="#004184"/><path d="M1122.4,979.31c-3.624,0-4.89-1.506-4.89-3.946a6.667,6.667,0,0,1,.346-2.093l1.892-.306a5.558,5.558,0,0,0-.466,2.2c0,1.88.813,2.759,3.317,2.759h.893v-4.8a15.262,15.262,0,0,1,2.691-.253c2.332,0,3.064,1.12,3.064,2.946v2.106h1.079v1.386h-2.785V976c0-1.28-.374-1.746-1.479-1.746a5.626,5.626,0,0,0-.879.08v4.972Zm-1.452.973a.867.867,0,1,1-.866.867A.873.873,0,0,1,1120.949,980.283Zm2.131,0a.867.867,0,1,1-.866.867A.864.864,0,0,1,1123.081,980.283Z" transform="translate(-974.932 -952.732)" fill="#004184"/><path d="M1147.487,984.871h1.612v1.386h-1.612Z" transform="translate(-992.294 -959.68)" fill="#004184"/><path d="M1147.486,984.871h1.612v1.386h-1.612Z" transform="translate(-992.293 -959.68)" fill="#004184"/><path d="M1149.741,975.9c-.267,0-.8-.266-.8-.693s.533-.693.8-.693h1.026a2.576,2.576,0,0,1,.746.093,2.169,2.169,0,0,1-.746-1.906,3.182,3.182,0,0,1,3.465-3.239,2.729,2.729,0,0,1,3.011,3.066V975.9Zm5.783-3.159c0-1.333-.533-1.893-1.426-1.893a1.6,1.6,0,0,0-1.586,1.8c0,1.253.613,1.866,2,1.866h1.013Zm-1.466-5.759a.92.92,0,1,1-.919.92A.93.93,0,0,1,1154.058,966.982Z" transform="translate(-993.136 -949.323)" fill="#004184"/></g></svg>