<svg xmlns="http://www.w3.org/2000/svg" xmlns:xlink="http://www.w3.org/1999/xlink" width="1600" height="356" viewBox="0 0 1600 356"><defs><clipPath id="a"><rect width="1600" height="356" transform="translate(-80 1400)" fill="#e5eef8"/></clipPath></defs><g transform="translate(80 -1400)" clip-path="url(#a)"><g transform="translate(881.751 1353.582)" opacity="0.03"><path d="M1533.678,880.808c1.481,6.3,3.057,12.368,4.324,18.5,2.631,12.749,5.1,25.534,7.622,38.3a18.938,18.938,0,0,1,.3,2.128c.252,3-.034,3.491-2.731,4.517-.933.356-1.905.612-2.866.893-36.841,10.759-68.925,29.757-96.756,56.057-13.32,12.589-26.52,25.307-38.078,39.6-2.134,2.64-4.221,5.323-6.624,8.363-1.346-1.581-2.409-2.877-3.522-4.126-13.256-14.836-26.062-30.105-39.885-44.388-22.279-23.026-49.38-38.809-79.272-49.912-6.963-2.586-14.113-4.67-21.18-6.973-1.466-.479-2.952-.909-4.7-1.448,4.5-20.851,8.932-41.363,13.472-62.393a232.2,232.2,0,0,1,75.643,32.989c23.039,15.527,42.351,34.906,59.143,57.649,1.127-1.386,2.1-2.519,3-3.706,17.723-23.4,38.626-43.348,63.705-58.765a227.528,227.528,0,0,1,64.763-26.8A35.237,35.237,0,0,1,1533.678,880.808Z" transform="translate(-1092.316 -879.928)" fill="#004184"/><path d="M1307.91,980.177l191.19,191.008-.431.8c-25.222-5.278-50.447-10.554-76.189-15.941-5.291,27.329-10.506,54.245-15.812,81.637a27.891,27.891,0,0,1-3.323-1.631q-30.578-21.079-61.125-42.2a19.041,19.041,0,0,1-8.217-13.533q-4.012-27.394-7.914-54.805-4.14-29.331-8.117-58.683c-2.247-16.736-4.347-33.491-6.481-50.24q-2.006-15.758-3.917-31.529c-.186-1.5-.286-3.008-.424-4.513Z" transform="translate(-985.942 -692.18)" fill="#008d33"/><path d="M1421.49,980.694c-.781,6.661-1.517,13.329-2.355,19.984-2.153,17.037-4.29,34.08-6.548,51.1q-4.007,30.215-8.216,60.407c-2.906,20.69-5.96,41.359-8.943,62.038-.1.708-.19,1.421-.236,2.135-.571,8.825-4.9,14.927-12.328,19.858-18.839,12.5-37.286,25.6-55.894,38.446-1.374.948-2.805,1.813-4.829,3.114-5.814-27.472-10.314-54.494-16.112-81.834-25.544,5.069-50.736,10.672-75.864,15.762-.263-.246-.4-.311-.426-.412a.5.5,0,0,1,.033-.415c3.5-3.578,6.981-7.181,10.524-10.717q90.077-89.947,180.157-179.876Z" transform="translate(-1130.855 -691.974)" fill="#008d33"/><path d="M1544.159,972.9c-1.621,1.025-2.851,1.872-4.147,2.615-27.663,15.869-55.291,31.807-83.052,47.51-4.307,2.436-5.97,5.38-5.917,10.281.323,30.914.413,61.832.578,92.75a10.237,10.237,0,0,1-.786,4.708c-.763-1.121-1.579-2.207-2.28-3.362-14.957-24.563-29.993-49.077-44.818-73.717-17.294-28.736-39.264-53.429-64.419-75.418-.968-.848-1.932-1.7-2.879-2.577a2.9,2.9,0,0,1-.418-.729C1339.769,973.7,1537.423,971.631,1544.159,972.9Z" transform="translate(-931.91 -706.554)" fill="#007dc6"/><path d="M1471.014,898.651c-.346,1.6-.543,2.8-.857,3.959-8.433,31.2-16.811,62.411-25.388,93.569-1.253,4.554-.451,7.74,2.978,11.089,22.2,21.711,44.215,43.616,66.323,65.427a28.148,28.148,0,0,0,3.434,2.51l-.72,1.235c-1.278-.228-2.572-.385-3.831-.692-29.439-7.159-58.851-14.448-88.325-21.474-26.316-6.271-53.062-8.374-80.069-7.418-6.4.226-12.8.555-19.261.836C1327.115,1044.021,1464.617,903.3,1471.014,898.651Z" transform="translate(-951.98 -844.863)" fill="#005ca7"/><path d="M1403.966,1047.435c-1.228,0-2.323.068-3.407-.012-35.056-2.594-69.677-.343-103.853,8.461-26.988,6.949-54.144,13.235-81.231,19.8-1.059.255-2.163.318-4.12.6,1.531-1.621,2.451-2.652,3.433-3.623,22.073-21.845,44.085-43.753,66.3-65.455,3.682-3.6,4.381-6.948,3.022-11.841-8.715-31.42-17.14-62.917-25.657-94.392-.182-.672-.314-1.358-.507-2.181C1262.031,900.852,1400.386,1041.72,1403.966,1047.435Z" transform="translate(-1165.208 -844.61)" fill="#005ca7"/><path d="M1403.732,975.469a16.227,16.227,0,0,0-2.541,1.49,329.1,329.1,0,0,0-70.979,84.863c-12.884,22.127-26.522,43.813-39.828,65.693-.657,1.078-1.372,2.12-2.526,3.9a25.017,25.017,0,0,1-.521-3.339q.232-36.062.509-72.124c.059-8.015-.04-16.034.165-24.046.1-3.939-1.57-6.364-4.9-8.257-17.289-9.81-34.515-19.735-51.758-29.625q-16.379-9.394-32.745-18.8a13.965,13.965,0,0,1-3.321-2.562c69.253-.609,138.386.953,207.524,1.531Z" transform="translate(-1195.283 -706.513)" fill="#007dc6"/></g></g></svg>