<svg xmlns="http://www.w3.org/2000/svg" width="10.318" height="18.028" viewBox="0 0 10.318 18.028"><path d="M1267.582,879.981c.09.384.187.754.264,1.128.16.777.311,1.557.465,2.335a1.16,1.16,0,0,1,.018.13c.015.183,0,.213-.167.275-.057.022-.116.037-.175.054a14.353,14.353,0,0,0-5.9,3.418,25.066,25.066,0,0,0-2.322,2.414c-.13.161-.257.324-.4.51-.082-.1-.147-.175-.215-.252-.808-.9-1.589-1.835-2.432-2.706a12.772,12.772,0,0,0-4.833-3.043c-.424-.158-.86-.285-1.291-.425-.089-.029-.18-.055-.287-.088l.821-3.8a14.158,14.158,0,0,1,4.612,2.011,14.659,14.659,0,0,1,3.606,3.515c.069-.085.128-.154.183-.226a14.187,14.187,0,0,1,3.884-3.583,13.869,13.869,0,0,1,3.949-1.634A2.1,2.1,0,0,1,1267.582,879.981Z" transform="translate(890.246 -1250.305) rotate(90)" fill="#007dc6"/></svg>