<svg xmlns="http://www.w3.org/2000/svg" width="10.318" height="18.028" viewBox="0 0 10.318 18.028"><path d="M17.277,10.265c.09-.384.187-.754.264-1.128.16-.777.311-1.557.465-2.335a1.16,1.16,0,0,0,.018-.13c.015-.183,0-.213-.167-.275-.057-.022-.116-.037-.175-.054a14.353,14.353,0,0,1-5.9-3.418A25.066,25.066,0,0,1,9.462.51C9.331.349,9.2.185,9.058,0c-.082.1-.147.175-.215.252-.808.9-1.589,1.835-2.432,2.706A12.772,12.772,0,0,1,1.578,6c-.424.158-.86.285-1.291.425C.2,6.455.107,6.482,0,6.514l.821,3.8A14.158,14.158,0,0,0,5.433,8.307,14.659,14.659,0,0,0,9.039,4.792c.069.085.128.154.183.226A14.187,14.187,0,0,0,13.106,8.6a13.869,13.869,0,0,0,3.949,1.634A2.1,2.1,0,0,0,17.277,10.265Z" transform="translate(10.318) rotate(90)" fill="#007dc6"/></svg>