<svg xmlns="http://www.w3.org/2000/svg" width="2269.315" height="2023.041" viewBox="0 0 2269.315 2023.041"><g opacity="0.01"><path d="M2300.631,883.188c5.49,23.34,11.33,45.84,16.027,68.574,9.748,47.256,18.891,94.641,28.248,141.971a70.233,70.233,0,0,1,1.1,7.889c.932,11.117-.127,12.939-10.123,16.742-3.457,1.32-7.061,2.268-10.623,3.313-136.553,39.875-255.473,110.293-358.627,207.775-49.371,46.66-98.3,93.8-141.137,146.766-7.91,9.785-15.643,19.73-24.553,31-4.99-5.859-8.93-10.66-13.057-15.291-49.133-54.988-96.6-111.584-147.832-164.525-82.578-85.346-183.027-143.846-293.824-185-25.8-9.582-52.309-17.307-78.5-25.846-5.434-1.775-10.941-3.371-17.428-5.365,16.689-77.285,33.105-153.314,49.934-231.26,101.4,24.738,194.723,64.555,280.371,122.273,85.4,57.553,156.979,129.379,219.217,213.678,4.178-5.139,7.785-9.336,11.117-13.738,65.691-86.736,143.168-160.668,236.125-217.814,74.721-45.951,155.084-78.193,240.047-99.338C2291.07,884.006,2295.248,883.879,2300.631,883.188Z" transform="translate(-664.714 -879.926)" fill="#004184"/><path d="M1309.969,980.176q354.322,353.991,708.648,707.977l-1.6,2.957c-93.484-19.561-186.98-39.119-282.395-59.086-19.613,101.3-38.941,201.061-58.609,302.592-5.129-2.482-9.043-3.8-12.316-6.047q-113.344-78.129-226.562-156.414c-17.711-12.211-27.4-29.27-30.453-50.164q-14.871-101.537-29.336-203.135-15.346-108.721-30.086-217.512c-8.328-62.031-16.113-124.133-24.023-186.213q-7.436-58.406-14.52-116.861c-.687-5.559-1.059-11.152-1.57-16.729Z" transform="translate(-116.585 87.293)" fill="#008d33"/><path d="M1940.541,981.8c-2.9,24.693-5.623,49.408-8.73,74.072-7.98,63.146-15.9,126.316-24.273,189.418q-14.851,111.993-30.451,223.9c-10.771,76.688-22.09,153.3-33.145,229.947-.367,2.621-.707,5.27-.877,7.912-2.115,32.711-18.166,55.33-45.691,73.6-69.83,46.336-138.205,94.879-207.174,142.5-5.094,3.512-10.4,6.719-17.9,11.541-21.551-101.826-38.23-201.984-59.717-303.32-94.684,18.789-188.057,39.555-281.193,58.422-.977-.912-1.488-1.156-1.578-1.529a1.874,1.874,0,0,1,.121-1.535c12.982-13.266,25.877-26.619,39.008-39.727q333.87-333.39,667.756-666.713Z" transform="translate(-863.297 88.352)" fill="#008d33"/><path d="M2107.488,973.963c-6.008,3.8-10.566,6.941-15.371,9.691-102.535,58.818-204.937,117.9-307.836,176.1-15.965,9.027-22.125,19.941-21.93,38.105,1.2,114.586,1.531,229.182,2.141,343.781.027,5.576,0,11.156-2.91,17.451-2.828-4.154-5.855-8.18-8.453-12.459-55.437-91.043-111.168-181.9-166.121-273.23-64.1-106.514-145.531-198.039-238.766-279.539-3.59-3.143-7.164-6.3-10.672-9.551a10.833,10.833,0,0,1-1.551-2.705C1349.91,976.955,2082.523,969.277,2107.488,973.963Z" transform="translate(161.827 13.24)" fill="#007dc6"/><path d="M1865.4,898.65c-1.281,5.939-2.016,10.361-3.176,14.676-31.258,115.633-62.312,231.328-94.1,346.816-4.645,16.881-1.672,28.688,11.039,41.1,82.289,80.471,163.883,161.66,245.824,242.5,3.7,3.65,8.461,6.227,12.727,9.3l-2.668,4.578c-4.738-.842-9.539-1.428-14.2-2.564-109.117-26.537-218.133-53.551-327.379-79.6-97.539-23.246-196.68-31.041-296.777-27.494-23.719.84-47.441,2.055-71.387,3.1C1332.035,1437.467,1841.688,915.879,1865.4,898.65Z" transform="translate(58.411 -699.282)" fill="#005ca7"/><path d="M1925.27,1449.758c-4.551,0-8.609.252-12.627-.045-129.937-9.613-258.26-1.27-384.934,31.359-100.031,25.756-200.686,49.057-301.086,73.387-3.924.945-8.018,1.18-15.27,2.205,5.674-6.008,9.086-9.83,12.725-13.428,81.816-80.971,163.406-162.172,245.742-242.611,13.648-13.33,16.24-25.754,11.2-43.891-32.3-116.457-63.529-233.2-95.1-349.865-.678-2.49-1.168-5.035-1.881-8.084C1399.186,906.441,1912,1428.574,1925.27,1449.758Z" transform="translate(-1040.308 -697.981)" fill="#005ca7"/><path d="M1967.9,983.439c-3.16,1.82-6.7,3.2-9.42,5.525-105.254,90.141-193.2,194.553-263.086,314.547-47.754,82.016-98.3,162.4-147.621,243.494-2.436,3.992-5.084,7.855-9.363,14.451-.979-6.051-1.957-9.211-1.932-12.377q.861-133.667,1.889-267.332c.217-29.709-.148-59.43.611-89.125.359-14.6-5.822-23.586-18.178-30.6-64.084-36.361-127.93-73.152-191.842-109.8q-60.709-34.819-121.371-69.68a51.745,51.745,0,0,1-12.309-9.5c256.689-2.258,512.93,3.533,769.193,5.676Z" transform="translate(-1195.283 13.452)" fill="#007dc6"/></g></svg>