<svg xmlns="http://www.w3.org/2000/svg" xmlns:xlink="http://www.w3.org/1999/xlink" width="64.854" height="81.067" viewBox="0 0 64.854 81.067"><defs><linearGradient id="a" x1="0.5" x2="0.5" y2="1" gradientUnits="objectBoundingBox"><stop offset="0" stop-color="#0fbc77"/><stop offset="1" stop-color="#0a869a"/></linearGradient></defs><path d="M200.8,63.438V34.51L183.791,17.5H148.108a4.053,4.053,0,0,0-4.053,4.053V63.438A4.053,4.053,0,0,0,140,67.492V89.11a4.053,4.053,0,0,0,4.053,4.053v1.351a4.053,4.053,0,0,0,4.053,4.053h48.641a4.053,4.053,0,0,0,4.053-4.053V93.163a4.053,4.053,0,0,0,4.053-4.053V67.492a4.053,4.053,0,0,0-4.053-4.053ZM184.588,22.108l11.606,11.606H184.588Zm-37.832-.554a1.351,1.351,0,0,1,1.351-1.351h33.778V36.416H198.1V63.439H146.756ZM198.1,94.515a1.351,1.351,0,0,1-1.351,1.351H148.108a1.351,1.351,0,0,1-1.351-1.351V93.164H198.1Zm4.053-5.4a1.351,1.351,0,0,1-1.351,1.351H144.054A1.351,1.351,0,0,1,142.7,89.11V67.492a1.351,1.351,0,0,1,1.351-1.351H200.8a1.351,1.351,0,0,1,1.351,1.351Z" transform="translate(-140.001 -17.5)" fill="url(#a)"/><path d="M220.1,212.7h37.832a1.351,1.351,0,0,0,0-2.7H220.1a1.351,1.351,0,0,0,0,2.7Z" transform="translate(-206.59 -180.275)" fill="url(#a)"/><path d="M257.933,262.5H220.1a1.351,1.351,0,1,0,0,2.7h37.832a1.351,1.351,0,0,0,0-2.7Z" transform="translate(-206.59 -224.668)" fill="url(#a)"/><path d="M249.155,365.2a4.19,4.19,0,0,0-1.635-.852,6.905,6.905,0,0,0-2.013-.27h-4.5a1.354,1.354,0,0,0-.905.3.906.906,0,0,0-.351.716v13.836a.837.837,0,0,0,.527.784,2.782,2.782,0,0,0,2.337,0,.837.837,0,0,0,.527-.784v-4.7h2.149a7.511,7.511,0,0,0,2.107-.27,4.261,4.261,0,0,0,1.7-.878,4.394,4.394,0,0,0,1.135-1.568,5.907,5.907,0,0,0,.405-2.323v-.109a5.907,5.907,0,0,0-.405-2.323,3.955,3.955,0,0,0-1.081-1.554Zm-1.837,4.242a2.282,2.282,0,0,1-.527,1.649,1.906,1.906,0,0,1-1.432.527h-2.216v-4.581h2.149a1.9,1.9,0,0,1,1.432.527,2.254,2.254,0,0,1,.595,1.648Z" transform="translate(-224.348 -310.56)" fill="url(#a)"/><path d="M329.017,365.231a4.149,4.149,0,0,0-1.689-.892,7.513,7.513,0,0,0-2.107-.27H321.37a1.771,1.771,0,0,0-1.081.3.906.906,0,0,0-.392.716v13.863a.906.906,0,0,0,.392.716,1.771,1.771,0,0,0,1.081.3h3.851a8.122,8.122,0,0,0,2.107-.27,4.2,4.2,0,0,0,2.824-2.472,5.963,5.963,0,0,0,.419-2.392V369.2a5.939,5.939,0,0,0-.419-2.378,4.049,4.049,0,0,0-1.135-1.594Zm-1.77,9.593a2.256,2.256,0,0,1-.527,1.649,1.932,1.932,0,0,1-1.432.527h-2v-9.971h1.932a1.931,1.931,0,0,1,1.432.527,2.254,2.254,0,0,1,.595,1.648Z" transform="translate(-292.118 -310.551)" fill="url(#a)"/><path d="M411.962,364.081h-7.539a2,2,0,0,0-1.027.257.838.838,0,0,0-.46.784V378.93a.837.837,0,0,0,.527.784,2.782,2.782,0,0,0,2.337,0,.837.837,0,0,0,.527-.784v-5.607h3.3a.837.837,0,0,0,.784-.432,1.694,1.694,0,0,0,.243-.851,1.672,1.672,0,0,0-.27-.932.838.838,0,0,0-.756-.391h-3.3v-3.675h5.634a.826.826,0,0,0,.757-.446,2.047,2.047,0,0,0,.27-1.054,2.154,2.154,0,0,0-.244-1,.811.811,0,0,0-.784-.46Z" transform="translate(-362.335 -310.563)" fill="url(#a)"/></svg>