<svg xmlns="http://www.w3.org/2000/svg" xmlns:xlink="http://www.w3.org/1999/xlink" width="52.164" height="30" viewBox="0 0 52.164 30"><defs><linearGradient id="a" x1="0.775" y1="0.162" x2="0" y2="1" gradientUnits="objectBoundingBox"><stop offset="0" stop-color="#0fbc77"/><stop offset="1" stop-color="#0a869a"/></linearGradient></defs><g transform="translate(-478 -780)"><path d="M1769.817,340.588a1.814,1.814,0,0,0-1.449-1.934l-6.245-2.99-.782-1.23-.667-.116v-.528l.446-.294.28-.879.222-.527.112-.763.278-.175.336-.7.112-.352.109-.7.168-1.758s-.278.116-.278-.118a28.193,28.193,0,0,0,.222-2.989,3.7,3.7,0,0,0-.726-2.345s-.278-.879-2.562-1.875a4.3,4.3,0,0,0-4.073.292l-.334.47-.614.116-.782.938-.109,3.048.109,1.993-.056.47.56,3.4.278.235.387,1.758.67.88v.411l-.723.116-.838,1.465s-1.953.828-3.793,1.6l-1.08-.517-1-1.568-.851-.149v-.673l.568-.374.354-1.12.285-.672.143-.972.357-.223.425-.9.143-.449.14-.9.214-2.242s-.354.148-.354-.15a35.894,35.894,0,0,0,.283-3.81,4.725,4.725,0,0,0-.924-2.99s-.354-1.12-3.268-2.39a5.482,5.482,0,0,0-5.191.373l-.428.6-.782.149-.993,1.2-.143,3.885.143,2.54-.071.6.711,4.334.354.3.5,2.241.856,1.122v.523l-.925.149-1.067,1.868-.813.343-4.088-1.957-.782-1.23-.667-.116v-.528l.446-.294.278-.879.224-.527.112-.763.28-.175.334-.7.11-.352.112-.7.168-1.758s-.28.116-.28-.118a27.892,27.892,0,0,0,.224-2.989,3.7,3.7,0,0,0-.726-2.345s-.277-.879-2.562-1.875a4.3,4.3,0,0,0-4.073.292l-.334.47-.614.116-.782.938-.109,3.048.109,1.993-.056.47.56,3.4.278.235.39,1.758.67.88v.411l-.726.116-.835,1.465s-3.737,1.583-5.744,2.4-1.788,1.876-1.788,1.876l-.11,3.223,9.422.024,2.387-5.206-1.108-1.107,1.108-1.107,1.105,1.107-1.105,1.107h.028l1.09,2.375c-1.966,1-1.732,2.139-1.732,2.139l-.14,4.109,12.01.03,3.044-6.637-1.411-1.412,1.411-1.411,1.411,1.411-1.411,1.412h.036l3.052,6.653,11.933.029s.071-1.42,0-3.661a2.313,2.313,0,0,0-1.849-2.466l-.081-.04,1.161-2.532-1.108-1.107,1.108-1.107,1.105,1.107-1.105,1.107h.028l2.392,5.219,9.361.023S1769.873,342.346,1769.817,340.588Z" transform="translate(-1239.678 463.082)" fill-rule="evenodd" fill="url(#a)"/></g></svg>