<svg xmlns="http://www.w3.org/2000/svg" xmlns:xlink="http://www.w3.org/1999/xlink" width="33.246" height="28.772" viewBox="0 0 33.246 28.772"><defs><linearGradient id="a" x1="0.775" y1="0.162" x2="0" y2="1" gradientUnits="objectBoundingBox"><stop offset="0" stop-color="#0fbc77"/><stop offset="1" stop-color="#0a869a"/></linearGradient></defs><path d="M1251.061,1225.62h-20.944a6.15,6.15,0,0,0-6.151,6.15v11.806a6.154,6.154,0,0,0,4.58,5.94,8.9,8.9,0,0,1-3.289,4.091c-.494.37.178.785,1.531.785,2.1,0,5.843-1,9.446-4.666h14.827a6.151,6.151,0,0,0,6.151-6.151V1231.77A6.151,6.151,0,0,0,1251.061,1225.62Z" transform="translate(-1223.966 -1225.62)" fill="url(#a)"/></svg>