<svg xmlns="http://www.w3.org/2000/svg" xmlns:xlink="http://www.w3.org/1999/xlink" width="46.934" height="42" viewBox="0 0 46.934 42"><defs><linearGradient id="a" x1="0.775" y1="0.162" x2="0" y2="1" gradientUnits="objectBoundingBox"><stop offset="0" stop-color="#0fbc77"/><stop offset="1" stop-color="#0a869a"/></linearGradient></defs><g transform="translate(-258 -772)"><path d="M2270.392,613l11.976,6.915a1.975,1.975,0,0,0,1.975-3.421l-11.977-6.913a1.974,1.974,0,1,0-1.975,3.419Zm-10.864,18.816,11.978,6.915a1.975,1.975,0,0,0,1.974-3.421L2261.5,628.4a1.975,1.975,0,1,0-1.977,3.419Zm41.259,5.576-21.875-11.49,2.469-4.278-11.976-6.913-6.913,11.975,11.974,6.911,2.47-4.275,20.888,13.2a2.962,2.962,0,1,0,2.963-5.13Zm-21.682,8a1.975,1.975,0,0,0-1.977-1.974h-17.775a1.974,1.974,0,0,0-1.977,1.974v3.951l-2.041-.043.066,2.018h25.679l.09-1.893-1.942-.083S2279.1,646.478,2279.1,645.388Z" transform="translate(-1997.336 162.686)" fill-rule="evenodd" fill="url(#a)"/></g></svg>