<svg xmlns="http://www.w3.org/2000/svg" xmlns:xlink="http://www.w3.org/1999/xlink" width="35.931" height="44" viewBox="0 0 35.931 44"><defs><linearGradient id="a" x1="0.775" y1="0.162" x2="0" y2="1" gradientUnits="objectBoundingBox"><stop offset="0" stop-color="#0fbc77"/><stop offset="1" stop-color="#0a869a"/></linearGradient></defs><g transform="translate(-140 -35)"><path d="M168.5,63.445V38.963c0-3.934-1.643-3.963-4.912-3.963H147.917v7.125a.792.792,0,0,1-.792.792H140V72.252a2.277,2.277,0,0,0,2.371,2.332h19.553l2.044-2.329ZM143.958,44.5h20.584a.792.792,0,1,1,0,1.583H143.958a.792.792,0,1,1,0-1.583Zm0,4.75h20.584a.792.792,0,1,1,0,1.583H143.958a.792.792,0,1,1,0-1.583Zm0,3.958h20.584a.792.792,0,0,1,0,1.583H143.958a.792.792,0,1,1,0-1.583Zm-.792,5.542a.792.792,0,0,1,.792-.792h20.584a.792.792,0,1,1,0,1.583H143.958A.792.792,0,0,1,143.167,58.751Zm16.266,5.743H144.31a.792.792,0,1,1,0-1.583h15.123a.792.792,0,0,1,0,1.583Z" transform="translate(0 0)" fill="url(#a)"/><path d="M157.585,47.371l-5.214,5.214h5.214Z" transform="translate(-11.252 -11.252)" fill="url(#a)"/><path d="M400.863,465.2a.792.792,0,1,1-1.407-.724l.725-1.408-.859-.442-1.487,1.694.732,3.615,3.366-1.5.514-2.194-.859-.442Z" transform="translate(-234.506 -388.934)" fill="url(#a)"/><path d="M448,323.408l3.984-7.744,2.815,1.448-3.984,7.744Z" transform="translate(-280.133 -255.27)" fill="url(#a)"/><path d="M503.321,283.953a1.583,1.583,0,0,0-2.916-.237l-.362.7,2.815,1.449.362-.7h0a1.572,1.572,0,0,0,.1-1.211Z" transform="translate(-327.467 -225.43)" fill="url(#a)"/><path d="M423.98,419.634l1.408.725h0l1.407.724,1.449-2.816-2.816-1.449Z" transform="translate(-258.286 -347.272)" fill="url(#a)"/></g></svg>