<svg xmlns="http://www.w3.org/2000/svg" xmlns:xlink="http://www.w3.org/1999/xlink" width="44.182" height="38.429" viewBox="0 0 44.182 38.429"><defs><linearGradient id="a" x1="0.775" y1="0.162" x2="0" y2="1" gradientUnits="objectBoundingBox"><stop offset="0" stop-color="#0fbc77"/><stop offset="1" stop-color="#0a869a"/></linearGradient></defs><g transform="translate(-572.568 -102.042)"><path d="M-122.832,2512.7l-3.626-3.616a.906.906,0,0,1,0-1.28l3.62-3.62a.908.908,0,0,1,.64-.266.906.906,0,0,1,.905.906v2.327h10.336c.608,0,.913.811.9,1.3,0,.751-.47,1.3-.9,1.3h-10.336v2.322a.9.9,0,0,1-.9.9v0A.9.9,0,0,1-122.832,2512.7Zm17.082-.687a.906.906,0,0,1-.9-.9v-22.625a1.813,1.813,0,0,1,1.81-1.81h9.955v6.787a1.358,1.358,0,0,0,1.357,1.356l-.01,0h6.788v16.29a.9.9,0,0,1-.9.9Zm1.805-5.08a.905.905,0,0,0,.9.905h12.67a.905.905,0,0,0,.9-.905.9.9,0,0,0-.9-.9h-12.67A.9.9,0,0,0-103.945,2506.935Zm0-4.748a.9.9,0,0,0,.9.9h12.67a.9.9,0,0,0,.9-.9.905.905,0,0,0-.9-.905h-12.67A.905.905,0,0,0-103.945,2502.187Zm0-4.648a.9.9,0,0,0,.9.905h12.67a.9.9,0,0,0,.9-.905.9.9,0,0,0-.9-.9h-12.67A.9.9,0,0,0-103.945,2497.539Zm6.334-5.43a.9.9,0,0,0,.9.9.9.9,0,0,0,.9-.9.9.9,0,0,0-.9-.9A.9.9,0,0,0-97.61,2492.109Zm-6.334,0a.9.9,0,0,0,.9.9h3.62a.9.9,0,0,0,.9-.905.9.9,0,0,0-.9-.9h-3.62A.9.9,0,0,0-103.945,2492.109Zm-24.178,9.824a1.814,1.814,0,0,1-1.81-1.811v-21.717a1.813,1.813,0,0,1,1.81-1.81h9.955v6.787a1.359,1.359,0,0,0,1.357,1.357h6.788v15.383a1.814,1.814,0,0,1-1.81,1.811Zm.91-5.381a.9.9,0,0,0,.905.9h12.67a.9.9,0,0,0,.9-.9v0a.9.9,0,0,0-.9-.905h-12.67A.9.9,0,0,0-127.212,2496.552Zm0-4.55a.9.9,0,0,0,.905.906h12.67a.9.9,0,0,0,.9-.9V2492a.906.906,0,0,0-.9-.905h-12.67A.906.906,0,0,0-127.212,2492Zm0-4.549a.9.9,0,0,0,.905.9h12.67a.9.9,0,0,0,.9-.9v0a.905.905,0,0,0-.9-.906h-12.67A.9.9,0,0,0-127.212,2487.453Zm0-5.431a.9.9,0,0,0,.9.9h3.62a.9.9,0,0,0,.905-.9.9.9,0,0,0-.905-.906h-3.62A.9.9,0,0,0-127.217,2482.023Zm6.335,0v0a.9.9,0,0,0,.9.9.9.9,0,0,0,.9-.905.9.9,0,0,0-.9-.895A.9.9,0,0,0-120.882,2482.018Zm27.8,11v-6.334a.892.892,0,0,1,.64.264l5.431,5.43a.9.9,0,0,1,.265.64Zm-1.43-8.423a.9.9,0,0,1-.9-.9v-2.322h-10.336c-.43,0-.9-.545-.9-1.3-.012-.489.292-1.3.9-1.3h10.335v-2.326a.9.9,0,0,1,.905-.906.907.907,0,0,1,.64.265l3.62,3.621a.906.906,0,0,1,0,1.28l-3.626,3.616a.9.9,0,0,1-.638.269Zm-21.837-1.662v-6.3a1.807,1.807,0,0,1,.9.49l4.9,4.9.005.005a1.811,1.811,0,0,1,.488.9Z" transform="translate(703 -2373)" fill="url(#a)"/><path d="M-122.2,2513.471a1.393,1.393,0,0,1-.992-.417l-3.624-3.614a1.408,1.408,0,0,1,0-1.987l3.62-3.62a1.418,1.418,0,0,1,.993-.412,1.407,1.407,0,0,1,1.405,1.406v1.827h9.836a1.191,1.191,0,0,1,.865.38,2.1,2.1,0,0,1,.535,1.424,1.657,1.657,0,0,1-1.4,1.79h-9.836v1.822a1.4,1.4,0,0,1-.9,1.308v.094Zm-.033-1h.034a.4.4,0,0,0,.4-.4v-2.822h10.836c.1,0,.4-.282.4-.8v-.013a1.12,1.12,0,0,0-.251-.707.2.2,0,0,0-.149-.077h-10.836v-2.827a.406.406,0,0,0-.405-.406.41.41,0,0,0-.287.12l-3.619,3.619a.406.406,0,0,0,0,.573l3.626,3.616A.4.4,0,0,0-122.228,2512.469Zm34.578.045h-18.1a1.412,1.412,0,0,1-1.4-1.4v-22.628a2.317,2.317,0,0,1,2.309-2.31h10.456v7.287a.859.859,0,0,0,.858.856v0h7.277v16.79A1.4,1.4,0,0,1-87.65,2512.514Zm-17.19-25.335a1.315,1.315,0,0,0-1.31,1.311v22.624a.407.407,0,0,0,.4.4h18.1a.4.4,0,0,0,.4-.4v-15.79l-6.288,0a1.861,1.861,0,0,1-1.847-1.856v-.906a1.4,1.4,0,0,1-1.325.948,1.4,1.4,0,0,1-1.356-1.049,1.407,1.407,0,0,1-1.359,1.049h-3.62a1.4,1.4,0,0,1-1.4-1.4,1.391,1.391,0,0,1,.4-.992,1.4,1.4,0,0,1,.993-.418h3.622a1.407,1.407,0,0,1,1.36,1.054,1.4,1.4,0,0,1,1.354-1.044,1.4,1.4,0,0,1,1.325.948v-4.478Zm8.13,4.53a.4.4,0,0,0-.4.4.4.4,0,0,0,.4.4.4.4,0,0,0,.4-.4A.4.4,0,0,0-96.71,2491.709Zm-6.333-.01a.4.4,0,0,0-.285.12.4.4,0,0,0-.116.286.4.4,0,0,0,.4.4h3.62a.405.405,0,0,0,.4-.405.4.4,0,0,0-.4-.4Zm12.673,16.641h-12.67a1.406,1.406,0,0,1-1.4-1.405,1.406,1.406,0,0,1,1.4-1.4h12.67a1.406,1.406,0,0,1,1.4,1.4A1.406,1.406,0,0,1-90.37,2508.34Zm-12.67-1.81a.4.4,0,0,0-.4.4.405.405,0,0,0,.4.405h12.67a.405.405,0,0,0,.4-.405.4.4,0,0,0-.4-.4Zm12.67-2.938h-12.67a1.406,1.406,0,0,1-1.4-1.4,1.406,1.406,0,0,1,1.4-1.405h12.67a1.406,1.406,0,0,1,1.4,1.405A1.406,1.406,0,0,1-90.37,2503.592Zm-12.67-1.81a.405.405,0,0,0-.4.405.4.4,0,0,0,.4.4h12.67a.4.4,0,0,0,.4-.4.405.405,0,0,0-.4-.405Zm-8.791.651h-16.291a2.319,2.319,0,0,1-2.31-2.31v-21.718a2.318,2.318,0,0,1,2.309-2.31h10.456v7.287a.86.86,0,0,0,.858.857h7.287v15.883A2.319,2.319,0,0,1-111.831,2502.433Zm-16.291-25.338a1.316,1.316,0,0,0-1.31,1.311v21.716a1.317,1.317,0,0,0,1.311,1.311h16.287a1.317,1.317,0,0,0,1.311-1.312V2485.24h-6.288a1.862,1.862,0,0,1-1.857-1.857v-.884a1.4,1.4,0,0,1-1.306.919h-.009a1.4,1.4,0,0,1-1.354-1.047,1.408,1.408,0,0,1-1.361,1.052h-3.62a1.4,1.4,0,0,1-1.4-1.4,1.392,1.392,0,0,1,.4-.992,1.4,1.4,0,0,1,.993-.418h3.622a1.408,1.408,0,0,1,1.36,1.052,1.4,1.4,0,0,1,1.355-1.047,1.405,1.405,0,0,1,1.314.92V2477.1Zm1.807,4.517a.4.4,0,0,0-.285.12.4.4,0,0,0-.116.286.4.4,0,0,0,.4.4h3.62a.405.405,0,0,0,.405-.4.406.406,0,0,0-.405-.406Zm6.334.005a.4.4,0,0,0-.4.4.4.4,0,0,0,.4.4.4.4,0,0,0,.4-.4A.4.4,0,0,0-119.982,2481.618Zm29.612,17.326h-12.67a1.406,1.406,0,0,1-1.4-1.405,1.406,1.406,0,0,1,1.4-1.4h12.67a1.406,1.406,0,0,1,1.4,1.4A1.406,1.406,0,0,1-90.37,2498.944Zm-12.67-1.81a.4.4,0,0,0-.4.4.405.405,0,0,0,.4.405h12.67a.405.405,0,0,0,.4-.405.4.4,0,0,0-.4-.4Zm-10.6.823h-12.67a1.407,1.407,0,0,1-1.405-1.4,1.407,1.407,0,0,1,1.405-1.405h12.67a1.409,1.409,0,0,1,1.4,1.405A1.4,1.4,0,0,1-113.637,2497.957Zm0-1.81h-12.668a.406.406,0,0,0-.405.405.405.405,0,0,0,.405.4h12.67a.4.4,0,0,0,.4-.4A.407.407,0,0,0-113.639,2496.147Zm27.387-2.633h-7.333v-7.33l.507,0a1.4,1.4,0,0,1,.988.413l5.429,5.428a1.406,1.406,0,0,1,.411,1Zm-6.333-1h5l-5-5Zm-21.051.894h-12.67a1.407,1.407,0,0,1-1.405-1.406,1.407,1.407,0,0,1,1.405-1.405h12.67a1.41,1.41,0,0,1,1.4,1.405v.005A1.4,1.4,0,0,1-113.637,2493.407Zm0-1.811h-12.667a.406.406,0,0,0-.405.405.406.406,0,0,0,.405.406h12.67a.4.4,0,0,0,.4-.4V2492A.407.407,0,0,0-113.64,2491.6Zm0-2.739h-12.67a1.407,1.407,0,0,1-1.405-1.4,1.407,1.407,0,0,1,1.405-1.406h12.67a1.409,1.409,0,0,1,1.4,1.406A1.4,1.4,0,0,1-113.637,2488.858Zm0-1.81h-12.667a.406.406,0,0,0-.405.406.405.405,0,0,0,.405.4h12.67a.4.4,0,0,0,.4-.4A.407.407,0,0,0-113.64,2487.048Zm18.624-1.952v-.1a1.4,1.4,0,0,1-.9-1.309v-1.822h-9.836a1.656,1.656,0,0,1-1.4-1.789,2.108,2.108,0,0,1,.537-1.427,1.19,1.19,0,0,1,.863-.378h9.835v-1.826a1.407,1.407,0,0,1,1.405-1.406,1.415,1.415,0,0,1,.993.411l3.62,3.621a1.408,1.408,0,0,1,0,1.986l-3.625,3.615a1.411,1.411,0,0,1-.989.417Zm-10.736-5.823a.193.193,0,0,0-.148.077,1.126,1.126,0,0,0-.252.711v.012c0,.513.3.8.4.8h10.836v2.817a.4.4,0,0,0,.4.406h.031a.4.4,0,0,0,.25-.117l0,0,3.626-3.616a.406.406,0,0,0,0-.573l-3.619-3.621a.407.407,0,0,0-.286-.118.406.406,0,0,0-.405.406v2.826Zm-3.69,4.155h-7.411v-7.416l.606.132a2.3,2.3,0,0,1,1.149.627l4.9,4.9a2.307,2.307,0,0,1,.624,1.15Zm-6.411-1h5l-.045-.047,0,0-4.9-4.9-.046-.044Z" transform="translate(703 -2373)" fill="rgba(0,0,0,0)"/></g></svg>