<svg xmlns="http://www.w3.org/2000/svg" width="55.108" height="42.007" viewBox="0 0 55.108 42.007"><path d="M1250.392,973.3a4.281,4.281,0,0,0-.672.394,87,87,0,0,0-18.765,22.436c-3.406,5.85-7.011,11.583-10.529,17.368-.174.285-.363.56-.668,1.031a6.576,6.576,0,0,1-.138-.883q.061-9.534.135-19.068c.015-2.119-.011-4.239.043-6.357a2.233,2.233,0,0,0-1.3-2.183c-4.571-2.594-9.125-5.218-13.683-7.832q-4.33-2.484-8.657-4.97a3.69,3.69,0,0,1-.878-.677c18.309-.161,36.586.252,54.864.4Z" transform="translate(-1195.283 -972.524)" fill="#007dc6"/></svg>