<svg xmlns="http://www.w3.org/2000/svg" width="32.971" height="31.343" viewBox="0 0 32.971 31.343"><path d="M1346.653,898.651c-.051.235-.08.41-.126.58-1.236,4.572-2.464,9.147-3.721,13.713a1.465,1.465,0,0,0,.436,1.625c3.254,3.182,6.48,6.392,9.72,9.589a4.123,4.123,0,0,0,.5.368l-.106.181c-.187-.033-.377-.056-.562-.1-4.315-1.049-8.625-2.117-12.945-3.147a43.7,43.7,0,0,0-11.735-1.087c-.938.033-1.876.081-2.823.123C1325.564,919.956,1345.715,899.332,1346.653,898.651Z" transform="matrix(0.978, -0.208, 0.208, 0.978, -1483.176, -597.612)" fill="#008d33"/></svg>