<svg xmlns="http://www.w3.org/2000/svg" width="97.5" height="65.227" viewBox="0 0 97.5 65.227"><g transform="translate(0.001)"><g transform="translate(-0.001)"><path d="M69.513,37.035v.071c0,4.7-3.428,8.162-9,8.162a12.138,12.138,0,0,1-9.749-4.313l3.785-3.6a7.63,7.63,0,0,0,6.035,2.994c2.071,0,3.535-1.176,3.535-3.029-.027-.049.4-3.243-4.893-3.243H56.943l-.857-3.493L64.1,22.533,60.891,24.6H52.229v-4.7H69.12v4.134L62.8,30.05c3.392.57,6.714,2.352,6.714,6.986M53.836,8.483a3.909,3.909,0,0,1,3.9-4.077H60.3l-.672.335c.031,6.191-.123,6.971.273,7.876H57.764a3.957,3.957,0,0,1-3.928-4.1Zm3.9,5.171h2.278v-.819a1.583,1.583,0,0,0,.719.668c.725.344.2.128,20.983.192V3.37h-1.1V12.6s-19.005.073-19.366-.089a.955.955,0,0,1-.48-.807c-.083-.558-.033-.568-.048-8.335H57.764a5.042,5.042,0,0,0-5.1,5.142V8.54a5,5,0,0,0,5.067,5.114M89.8,2.275h-2.4C87.446,1.481,87.078,0,88.7,0h.773V.763c-.749.055-1.18-.182-1.18.416v.253H89.8Zm2.776,11.531a3.353,3.353,0,0,1-.891-.123l.288-1.053c.5.141,1.13.149,1.391-.294.305-.525.2-.709.212-8.966h1.1c-.032,7.707.076,7.922-.1,8.815a1.83,1.83,0,0,1-1.994,1.621M60.726,2.275h-1.1V1.181h1.1ZM84.855,6.051a3.037,3.037,0,0,1,2.7-1.571v0h1.771l-.626.312V9.7a7.465,7.465,0,0,1-2.268-.171,2.434,2.434,0,0,1-1.83-2.4,2.319,2.319,0,0,1,.254-1.081m0,3.878a6.084,6.084,0,0,0,3.475.868l.369-.772c-.06.748.206,1.794-.494,2.318a3.087,3.087,0,0,1-2.3.273,5.315,5.315,0,0,1-.925-.328l-.342,1.053a5.98,5.98,0,0,0,2.1.465,3.107,3.107,0,0,0,2.33-.759A2.838,2.838,0,0,0,89.8,11V3.37a11.257,11.257,0,0,0-3.6.287,3.576,3.576,0,0,0-1.336,6.271M58.533,2.275h-1.1V1.181h1.1ZM47.185,3.358h1.132V13.633H47.39L40.1,4.391l.645,1.5v7.744H39.611V3.358H40.7l6.963,8.84-.477-1.261V3.358ZM4.427,13.706,0,3.358H1.294L5.246,12.91l-.112-1.129,3.5-8.423h1.25L5.456,13.706ZM24.044,3.358h1.162V13.632H24.044ZM36.5,8.525a4.039,4.039,0,0,1-4.029,4.212A4.089,4.089,0,0,1,28.415,8.5v-.03a4.04,4.04,0,0,1,4.03-4.212A4.088,4.088,0,0,1,36.5,8.5ZM32.475,3.182A5.211,5.211,0,0,0,27.21,8.5v.029A5.251,5.251,0,1,0,37.71,8.5v-.03a5.162,5.162,0,0,0-5.236-5.284M22.127,10.844v.029c0,1.761-1.471,2.906-3.515,2.906a6.028,6.028,0,0,1-4.206-1.644l.72-.851a4.908,4.908,0,0,0,3.53,1.452c1.382,0,2.294-.733,2.294-1.746v-.029c0-2.868-6.132-.976-6.132-4.918V6.015c0-1.614,1.427-2.8,3.383-2.8a5.377,5.377,0,0,1,3.618,1.263l-.676.895c-2.334-1.9-5.162-1.171-5.162.543v.03c0,.968.529,1.511,2.794,2,2.294.5,3.353,1.336,3.353,2.906m-9.5,2.789H11.461V3.359h1.162Zm67.615,1.155h1.1v1.094h-1.1Zm-2.193,0h1.1v1.094h-1.1ZM9.194,40.1h9.531v4.741H.226V40.493c9.243-7.844,12.642-9.377,12.642-12.8a3.064,3.064,0,0,0-3.357-3.244c-1.929,0-3.25,1.069-5.107,3.349L.548,24.7c2.464-3.35,4.857-5.169,9.321-5.169,5.178,0,8.606,3.03,8.606,7.7V27.3c0,5.855-4.433,7.742-12.034,13.868L5.38,41.99Zm82.557-7.663a7.468,7.468,0,0,1-7.5,7.77,7.587,7.587,0,0,1-7.57-7.842v-.071a7.468,7.468,0,0,1,7.5-7.769,7.587,7.587,0,0,1,7.571,7.841Zm-7.5-12.973a12.915,12.915,0,0,0-13.32,12.9v.072c0,7.093,5.535,12.831,13.249,12.831a12.915,12.915,0,0,0,13.32-12.9v-.071c0-7.092-5.535-12.83-13.249-12.83" transform="translate(0)" fill="#ada9ae"/><path d="M129.9,70.675l1.266,1.213-1.215,1.263-1.266-1.212" transform="translate(-96.236 -52.852)" fill="#29367b"/><path d="M145,71.938l1.265,1.212,1.215-1.263-1.266-1.213" transform="translate(-108.43 -52.852)" fill="#b1aeb3"/><path d="M137.927,79.083l.986.944.945-.984-.985-.944" transform="translate(-103.144 -58.404)" fill="#d0da33"/><path d="M152.258,81.224l.986.944.945-.984-.986-.944" transform="translate(-113.861 -60.005)" fill="#71ba44"/><path d="M131.536,85.047l.986.944.945-.984-.985-.944" transform="translate(-98.365 -62.864)" fill="#d0da33"/><path d="M144.651,85.5l.985.944.946-.984-.986-.944" transform="translate(-108.172 -63.203)" fill="#27b8be"/><path d="M139.52,90.852l.693.664.665-.692-.693-.664" transform="translate(-104.335 -67.423)" fill="#71ba44"/><path d="M149.892,92.921l.693.664.666-.692-.693-.664" transform="translate(-112.092 -68.971)" fill="#58b75e"/><path d="M172.543,72.929l2.151-.394.394,2.147-2.151.394Z" transform="translate(-129.031 -54.243)" fill="#3088c8"/><path d="M161.413,76.73l1.725-.316.315,1.723-1.725.316Z" transform="translate(-120.707 -57.144)" fill="#1e3871"/><path d="M174.64,86.246l1.725-.316.316,1.723-1.725.316Z" transform="translate(-130.599 -64.26)" fill="#27b8be"/><path d="M165.2,87.456l1.344-.246.246,1.341-1.344.246Z" transform="translate(-123.542 -65.217)" fill="#d0da33"/><path d="M175.57,97.558l1.344-.246.246,1.341-1.344.246Z" transform="translate(-131.294 -72.772)" fill="#b1aeb3"/><path d="M157.221,89.618l1.344-.246.246,1.341-1.344.246Z" transform="translate(-117.573 -66.834)" fill="#27b8be"/><path d="M166.891,96.584l1.344-.246.246,1.341-1.344.246Z" transform="translate(-124.804 -72.043)" fill="#71ba44"/><path d="M160.1,97.443l.945-.173.173.943-.945.173Z" transform="translate(-119.726 -72.74)" fill="#b1aeb3"/><path d="M167.3,105.18l.945-.173.173.943-.945.173Z" transform="translate(-125.111 -78.526)" fill="#58b75e"/><path d="M195.123,101.987l-.94,1.971,1.975.938.939-1.971" transform="translate(-145.213 -76.268)" fill="#29367b"/><path d="M184.559,98.376l-.754,1.581,1.584.752.754-1.581" transform="translate(-137.453 -73.567)" fill="#27b8be"/><path d="M189.7,113.822l-.754,1.582,1.585.752.754-1.581" transform="translate(-141.296 -85.118)" fill="#71ba44"/><path d="M181.963,109.118l-.587,1.231,1.234.586.587-1.231" transform="translate(-135.636 -81.601)" fill="#d0da33"/><path d="M184.445,123.368l-.587,1.231,1.233.586.588-1.231" transform="translate(-137.492 -92.257)" fill="#d0da33"/><path d="M174.217,106.211l-.587,1.231,1.234.586.587-1.231" transform="translate(-129.843 -79.427)" fill="#3088c8"/><path d="M177.98,117.508l-.587,1.231,1.233.586.588-1.231" transform="translate(-132.658 -87.875)" fill="#b1aeb3"/><path d="M172.611,114.066l-.413.866.868.412.413-.866" transform="translate(-128.773 -85.301)" fill="#71ba44"/><path d="M173.5,125.395l.412-.866.868.413-.412.866Z" transform="translate(-129.746 -93.125)" fill="#27b8be"/><path d="M196.443,139.415l-1.917,1.05,1.052,1.914,1.917-1.05" transform="translate(-145.47 -104.257)" fill="#3088c8"/><path d="M190.672,130l-1.538.842.844,1.535,1.538-.842" transform="translate(-141.438 -97.214)" fill="#27b8be"/><path d="M185.786,145.524l-1.538.842.844,1.536,1.538-.842" transform="translate(-137.784 -108.826)" fill="#27b8be"/><path d="M182.877,136.9l-1.2.656.656,1.2,1.2-.656" transform="translate(-135.863 -102.378)" fill="#29367b"/><path d="M176.537,149.908l-1.2.656.657,1.2,1.2-.656" transform="translate(-131.122 -112.104)" fill="#58b75e"/><path d="M178.3,130.024l-1.2.655.657,1.2,1.2-.656" transform="translate(-132.441 -97.234)" fill="#1e3871"/><path d="M174.729,141.381l-1.2.656.657,1.2,1.2-.655" transform="translate(-129.769 -105.727)" fill="#d0da33"/><path d="M173.028,135.154l-.843.461.462.841.842-.461" transform="translate(-128.763 -101.071)" fill="#b1aeb3"/><path d="M167.944,144.409l-.843.461.462.841.843-.461" transform="translate(-124.961 -107.992)" fill="#27b8be"/><path d="M173.932,173.306l.268-2.166,2.171.268-.268,2.167Z" transform="translate(-130.069 -127.982)" fill="#71ba44"/><path d="M175.789,161.456l.215-1.738,1.741.216-.215,1.738Z" transform="translate(-131.458 -119.44)" fill="#1e3871"/><path d="M162.721,171.2l.215-1.738,1.741.216-.215,1.738Z" transform="translate(-121.686 -126.724)" fill="#27b8be"/><path d="M166.318,161.737l.167-1.353,1.355.167-.167,1.353Z" transform="translate(-124.375 -119.938)" fill="#71ba44"/><path d="M153.548,168.577l.167-1.353,1.356.168-.167,1.353Z" transform="translate(-114.826 -125.053)" fill="#b1aeb3"/><path d="M166.634,153.47l.168-1.354,1.356.168-.168,1.354Z" transform="translate(-124.612 -113.755)" fill="#b1aeb3"/><path d="M157.081,160.591l.168-1.353,1.356.168-.168,1.353Z" transform="translate(-117.468 -119.081)" fill="#71ba44"/><path d="M160.294,153.743l.118-.952.953.118-.118.952Z" transform="translate(-119.871 -114.26)" fill="#b1aeb3"/><path d="M150.736,158.274l.118-.952.954.118-.118.952Z" transform="translate(-112.723 -117.648)" fill="#b1aeb3"/><path d="M140.189,183.627l-1.6-1.486-1.488,1.6,1.6,1.485" transform="translate(-102.524 -136.209)" fill="#d0da33"/><path d="M139.018,62.387l-1.6-1.486-1.488,1.6,1.6,1.485" transform="translate(-101.648 -45.543)" fill="#71ba44"/><path d="M148.784,175,147.5,173.8l-1.194,1.283,1.286,1.191" transform="translate(-109.409 -129.974)" fill="#27b8be"/><path d="M132.478,175.267l-1.286-1.192L130,175.358l1.286,1.191" transform="translate(-97.215 -130.177)" fill="#71ba44"/><path d="M141.067,169.617l-1-.928-.929,1,1,.928" transform="translate(-104.049 -126.149)" fill="#3088c8"/><path d="M126.7,167.713l-1-.928-.929,1,1,.928" transform="translate(-93.308 -124.725)" fill="#d0da33"/><path d="M146.166,163.115l-1-.928-.929,1,1,.928" transform="translate(-107.862 -121.287)" fill="#d0da33"/><path d="M134.24,163.312l-1-.928-.929,1,1,.928" transform="translate(-98.943 -121.434)" fill="#b1aeb3"/><path d="M140.991,159.555l-.7-.653-.654.7.7.653" transform="translate(-104.42 -118.83)" fill="#1e3871"/><path d="M130.587,157.659l-.7-.653-.654.7.7.653" transform="translate(-96.64 -117.412)" fill="#b1aeb3"/><path d="M102.107,172.78l2.144-.43.429,2.14-2.145.43Z" transform="translate(-76.357 -128.887)" fill="#3088c8"/><path d="M115.2,170.622l1.72-.345.344,1.717-1.72.345Z" transform="translate(-86.145 -127.336)" fill="#27b8be"/><path d="M101.821,161.317l1.72-.345.344,1.717-1.72.345Z" transform="translate(-76.143 -120.378)" fill="#71ba44"/><path d="M113.041,161.6l1.339-.268.268,1.337-1.339.269Z" transform="translate(-84.534 -120.648)" fill="#d0da33"/><path d="M120.986,159.3l1.34-.269.268,1.338-1.34.268Z" transform="translate(-90.475 -118.93)" fill="#29367b"/><path d="M111.2,152.5l1.339-.268.268,1.337-1.339.268Z" transform="translate(-83.157 -113.842)" fill="#3088c8"/><path d="M119.868,153.248l.942-.189L121,154l-.942.188Z" transform="translate(-89.639 -114.46)" fill="#71ba44"/><path d="M112.545,145.628l.942-.189.189.94-.942.189Z" transform="translate(-84.163 -108.762)" fill="#b1aeb3"/><path d="M80.586,144.8l.907-1.986-1.991-.905L78.6,143.9" transform="translate(-58.775 -106.122)" fill="#27b8be"/><path d="M92.926,149.924l.727-1.593-1.6-.726-.728,1.594" transform="translate(-68.297 -110.382)" fill="#d0da33"/><path d="M87.528,134.565l.728-1.594-1.6-.726-.727,1.594" transform="translate(-64.261 -98.895)" fill="#3088c8"/><path d="M95.641,140.094l.566-1.241,1.242.567-.566,1.241Z" transform="translate(-71.522 -103.837)" fill="#27b8be"/><path d="M103.483,152.957l.566-1.24-1.243-.565-.567,1.241" transform="translate(-76.457 -113.034)" fill="#b1aeb3"/><path d="M92.933,125.883l.566-1.241,1.242.567-.566,1.241Z" transform="translate(-69.497 -93.21)" fill="#29367b"/><path d="M103.441,142.866l.566-1.241,1.242.567-.566,1.241Z" transform="translate(-77.355 -105.91)" fill="#58b75e"/><path d="M99.488,131.643l.566-1.241,1.242.567-.567,1.241Z" transform="translate(-74.399 -97.517)" fill="#d0da33"/><path d="M107.762,137.13l.4-.873-.875-.4-.4.873" transform="translate(-79.932 -101.598)" fill="#1e3871"/><path d="M106.285,126.678l.4-.873-.875-.4-.4.873" transform="translate(-78.827 -93.783)" fill="#71ba44"/><path d="M78.432,107.191l1.9-1.081-1.084-1.9-1.9,1.081" transform="translate(-57.843 -77.933)" fill="#27b8be"/><path d="M86.121,118.243l1.524-.867-.87-1.521-1.524.868" transform="translate(-63.753 -86.638)" fill="#71ba44"/><path d="M90.748,102.634l1.524-.868-.87-1.522-1.524.868" transform="translate(-67.213 -74.965)" fill="#1e3871"/><path d="M95.381,112.759l1.186-.676-.677-1.184-1.187.675" transform="translate(-70.821 -82.932)" fill="#3088c8"/><path d="M101.5,99.652l1.186-.676-.677-1.184-1.187.675" transform="translate(-75.399 -73.131)" fill="#71ba44"/><path d="M100.069,119.561l1.187-.675-.677-1.185-1.187.676" transform="translate(-74.327 -88.019)" fill="#27b8be"/><path d="M103.453,108.147l1.187-.675-.677-1.185-1.187.676" transform="translate(-76.857 -79.483)" fill="#d0da33"/><path d="M106.905,115.964l.835-.475-.476-.833-.835.475" transform="translate(-79.589 -85.742)" fill="#b1aeb3"/><path d="M111.833,106.625l.835-.475-.476-.833-.835.475" transform="translate(-83.275 -78.758)" fill="#71ba44"/><path d="M99.622,76.473l.232-2.17,2.174.233-.232,2.17Z" transform="translate(-74.499 -55.565)" fill="#71ba44"/><path d="M99.88,89.407l.186-1.741,1.745.187-.186,1.741Z" transform="translate(-74.692 -65.558)" fill="#b1aeb3"/><path d="M112.781,79.45l.186-1.741,1.745.187-.186,1.741Z" transform="translate(-84.339 -58.112)" fill="#27b8be"/><path d="M111.066,89.91l.145-1.356,1.358.146-.145,1.356Z" transform="translate(-83.057 -66.222)" fill="#d0da33"/><path d="M123.705,82.836l.145-1.356,1.358.145-.145,1.356Z" transform="translate(-92.509 -60.932)" fill="#3088c8"/><path d="M110.874,98.161l.145-1.356,1.358.146-.145,1.356Z" transform="translate(-82.913 -72.393)" fill="#27b8be"/><path d="M120.314,90.876l.145-1.356,1.358.146-.145,1.356Z" transform="translate(-89.973 -66.945)" fill="#71ba44"/><path d="M119,98.752l.1-.954.956.1-.1.954Z" transform="translate(-88.993 -73.135)" fill="#1e3871"/><path d="M128.484,94.054l.1-.954.956.1-.1.954Z" transform="translate(-96.082 -69.622)" fill="#b1aeb3"/><path d="M128.128,108.352a5.208,5.208,0,0,0-4.388-.247,8.52,8.52,0,0,0-2.053,1.215,22.272,22.272,0,0,1-.107-5.547.008.008,0,0,1,.013-.005c.824.518.593,1.967.42,2.381,0,.008.009.014.015.007a2.556,2.556,0,0,0,.314-2.891c-.038-.061.194.125.385.369a2.831,2.831,0,0,1,.466,1.916s0,0,.005,0a2.419,2.419,0,0,0-.657-2.981c-.045-.038.13.019.186.039a2.006,2.006,0,0,1,1.267,1.921,1.91,1.91,0,0,0-1.49-2.521,1.907,1.907,0,0,1,1.34.267c.365.246.461.544.451.46a1.585,1.585,0,0,0-2.15-1.182,1.073,1.073,0,0,1,1.049-.486,1.04,1.04,0,0,1,.382.09.008.008,0,0,0,.009-.013,1.2,1.2,0,0,0-1.98.088.008.008,0,0,1-.014,0,3.773,3.773,0,0,1-.409-1.164,5.234,5.234,0,0,1-.424,1.164.008.008,0,0,1-.013,0,1.2,1.2,0,0,0-1.98-.088.008.008,0,0,0,.009.013,1.225,1.225,0,0,1,1.44.384.008.008,0,0,1-.01.012,1.581,1.581,0,0,0-2.15,1.182c0,.009.011.014.016.006a1.284,1.284,0,0,1,.286-.352,1.849,1.849,0,0,1,1.489-.382,1.968,1.968,0,0,0-1.489,1.191c-.242.649-.009,1.505,0,1.293a1.972,1.972,0,0,1,1.445-1.938.008.008,0,0,1,.007.014,2.356,2.356,0,0,0-.643,2.976,2.448,2.448,0,0,1,.828-2.289c.007-.005.018,0,.013.01a2.557,2.557,0,0,0,.314,2.891c.006.007.018,0,.015-.007-.172-.414-.4-1.863.42-2.381a.008.008,0,0,1,.013.005,22.222,22.222,0,0,1-.107,5.547,6.289,6.289,0,0,0-4.245-1.579,4.949,4.949,0,0,0-2.2.61.019.019,0,0,0,.017.035c2.407-.769,4.491.164,6.428,1.776a21.424,21.424,0,0,1-2.382,2.014.54.54,0,1,0-.857.656c.846.844,2.168-.83,3.749-2.23,1.522,1.345,2.906,3.073,3.75,2.23a.6.6,0,0,0,.105-.466.541.541,0,0,0-.963-.19,21.018,21.018,0,0,1-2.382-2.014c1.951-1.626,4.011-2.533,6.427-1.776a.019.019,0,0,0,.017-.035" transform="translate(-85.408 -74.823)" fill="#727a82"/><path d="M35.016,207.621h.627V202h-.627Zm-16.442-.627-.98-2.4a2.32,2.32,0,0,1,3.082,0l-.98,2.4Zm-3.459,0a4.314,4.314,0,0,1-1.3-.1c-1.7-.536-1.235-2.893.663-2.893h.635Zm17.445,0c-1.011-.031-1.921.179-2.385-.626a17.38,17.38,0,0,0,.055-2.607H29.6v2.122c0,1.557-1.879,1.456-2.322.521-.178-.376-.069-.533-.1-2.642h-.628v2.169a.978.978,0,0,1-1.059,1.064H24.277v-3.233H23.65v3.233H20.355l1.1-2.622a3.837,3.837,0,0,0-2.322-1.057,3.7,3.7,0,0,0-2.322,1.057l1.106,2.622H15.743v-3.624h-1a2.319,2.319,0,0,0-2.6,2.153c0,2.38,2.919,2.086,2.973,2.1-.01.077.078.615-.283.885a1.766,1.766,0,0,1-1.314.157,3.068,3.068,0,0,1-.529-.188l-.2.6a3.426,3.426,0,0,0,1.2.266c1.2,0,1.749-.6,1.749-1.605v-.117c10.241-.064,9.938.147,10.562-.2a1.611,1.611,0,0,0,.576-.525,1.6,1.6,0,0,0,.62.588,2.3,2.3,0,0,0,1.895.015,1.341,1.341,0,0,0,.608-.6,1.476,1.476,0,0,0,1.373.713v.007h1.812V202h-.628Zm56.306-.277a1.643,1.643,0,0,1-3.02-.02,1.72,1.72,0,0,1,0-1.272,1.642,1.642,0,0,1,3.02,1.292m-6.087,0a1.656,1.656,0,0,1-2.683.5,1.7,1.7,0,0,1,0-2.317,1.648,1.648,0,0,1,2.686,1.816m-15.261.277a4.079,4.079,0,0,1-1.283-.1A1.492,1.492,0,0,1,66.9,204h.62v3Zm24.066,0H89.428a2.273,2.273,0,1,0-4.142,0H83.34a2.273,2.273,0,1,0-4.142,0H77.206V202h-.627v4.993h-2c-.034-.643.146-1.595-.393-2.2a1.593,1.593,0,0,0-1.326-.54H70.084L71.265,202h-.683l-1.2,2.249a1.153,1.153,0,0,0,.282.634c3.138.026,3.343-.066,3.714.09a.854.854,0,0,1,.53.607,7.516,7.516,0,0,1,.047,1.412h-5.8v-3.624h-.989c-1.663,0-2.588.989-2.588,2.129,0,1.429,1.149,2.122,2.588,2.122H79.606a2.293,2.293,0,0,0,3.326,0h2.761a2.293,2.293,0,0,0,3.327,0h3.192V202h-.628v4.993Zm2.455.627h.628V202H94.04ZM47.8,209h.645v-.643H47.8Zm6.135-2.005-.981-2.4a2.32,2.32,0,0,1,3.083,0l-.98,2.4Zm4.447,0H55.719l1.1-2.622a3.835,3.835,0,0,0-2.322-1.057,3.7,3.7,0,0,0-2.322,1.057l1.106,2.622H50.942v-3.624h-.628v4.384c0,.554-.04.963-.6.963a.978.978,0,0,1-.321-.047l-.165.6a1.3,1.3,0,0,0,1.451-.357,2.437,2.437,0,0,0,.259-1.3h8.072V202h-.628v4.993Zm-47.639-3.076a2.113,2.113,0,0,0-1.781-.548V204a2.237,2.237,0,0,1,.98.1.929.929,0,0,1,.522.615,13.689,13.689,0,0,1,.051,2.286H7.577v.627h3.569c-.026-2.373.065-2.625-.1-3.155a1.437,1.437,0,0,0-.3-.548m34.763,5.089h.645v-.643h-.645Zm-3.815-2.013a4.082,4.082,0,0,1-1.283-.1,1.492,1.492,0,0,1,.663-2.9h.62Zm6.746-3.624h-.627v3.624H45.443v-3.624h-.628v3.624H42.321v-3.624a4.2,4.2,0,0,0-2.871.606c-1.283,1.086-.952,3.645,1.883,3.645h7.106v-4.251Zm-4.03,5.637h.645v-.643H44.41ZM2.474,202H1.829v.643h.645Zm64.57,0H66.4v.643h.645Zm-24.726,0h-.645v.643h.645ZM6.176,209.007h.645v-.643H6.176ZM41.219,202h-.645v.643h.645ZM3.573,202H2.928v.643h.645Zm1.5,7.005h.645v-.643H5.077Zm-2.128-2.013a4.079,4.079,0,0,1-1.283-.1,1.492,1.492,0,0,1,.663-2.9h.62ZM6.7,203.371H6.071v3.624H3.576v-3.624a6.612,6.612,0,0,0-2.056.16,2.176,2.176,0,0,0-1.337,1.124,2.14,2.14,0,0,0,.028,1.8,2.527,2.527,0,0,0,2.376,1.167H6.7Zm54.143,4.251h.627V202h-.627Zm7.3-5.619H67.5v.643h.645Z" transform="translate(0.001 -151.061)" fill="#ada9ae"/><path d="M2.438,240.6h.788v2.249L5.357,240.6h.967l-1.863,1.924,1.946,2.55H5.454l-1.53-2.013-.7.716v1.3H2.438" transform="translate(-1.823 -179.929)" fill="#ada9ae"/><path d="M21.028,240.6h.788v4.473h-.788Z" transform="translate(-15.725 -179.929)" fill="#ada9ae"/><path d="M28.96,240.6h.73l2.4,3.093V240.6h.774v4.473h-.659L29.735,241.9v3.183H28.96" transform="translate(-21.656 -179.929)" fill="#ada9ae"/><path d="M48.316,242.626v-.013a2.282,2.282,0,0,1,2.311-2.314,2.423,2.423,0,0,1,1.723.608l-.5.594a1.56,1.56,0,0,0-2.708,1.1v.013a1.5,1.5,0,0,0,1.523,1.6,1.833,1.833,0,0,0,1.082-.338v-.837H50.6v-.683H52.51v1.878c-1.6,1.37-4.194.666-4.194-1.6" transform="translate(-36.131 -179.7)" fill="#ada9ae"/><path d="M70.933,244.362a1.521,1.521,0,1,0,0-3.042H70.05v3.042ZM69.262,240.6h1.671a2.241,2.241,0,1,1,0,4.473H69.262Z" transform="translate(-51.795 -179.929)" fill="#ada9ae"/><path d="M92.121,242.626v-.013a1.534,1.534,0,0,0-1.524-1.591,1.513,1.513,0,0,0-1.511,1.578v.013A1.534,1.534,0,0,0,90.61,244.2a1.513,1.513,0,0,0,1.511-1.579m-3.861,0v-.013a2.344,2.344,0,0,1,4.687-.013v.013a2.344,2.344,0,0,1-4.687.013" transform="translate(-66.002 -179.7)" fill="#ada9ae"/><path d="M110.726,240.6h.839l1.364,2.115,1.364-2.115h.839v4.473h-.788V241.87l-1.415,2.109H112.9l-1.4-2.1v3.2h-.775" transform="translate(-82.803 -179.929)" fill="#ada9ae"/><path d="M143.465,242.626v-.013a1.534,1.534,0,0,0-1.524-1.591,1.512,1.512,0,0,0-1.511,1.578v.013a1.534,1.534,0,0,0,1.524,1.592,1.513,1.513,0,0,0,1.511-1.579m-3.861,0v-.013a2.344,2.344,0,0,1,4.687-.013v.013a2.344,2.344,0,0,1-4.687.013" transform="translate(-104.398 -179.7)" fill="#ada9ae"/><path d="M162.072,240.6h3.336v.716H162.86v1.221h2.26v.715h-2.26v1.822h-.788" transform="translate(-121.2 -179.929)" fill="#ada9ae"/><path d="M185.158,244.232l.474-.563a2.063,2.063,0,0,0,1.415.582c.486,0,.794-.223.794-.563v-.012c0-1-2.5-.318-2.5-2.02v-.013c0-1.373,1.922-1.723,3.157-.735l-.423.594c-1.031-.767-1.946-.466-1.946.071v.013c0,.985,2.5.362,2.5,2.013v.013c0,1.569-2.224,1.73-3.471.62" transform="translate(-138.464 -179.734)" fill="#ada9ae"/><path d="M203.769,243.208l-.775-1.789-.769,1.789Zm-1.127-2.729h.73l1.972,4.505h-.832l-.454-1.08h-2.12l-.46,1.08h-.807Z" transform="translate(-150.064 -179.835)" fill="#ada9ae"/><path d="M221.043,243.181V240.6h.788v2.544c0,.831.429,1.278,1.133,1.278s1.127-.421,1.127-1.246V240.6h.788v2.537a1.788,1.788,0,0,1-1.928,2.007,1.765,1.765,0,0,1-1.908-1.969" transform="translate(-165.3 -179.929)" fill="#ada9ae"/><path d="M242.494,244.362a1.521,1.521,0,1,0,0-3.042h-.883v3.042Zm-1.671-3.758h1.671a2.241,2.241,0,1,1,0,4.473h-1.671Z" transform="translate(-180.092 -179.929)" fill="#ada9ae"/><path d="M260.852,240.6h.788v4.473h-.788Z" transform="translate(-195.07 -179.929)" fill="#ada9ae"/><path d="M277.92,243.208l-.775-1.789-.769,1.789Zm-1.127-2.729h.73l1.972,4.505h-.832l-.455-1.08h-2.12l-.46,1.08h-.807Z" transform="translate(-205.515 -179.835)" fill="#ada9ae"/><path d="M298.248,242.823c.564,0,.922-.294.922-.748v-.013c0-.479-.346-.741-.929-.741H297.1v1.5Zm-1.94-2.218h2c.947,0,1.665.476,1.665,1.412a1.342,1.342,0,0,1-1.07,1.368l1.21,1.693h-.929l-1.1-1.559H297.1v1.559h-.788Z" transform="translate(-221.584 -179.929)" fill="#ada9ae"/><path d="M316.787,243.208l-.775-1.789-.769,1.789Zm-1.127-2.729h.73l1.972,4.505h-.832l-.455-1.08h-2.12l-.46,1.08h-.807Z" transform="translate(-234.581 -179.835)" fill="#ada9ae"/><path d="M337.253,244.382c.538,0,.864-.211.864-.614v-.013c0-.377-.3-.6-.922-.6h-1.249v1.227Zm-.23-1.892c.506,0,.845-.2.845-.607v-.013c0-.352-.282-.569-.788-.569h-1.133v1.189Zm-1.85-1.885h2.011c.788,0,1.472.369,1.472,1.138a1.054,1.054,0,0,1-.64,1.01,1.1,1.1,0,0,1,.89,1.086v.013c0,.8-.659,1.227-1.658,1.227h-2.075Z" transform="translate(-250.648 -179.929)" fill="#ada9ae"/><path d="M353.843,240.6h.788v4.473h-.788Z" transform="translate(-264.61 -179.929)" fill="#ada9ae"/><path d="M363.047,243.208l-.775-1.789-.768,1.789Zm-1.127-2.729h.73l1.972,4.505h-.832l-.454-1.08h-2.12l-.46,1.08h-.807Z" transform="translate(-269.175 -179.835)" fill="#ada9ae"/></g></g></svg>